<?xml version="1.0" standalone="no"?>
<!DOCTYPE svg PUBLIC "-//W3C//DTD SVG 1.1//EN" "http://www.w3.org/Graphics/SVG/1.1/DTD/svg11.dtd" >
<svg>
<metadata>
Created by FontForge 20110222 at Thu Mar 12 07:45:56 2015
 By www-data
Web use only; not licensed for further use or distribution by website users.
</metadata>
<defs>
<font id="Munged-FTit9P3wes" horiz-adv-x="1280" >
  <font-face 
    font-family="Munged-FTit9P3wes"
    font-weight="800"
    font-stretch="normal"
    units-per-em="2048"
    panose-1="2 0 9 4 4 0 0 2 0 4"
    ascent="1638"
    descent="-410"
    x-height="1020"
    cap-height="1536"
    bbox="-155 -647 2544 2141"
    underline-thickness="50"
    underline-position="-50"
    unicode-range="U+0020-FB04"
  />
<missing-glyph horiz-adv-x="410" 
 />
    <glyph glyph-name="fi" unicode="fi" horiz-adv-x="1341" 
d="M1292 0h-575v262h28q32 0 44 15t12 53v383q0 11 -7.5 24t-27.5 13h-197v-412q0 -35 11.5 -55.5t42.5 -20.5h36v-262h-587v264h59q25 0 37 13t12 55v418h-108v268h104v115q0 81 28 161.5t87 144.5t152 104t223 40q45 0 92.5 -7t92.5 -18t84.5 -24.5t68.5 -26.5l-43 -340
l-222 25q4 10 6 25.5t1.5 31t-3 29.5t-8.5 22q-11 16 -32.5 27.5t-47.5 11.5q-21 0 -37 -11.5t-27 -32t-16.5 -48t-5.5 -59.5v-170h463q30 0 59 3t52 8q26 4 51 11v-702q0 -48 13 -62t36 -14h49v-262z" />
    <glyph glyph-name="fl" unicode="fl" horiz-adv-x="1341" 
d="M1307 0h-586v262h39q28 0 35.5 15t7.5 49v931q0 35 -2.5 58t-11.5 37t-26 20t-46 6q-31 0 -56.5 -14t-44 -37.5t-28.5 -54t-10 -62.5v-190h153l-51 -299q-20 18 -48 23.5t-54 5.5v-418q0 -35 9 -52.5t38 -17.5h39v-262h-580v264h55q25 0 34 13t9 55v418h-110v270h110v129
q0 108 31 189.5t87.5 136t135.5 82.5t176 28q55 0 105.5 -5t96 -10.5t86 -10.5t75.5 -5q75 0 135 8t88 23v-1259q0 -38 10 -51t35 -13h64v-262z" />
    <glyph glyph-name="f_f" unicode="ff" horiz-adv-x="1434" 
d="M1614 1507l-43 -340l-221 25q4 11 5.5 26t1.5 29.5t-1.5 27t-3.5 17.5q-7 14 -24.5 28.5t-51.5 14.5q-84 0 -84 -131v-184h219q-14 -82 -25 -146q-5 -27 -9.5 -53.5t-8 -47.5t-6 -35t-2.5 -15q-9 6 -22.5 11t-28.5 8.5t-31 5.5t-29 2h-57v-412q0 -35 13 -55.5t44 -20.5
h43v-262h-587v264h38q25 0 37.5 13t12.5 55v418h-232v-412q0 -35 10 -55.5t41 -20.5h35v-262h-575v264q9 -1 18 -1q8 -1 15.5 -1h13.5q25 0 40 15t15 53v420h-98v270h98v127q0 102 39.5 184.5t112.5 141.5q23 18 53 34t64 28t71.5 19t75.5 7q61 0 110 -9.5t89 -25t73 -35
t64 -39.5q31 26 69 50t81.5 42t91 28.5t96.5 10.5q64 0 115.5 -7.5t93.5 -19t76.5 -24.5t64.5 -25zM817 1262q-6 10 -19.5 20t-30.5 18t-36 13.5t-37 5.5q-27 0 -50.5 -11t-41.5 -32t-28.5 -50.5t-10.5 -66.5v-139h236v141q0 20 6 49.5t12 51.5z" />
    <glyph glyph-name="f_f_i" unicode="ffi" horiz-adv-x="1960" 
d="M1907 0h-578v262h35q32 0 41.5 15t9.5 53v383q0 11 -9.5 24t-29.5 13h-188v-412q0 -35 6 -55.5t37 -20.5h41v-262h-572v264h50q24 0 36.5 13t12.5 55v418h-240v-412q0 -35 8 -55.5t39 -20.5h37v-262h-571v264h53q25 0 36 14t11 52v420h-100v270h100v127q0 102 38.5 184.5
t111.5 141.5q23 18 53 34t64 28t71.5 19t75.5 7q61 0 110 -9.5t89 -25t73 -35t64 -39.5q31 26 69 50t81.5 42t90.5 28.5t97 10.5q64 0 115.5 -7.5t93.5 -19t76.5 -24.5t64.5 -25l-43 -340l-221 25q4 11 5.5 26t1.5 29.5t-1.5 27t-3.5 17.5q-7 14 -24.5 28.5t-51.5 14.5
q-84 0 -84 -131v-184h481q30 0 55.5 2t45.5 4q23 3 42 6v-694q0 -24 2 -39t7 -23t14 -11t23 -3h49v-262zM813 1262q-6 10 -19.5 20t-30.5 18t-36 13.5t-37 5.5q-27 0 -51 -11t-41.5 -32t-28 -50.5t-10.5 -66.5v-139h236v141q0 20 6 49.5t12 51.5z" />
    <glyph glyph-name="f_f_l" unicode="ffl" horiz-adv-x="1958" 
d="M1917 0h-586v262h45q28 0 35.5 15t7.5 49v907q0 28 -2.5 50.5t-11.5 38.5t-26 25t-46 9q-21 0 -45.5 -11.5t-45.5 -32t-35.5 -48.5t-14.5 -60v-184h154q-14 -82 -25 -146q-5 -27 -9.5 -53.5t-8.5 -47.5t-6.5 -35t-2.5 -15q-17 12 -33.5 19.5t-37.5 7.5h-31v-412
q0 -35 9 -55.5t40 -20.5h33v-262h-569v264h38q25 0 37.5 13t12.5 55v418h-232v-412q0 -35 10 -55.5t41 -20.5h35v-262h-575v264q9 -1 18 -1q8 -1 15.5 -1h13.5q25 0 40 15t15 53v420h-98v270h98v127q0 102 39.5 184.5t112.5 141.5q23 18 53 34t64 28t71.5 19t75.5 7
q61 0 110.5 -10t90 -25.5t74.5 -35.5t65 -40q31 26 68.5 50t80 42.5t89.5 29.5t96 11q64 0 116 -5t95 -10.5t79.5 -10.5t71.5 -5q15 0 37.5 1t49 4t53 9t49.5 17v-1249q0 -37 9.5 -54.5t35.5 -17.5h57v-262zM817 1262q-6 10 -19.5 20t-30.5 18t-36 13.5t-37 5.5
q-27 0 -50.5 -11t-41.5 -32t-28.5 -50.5t-10.5 -66.5v-139h236v141q0 20 6 49.5t12 51.5z" />
    <glyph glyph-name=".notdef" horiz-adv-x="410" 
 />
    <glyph glyph-name="Eth" unicode="&#xd0;" horiz-adv-x="1825" 
d="M1769 836q0 -188 -56 -342t-166.5 -263.5t-275 -170t-380.5 -60.5h-809v287h65q54 0 79.5 23.5t25.5 68.5v276h-184v295h184v203q0 48 -18 72t-66 24h-88v287h909q180 0 324.5 -54.5t246 -149.5t155.5 -222.5t54 -273.5zM1233 834q0 76 -26.5 150t-74.5 133t-114.5 95.5
t-147.5 36.5h-127v-299h234v-299h-234v-342q19 -2 39.5 -3t32.5 -1q107 -1 185.5 37.5t130.5 108.5t77 167.5t25 215.5z" />
    <glyph glyph-name="eth" unicode="&#xf0;" horiz-adv-x="1270" 
d="M1237 25l-496 -48v179q-16 -29 -40 -61.5t-59 -60.5t-81.5 -46.5t-107.5 -18.5q-66 0 -121.5 23t-100.5 61.5t-78.5 90.5t-56 110t-34 119.5t-11.5 118.5q0 116 31.5 219.5t90.5 181.5t143.5 124t189.5 46q78 0 134.5 -32t90.5 -77v295h-246l-39 287h660v-1196
q0 -40 5 -56t28 -16q26 0 54 5l30 6zM731 459v137q0 27 -7 58t-19.5 58t-31 44.5t-42.5 17.5q-30 0 -53.5 -20.5t-40 -56.5t-25 -84.5t-8.5 -104.5q0 -100 27.5 -152.5t89.5 -52.5q25 0 44 12.5t32.5 34t21.5 49.5t12 60z" />
    <glyph glyph-name="Lslash" unicode="&#x141;" horiz-adv-x="1528" 
d="M1530 477l-88 -508q-55 8 -106 15q-44 6 -89 11t-73 5h-1084v287h70q48 0 71 23.5t23 74.5v119l-107 -41l-106 272l213 82v338q0 47 -17 71.5t-67 24.5h-86v285h842v-287h-72q-50 0 -77 -24.5t-27 -77.5v-139l139 53l106 -273l-245 -94v-399h268q72 -1 116 12t70.5 40
t41 68.5t28.5 98.5z" />
    <glyph glyph-name="lslash" unicode="&#x142;" horiz-adv-x="823" 
d="M821 766l-227 -94v-334q0 -35 14 -55.5t45 -20.5h49v-262h-579v264h41q15 0 26 2t18 9t10 20t3 35v190l-96 -39l-111 275l207 80v297q0 29 -4 41t-18 12q-11 0 -20.5 -2.5t-17.5 -5.5q-9 -4 -16 -7l-65 259l514 122v-569l121 53z" />
    <glyph glyph-name="Scaron" unicode="&#x160;" horiz-adv-x="1497" 
d="M1399 475q0 -95 -34 -186t-99 -162.5t-160 -115.5t-217 -44q-63 0 -126 13.5t-116 30t-91.5 30t-53.5 12.5q-14 0 -26.5 -15.5t-6.5 -37.5l-248 -41l-117 496l271 61q24 -69 53 -116.5t67.5 -76.5t87.5 -42t113 -13q39 0 66 13.5t44 33t24.5 41.5t7.5 39q0 30 -13.5 54.5
t-37 46t-56 41.5t-69.5 41q-72 38 -135 75t-111 68q-58 37 -105.5 80.5t-82 94.5t-53.5 110.5t-19 128.5q0 62 21 119t58.5 107t89 91.5t111 71t125.5 45.5t133 16q93 0 158 -7t108.5 -15.5t68 -15.5t36.5 -7q13 -2 24 2q9 3 17 11t8 26l270 -39l-57 -473l-289 41q2 4 4 22
t2 39.5t-2.5 42.5t-9.5 33q-46 76 -174 76q-30 0 -59.5 -8t-53.5 -23.5t-39 -38t-16 -51.5t14 -52.5t41 -44t60.5 -39.5t73.5 -40q31 -17 55.5 -31t53 -29.5t64.5 -35.5t89 -49q56 -31 103 -76t81.5 -98.5t54 -112.5t19.5 -117zM1233 2080l-426 -414h-168l-420 414l47 61
l461 -248l457 248z" />
    <glyph glyph-name="scaron" unicode="&#x161;" horiz-adv-x="1059" 
d="M993 1022l-53 -373l-233 31q4 30 -4.5 56t-25 45.5t-39 30.5t-46.5 11q-38 0 -61 -14t-23 -45q0 -22 13 -38.5t37 -31.5t57 -31t73 -38q31 -17 67 -35.5t81 -44.5q71 -42 110 -105.5t39 -154.5q0 -67 -26 -125t-71.5 -101t-107 -67.5t-131.5 -24.5q-59 0 -105.5 9.5
t-81 20.5t-57.5 20.5t-34 9.5q-16 0 -27 -9t-6 -30l-221 -39l-84 360l241 47q7 -32 20.5 -60.5t35.5 -49.5t53.5 -33t73.5 -12t64 16t22 51q0 28 -24 50t-66 42q-11 6 -34 17.5t-49.5 25t-52 26.5t-41.5 22q-92 49 -132 119.5t-40 170.5q0 81 30 141t82.5 100.5t123.5 60.5
t152 20q28 0 62 -7.5t65.5 -16t58 -16t39.5 -7.5q26 0 35.5 11t15.5 34zM1027 1597l-426 -414h-168l-420 414l47 61l461 -248l457 248z" />
    <glyph glyph-name="Yacute" unicode="&#xdd;" horiz-adv-x="1704" 
d="M1677 1249h-73q-34 0 -59 -13.5t-54 -53.5q-14 -19 -37 -51t-51 -71t-59.5 -82.5t-62.5 -85.5q-72 -99 -155 -214v-326q0 -25 18.5 -45t55.5 -20h94v-287h-825v287h72q29 0 48 7.5t30 20.5t15.5 30t4.5 36v270q-99 121 -183 225q-36 44 -72 88.5t-67.5 83.5t-55.5 69.5
t-36 45.5q-32 44 -71 65t-74 21h-57v287h909v-287h-55q-26 0 -38 -6.5t-12 -28.5q0 -14 10 -26.5t21 -26.5q3 -5 11.5 -15.5t19.5 -24.5t24.5 -31t26.5 -34q31 -40 68 -87q37 53 67 97q13 19 25.5 37t22.5 33t17 26t9 14q25 40 22 56.5t-32 16.5h-86v287h624v-287z
M1210 1865l-633 -237l-47 80l524 424z" />
    <glyph glyph-name="yacute" unicode="&#xfd;" horiz-adv-x="1217" 
d="M1208 758h-34q-25 0 -44.5 -17.5t-37.5 -60.5q-12 -28 -41.5 -94.5t-69.5 -156.5t-86.5 -195.5t-92.5 -211.5q-110 -249 -241 -546h-418q45 58 90 118q38 51 80 111t74 113q20 34 43 74.5t42 76.5q22 41 44 84q-89 156 -162 285q-31 55 -62 109t-57 100t-44.5 78.5
t-24.5 44.5q-13 23 -23.5 39.5t-21 27.5t-22.5 16t-27 5h-41v262h633v-262h-37q-26 0 -36.5 -7t-10.5 -24q0 -18 18 -57q4 -9 16.5 -32t27.5 -50t29.5 -53.5t22.5 -42.5q3 -7 5.5 -15.5t4.5 -16.5q3 -10 5 -20q1 10 4 20q3 16 10 32q6 12 15.5 35.5t20 50t21 52t17.5 40.5
q8 18 13 32.5t5 22.5q0 12 -9 22.5t-26 10.5h-39v262h467v-262zM1108 1382l-633 -237l-47 80l524 424z" />
    <glyph glyph-name="Thorn" unicode="&#xde;" horiz-adv-x="1612" 
d="M1569 793q0 -43 -13 -97t-41 -110.5t-72.5 -110t-107.5 -95.5t-145 -67.5t-186 -25.5h-263v-287h-657v287h80q46 0 68 20.5t22 67.5v770q0 59 -20 81.5t-68 22.5h-76v287h631v-287h299q146 0 250 -37.5t170.5 -100.5t97.5 -145.5t31 -172.5zM1061 786q0 37 -11 69.5
t-35 56.5t-62 37.5t-93 13.5h-125v-383h103q60 0 102 16.5t69 44.5t39.5 65.5t12.5 79.5z" />
    <glyph glyph-name="thorn" unicode="&#xfe;" horiz-adv-x="1249" 
d="M1202 545q0 -114 -23.5 -218.5t-72.5 -184.5t-125 -127.5t-182 -47.5q-51 0 -87.5 7.5t-64 20t-49.5 29.5t-43 35v-249q0 -18 2 -33.5t9.5 -27.5t21.5 -18.5t39 -6.5h53v-238h-610v238h32q13 0 25.5 3.5t22 12t15 23.5t5.5 38v1362q0 25 -4.5 38.5t-14 17t-23.5 -1
t-32 -13.5l-71 258l524 123v-713q15 35 42.5 69t62.5 61t76.5 44t84.5 17q96 0 166.5 -49t120.5 -127q48 -75 74 -158.5t26 -183.5zM772 502q0 57 -10 100.5t-25.5 73t-34 44.5t-34.5 15q-29 0 -49.5 -17.5t-33.5 -44.5t-19.5 -59t-6.5 -61v-154q0 -72 22 -114.5t76 -42.5
q22 0 42.5 20.5t36.5 55.5t26 82.5t10 101.5z" />
    <glyph glyph-name="Zcaron" unicode="&#x17d;" horiz-adv-x="1556" 
d="M1501 467l-100 -504q-37 10 -73 18q-31 7 -64.5 13t-59.5 6h-1054l-119 184l772 1082h-240q-49 0 -86.5 -8t-66 -30.5t-49.5 -62t-37 -102.5l-244 35l80 456q15 -5 40.5 -8.5t53 -5.5t55 -3t47.5 -1h1051l80 -178l-782 -1102h239q77 0 128 20t84 56.5t51.5 87.5t29.5 112
zM1343 2080l-426 -414h-168l-420 414l47 61l461 -248l457 248z" />
    <glyph glyph-name="zcaron" unicode="&#x17e;" horiz-adv-x="1204" 
d="M1137 334l-88 -418l-236 41q3 20 -6 31.5t-35 11.5h-616l-93 168l500 600h-102q-37 0 -61 -4t-41 -16.5t-29 -37t-25 -65.5l-211 39l84 367q12 -5 33.5 -10.5t47.5 -10t52 -7.5t47 -3h676l90 -162l-471 -608h123q31 0 52 6t36 21t26.5 41t24.5 67zM1135 1597l-426 -414
h-168l-420 414l47 61l461 -248l457 248z" />
    <glyph glyph-name="space" unicode=" " horiz-adv-x="410" 
 />
    <glyph glyph-name="exclam" unicode="!" horiz-adv-x="684" 
d="M563 1597q-25 -238 -46 -448q-9 -90 -18.5 -183t-18.5 -177.5t-16.5 -156t-12.5 -118.5l-201 -74q-8 56 -18.5 126.5t-22 145t-22.5 149t-20.5 138t-17 112t-10.5 71.5q-5 32 -14.5 45.5t-28.5 13.5q-9 0 -23.5 -3t-23.5 -5v268zM555 168q0 -41 -16 -76t-44.5 -60.5
t-67 -40t-83.5 -14.5q-32 0 -64 12t-57.5 33t-41 48.5t-15.5 58.5q0 41 18.5 75t49 59t69.5 38.5t80 13.5q30 0 60.5 -11t55.5 -31t40.5 -47t15.5 -58z" />
    <glyph glyph-name="quotedbl" unicode="&#x22;" horiz-adv-x="1014" 
d="M895 1534l-98 -565h-115l-102 565h315zM436 1534l-98 -565h-115l-102 565h315z" />
    <glyph glyph-name="numbersign" unicode="#" horiz-adv-x="1350" 
d="M1260 397h-242l-51 -430h-297l51 430h-195l-51 -430h-297l53 430h-151v287h182l25 193h-207v282h242l45 402h297l-50 -402h197l49 402h295l-47 -402h152v-282h-185l-22 -193h207v-287zM778 877h-194l-25 -193h197z" />
    <glyph glyph-name="dollar" unicode="$" horiz-adv-x="1413" 
d="M1354 457q0 -95 -25.5 -183t-81.5 -156.5t-146 -109.5t-220 -41q-26 0 -38 1.5t-32 4.5v-155h-160v184q-35 9 -67 18.5t-57.5 17t-43.5 12t-26 3.5q-14 0 -26.5 -15.5t-6.5 -37.5l-248 -41l-117 496l271 73q24 -69 53 -118.5t67.5 -81t87.5 -46t113 -14.5q39 0 66 13.5
t44 33t24.5 41.5t7.5 39q0 30 -13.5 54.5t-37 46t-56 41.5t-70.5 41q-71 38 -134 75t-111 68q-116 74 -179 175t-63 239q0 93 43.5 174.5t116 143t166 97t194.5 35.5h6v139h156v-147q55 -5 91 -11.5t59 -12t36.5 -9.5t22.5 -4q13 -2 24 2q9 3 17 11t8 26l270 -39l-57 -461
l-289 29q2 4 3.5 20.5t0.5 37t-4 40t-10 31.5q-23 38 -64 61t-106 23q-30 0 -59.5 -8t-53.5 -23.5t-39 -38t-16 -51.5t14 -52.5t41 -44t60.5 -39.5t73.5 -40q30 -17 55 -31t53 -29.5t64.5 -35.5t89.5 -49q56 -31 103 -79t81.5 -105t54 -118.5t19.5 -119.5z" />
    <glyph glyph-name="percent" unicode="%" horiz-adv-x="1516" 
d="M721 1130q0 -97 -27 -178.5t-73 -141t-107 -93t-129 -33.5q-78 0 -140.5 36t-106 97.5t-66.5 142t-23 170.5q0 91 25 172t70 142t107.5 97t137.5 36q78 0 140 -34t104.5 -93.5t65 -141.5t22.5 -178zM1272 1507l-910 -1554l-118 72l901 1552zM1466 397q0 -97 -27 -178.5
t-72.5 -141t-106.5 -93t-130 -33.5q-78 0 -140 36t-105.5 97.5t-66.5 142t-23 170.5q0 91 25 172t70 142t107.5 97t137.5 36q78 0 139.5 -34t104 -93.5t65 -141.5t22.5 -178zM438 1130q0 78 -1 129.5t-6.5 82.5t-16 44t-29.5 13q-18 0 -28.5 -11t-16 -40.5t-7 -82
t-1.5 -135.5q0 -84 1 -136t5.5 -80.5t15 -38t29.5 -9.5t30 11t16.5 40.5t7 80.5t1.5 132zM1184 397q0 78 -1 129.5t-6.5 82.5t-16.5 44t-30 13q-18 0 -28.5 -11t-16 -40.5t-7 -82t-1.5 -135.5q0 -84 1 -136t5.5 -80.5t15 -38t29.5 -9.5t30.5 11t17 40.5t7 80.5t1.5 132z" />
    <glyph glyph-name="ampersand" unicode="&#x26;" horiz-adv-x="1808" 
d="M1735 0h-555q-8 18 -21.5 37.5t-26.5 35.5q-15 18 -32 36q-40 -31 -92.5 -60.5t-117 -52.5t-141.5 -37t-167 -14q-106 0 -200.5 32.5t-166 92t-113 143t-41.5 186.5q0 92 35.5 168t91.5 136.5t124.5 105.5t133.5 76q-69 78 -110 159.5t-41 159.5q0 64 22.5 119.5t61 99.5
t91 77t112.5 54q48 16 97 22.5t103 6.5t104.5 -10t95 -28.5t80.5 -43.5t60 -55q31 -37 45.5 -79.5t14.5 -84.5q0 -57 -18 -103.5t-50 -85.5t-76.5 -72.5t-97.5 -64.5l344 -364q21 21 34 42t19.5 38.5t8.5 30t2 16.5q0 23 -8.5 33t-28.5 10h-39v262h459v-262h-29
q-15 0 -26 -2.5t-21 -10t-19 -20.5t-20 -35q-28 -54 -67.5 -120.5t-98.5 -143.5q7 -7 11 -11.5t9 -10t12.5 -12.5t20.5 -19q18 -15 37 -31t39.5 -29t42 -21.5t43.5 -8.5h70v-287zM930 293q-76 89 -142 166q-28 33 -57 67t-55 64.5t-47.5 56t-34.5 41.5q-10 -12 -22.5 -26
t-23.5 -31.5t-18.5 -37.5t-7.5 -44q0 -65 23.5 -121t63.5 -97t92 -64t108 -23q37 0 70.5 15t50.5 34zM907 1288q0 42 -28 69t-68 27q-45 0 -71.5 -24t-26.5 -72q0 -21 8 -41.5t20.5 -40t27.5 -38t30 -33.5q21 15 40.5 31.5t34.5 35.5t24 40.5t9 45.5z" />
    <glyph glyph-name="quotesingle" unicode="'" horiz-adv-x="555" 
d="M436 1534l-98 -565h-115l-102 565h315z" />
    <glyph glyph-name="parenleft" unicode="(" horiz-adv-x="741" 
d="M686 1530q-25 -48 -51 -112t-51.5 -139.5t-48 -160.5t-39.5 -175t-27 -182t-10 -181q0 -135 20.5 -273.5t53 -267t72.5 -238.5t79 -188l-104 -68q-101 92 -192.5 207.5t-160.5 247.5t-110 276.5t-41 294.5q0 165 42.5 317t111.5 283.5t157.5 240t181.5 187.5z" />
    <glyph glyph-name="parenright" unicode=")" horiz-adv-x="741" 
d="M659 571q0 -150 -41 -294.5t-110 -276.5t-160.5 -247.5t-191.5 -207.5l-105 68q39 78 79.5 188t72.5 238.5t52.5 267t20.5 273.5q0 89 -10 181t-27 182t-39.5 175t-48 160.5t-52 139.5t-50.5 112l117 69q93 -79 181.5 -187.5t158 -240t111.5 -283.5t42 -317z" />
    <glyph glyph-name="asterisk" unicode="*" horiz-adv-x="1030" 
d="M920 1198l-297 -49l200 -217l-168 -119l-137 256l-141 -256l-174 123l203 213l-297 43l59 217l285 -129l-50 305h222l-47 -305l284 123z" />
    <glyph glyph-name="plus" unicode="+" horiz-adv-x="1065" 
d="M1001 856l-65 -221h-291v-295l-237 -72v367h-342l63 221h279v285l237 71v-356h356z" />
    <glyph glyph-name="comma" unicode="," horiz-adv-x="614" 
d="M494 143q0 -33 -4 -60t-12.5 -52.5t-22.5 -51t-35 -55.5q-13 -18 -33 -38.5t-42.5 -40t-44.5 -37t-40 -29.5q-21 20 -39 38q-15 15 -29.5 29t-19.5 19q20 12 37.5 24.5t34 28.5t31.5 36t30 48q-17 -12 -35.5 -16t-33.5 -4q-26 0 -50 9t-42.5 26.5t-30 41.5t-11.5 54
q0 42 16 78t45 63t69 42t87 15q39 0 71.5 -14t55.5 -37t35.5 -53.5t12.5 -63.5z" />
    <glyph glyph-name="hyphen" unicode="-" horiz-adv-x="688" 
d="M598 770l-68 -246h-335q-39 0 -60.5 -3t-44.5 -9l70 246h370q20 0 34.5 3t33.5 9z" />
    <glyph glyph-name="hyphen" unicode="&#x2011;" horiz-adv-x="688" 
d="M598 770l-68 -246h-335q-39 0 -60.5 -3t-44.5 -9l70 246h370q20 0 34.5 3t33.5 9z" />
    <glyph glyph-name="hyphen" unicode="&#x2010;" horiz-adv-x="688" 
d="M598 770l-68 -246h-335q-39 0 -60.5 -3t-44.5 -9l70 246h370q20 0 34.5 3t33.5 9z" />
    <glyph glyph-name="hyphen" unicode="&#xad;" horiz-adv-x="688" 
d="M598 770l-68 -246h-335q-39 0 -60.5 -3t-44.5 -9l70 246h370q20 0 34.5 3t33.5 9z" />
    <glyph glyph-name="period" unicode="." horiz-adv-x="614" 
d="M492 164q0 -41 -16.5 -76t-45 -60.5t-67 -40t-82.5 -14.5q-32 0 -64 12t-57.5 33t-41.5 48.5t-16 58.5q0 40 18.5 74.5t49.5 59t69.5 38.5t79.5 14q30 0 61 -11t55.5 -31t40.5 -47t16 -58z" />
    <glyph glyph-name="slash" unicode="/" horiz-adv-x="1182" 
d="M1186 1602l-1057 -1829l-168 96l1053 1831z" />
    <glyph glyph-name="zero" unicode="0" horiz-adv-x="1354" 
d="M1286 766q0 -125 -24 -235.5t-68 -203t-106 -165t-138 -121.5q-62 -40 -129.5 -63t-142.5 -23q-110 0 -200 41t-165 110q-131 123 -188 287.5t-57 372.5q0 143 32.5 273t94.5 233q40 67 93.5 123.5t116.5 96.5t133.5 62.5t145.5 22.5q142 0 254 -61t189 -169.5t118 -257
t41 -323.5zM821 766q0 128 -3.5 236t-17.5 186t-42.5 122t-79.5 44q-46 0 -76 -43t-47 -120.5t-24 -186t-7 -238.5t4 -240t19 -190t44.5 -125t80.5 -45t80.5 45t44.5 125t19.5 190t4.5 240z" />
    <glyph glyph-name="one" unicode="1" horiz-adv-x="856" 
d="M766 0h-627v291q10 -3 23.5 -3.5t21.5 -0.5q20 0 31.5 3.5t17.5 12.5t7.5 24.5t1.5 39.5v692q0 28 -19 28q-9 0 -22 -7t-33 -19l-129 223l563 326l127 -211q-17 -11 -28.5 -20.5t-19 -22t-10.5 -29t-3 -41.5v-921q0 -26 2.5 -41t7.5 -23.5t14 -11t21 -2.5q17 0 26.5 0.5
t26.5 3.5v-291z" />
    <glyph glyph-name="two" unicode="2" horiz-adv-x="1262" 
d="M1176 422l-99 -422h-915l-107 158q86 95 166 187q34 39 70.5 81.5t71.5 84.5t67.5 81.5t58.5 73.5q52 68 87 125t56 107.5t30 98t10 97.5q1 55 -17.5 91t-47.5 57t-64 29.5t-66 8.5q-38 0 -83.5 -22.5t-85.5 -49.5q-47 -32 -93 -71l-123 168q71 78 156 140q36 26 79 51.5
t91.5 45t101.5 31.5t109 12q106 0 196.5 -36t155.5 -99.5t102 -150t37 -187.5q0 -67 -15.5 -121t-42.5 -102t-64 -93.5t-80 -93.5q-26 -29 -62.5 -63t-77.5 -70t-84.5 -71.5t-83 -67t-73 -57.5t-54.5 -43h344q35 0 62 33t41 110z" />
    <glyph glyph-name="three" unicode="3" horiz-adv-x="1270" 
d="M1186 461q0 -80 -24 -147.5t-66.5 -122.5t-99.5 -97t-123 -71t-137 -43.5t-142 -14.5q-75 0 -151.5 14.5t-147.5 43t-134 71.5t-112 99l141 204q31 -32 67 -59t74.5 -46.5t78 -30.5t77.5 -11q66 0 115.5 20.5t82.5 54.5t50 78t17 91q0 51 -17 97t-50.5 81.5t-83.5 56.5
t-116 21q-9 0 -25.5 -0.5t-36 -1t-39.5 -1.5t-36 -2l47 228h62q44 0 84 13.5t70 39.5t47.5 63t17.5 85q0 35 -11.5 63t-32.5 48t-49.5 30.5t-62.5 11.5q-46 1 -89 -19t-78 -44q-40 -28 -77 -64l-133 152q50 64 123 115q31 22 70 42.5t86 37t102.5 26.5t118.5 10
q119 0 201.5 -30.5t133.5 -77.5t74 -104t23 -111q0 -72 -23 -129t-63 -100.5t-92.5 -75t-110.5 -52.5q86 -8 159.5 -41t127 -88.5t83.5 -134t30 -178.5z" />
    <glyph glyph-name="four" unicode="4" horiz-adv-x="1407" 
d="M1409 696q-31 -69 -57 -125l-22 -48t-20 -44.5t-15.5 -35t-8.5 -19.5q-24 7 -56.5 11.5t-65.5 7t-61 3t-42 0.5v-81q0 -26 2.5 -41t8.5 -23.5t15 -11t21 -2.5q17 0 33 0.5t33 3.5v-291h-656v291q9 -3 23 -3.5t22 -0.5q40 0 62 16t22 64v88h-68.5t-87.5 -0.5t-97.5 -2
t-99 -4.5t-92 -8t-75.5 -12l-131 186l727 922h362q-9 -28 -16.5 -52t-7.5 -48v-740h51q46 0 67 22t33 60q11 -4 42.5 -17.5t66.5 -27.5q40 -17 88 -37zM649 680v442q-44 -57 -91.5 -116.5t-94 -117.5t-90 -112.5t-78.5 -99.5q12 1 37.5 1.5t58.5 0.5h70.5h73h66t48.5 2z" />
    <glyph glyph-name="five" unicode="5" horiz-adv-x="1366" 
d="M1278 526q0 -114 -40 -217.5t-118.5 -182.5t-196 -126t-272.5 -47q-100 0 -182.5 20.5t-154 57.5t-135 87t-124.5 109l170 193q31 -32 71 -58.5t84.5 -46t92.5 -30.5t96 -11q69 0 120 19.5t84 52.5t49 76.5t16 91.5q0 55 -17 99.5t-47.5 76t-72.5 48t-91 16.5
q-55 0 -102.5 -17.5t-89.5 -66.5q-5 3 -17.5 12t-29 21t-36 26t-38.5 28q-46 33 -100 74q12 56 24 115q11 51 22.5 111.5t22.5 118.5q9 48 19.5 110t19.5 118q11 65 21 132h583q30 0 46.5 7.5t25 18.5t10.5 23.5t4 22.5l199 -43l-80 -346h-606q-8 -46 -17 -94
q-8 -42 -16.5 -93t-17.5 -102q24 12 52.5 24.5t67.5 22.5t91.5 16t124.5 6q101 0 189.5 -34t154 -96t103.5 -149t38 -194z" />
    <glyph glyph-name="six" unicode="6" horiz-adv-x="1403" 
d="M1323 541q0 -76 -21 -149t-58.5 -138t-89 -120.5t-113 -95.5t-131 -62.5t-142.5 -22.5q-102 0 -189.5 26.5t-160 73.5t-128.5 112.5t-94.5 143.5t-58.5 165.5t-20 178.5q0 109 31.5 220.5t94.5 220t158.5 211t223.5 194.5q57 40 128 81.5t136 72.5l119 -178
q-68 -37 -143.5 -98.5t-144 -139.5t-122 -168.5t-76.5 -185.5q59 85 144.5 132.5t185.5 47.5q97 0 182.5 -40t149.5 -110.5t101.5 -165.5t37.5 -206zM936 412q-1 60 -17.5 124t-45.5 117.5t-69.5 88t-88.5 34.5q-29 0 -55.5 -14.5t-47.5 -40.5t-33.5 -62t-11.5 -79
q1 -85 20 -153t50 -115.5t71 -73t83 -25.5q22 0 48 11t47.5 34.5t36 61.5t13.5 92z" />
    <glyph glyph-name="seven" unicode="7" horiz-adv-x="1241" 
d="M1208 1399q-63 -87 -125 -174q-26 -37 -54.5 -78t-56 -82t-52.5 -81.5t-46 -76.5q-41 -71 -80.5 -144t-71.5 -143.5t-51.5 -135.5t-19.5 -119q0 -39 13 -58.5t51 -19.5h11t23 0.5t27 1t23 2.5v-291l-633 -4q0 158 43 321.5t137 313.5q63 100 131 185.5t134 156t126 127
t107 98.5h-438q-47 0 -74.5 -25.5t-44.5 -87.5l-236 58l117 393h946z" />
    <glyph glyph-name="eight" unicode="8" horiz-adv-x="1341" 
d="M1303 465q0 -109 -45.5 -202.5t-128.5 -162.5t-199.5 -108t-257.5 -39q-116 0 -223 29.5t-189 88.5t-131 147.5t-49 207.5q0 70 20 125.5t59 101t97 84.5t133 76q-67 47 -111.5 89t-71 85t-37.5 90.5t-11 106.5q0 90 47.5 163.5t126.5 126t181.5 81t213.5 28.5
q121 0 208.5 -33.5t144 -85t83.5 -113t27 -116.5q0 -90 -58 -169.5t-157 -141.5q76 -51 137 -103t103.5 -108t65 -117t22.5 -131zM887 1227q0 29 -10 56t-32.5 47.5t-58 33t-86.5 12.5q-68 0 -102.5 -30.5t-34.5 -75.5q0 -32 22 -61.5t55 -57t71.5 -53t70.5 -49.5
q31 21 51 44.5t32 46.5t17 45.5t5 41.5zM877 356q0 46 -23.5 85.5t-65.5 78t-99.5 77t-125.5 83.5q-50 -29 -82.5 -57t-51.5 -58t-26.5 -61.5t-7.5 -65.5q0 -60 22 -108.5t59 -83t86.5 -53.5t105.5 -19t95.5 18.5t65 46.5t37 59.5t11.5 57.5z" />
    <glyph glyph-name="nine" unicode="9" horiz-adv-x="1315" 
d="M1223 967q0 -174 -58.5 -326t-170.5 -283.5t-274.5 -243t-369.5 -202.5l-125 199q99 56 184.5 123.5t154 141t117 151.5t73.5 155q-15 -18 -37 -39.5t-51 -39.5t-64.5 -30t-77.5 -12q-57 0 -109 17.5t-96 42.5q-114 65 -178.5 170t-64.5 241q0 180 75.5 305t221.5 191
q55 25 122.5 40t133.5 15q152 0 263.5 -51.5t185 -137t109.5 -196.5t36 -231zM776 1004q5 37 0.5 74.5t-10.5 68.5q-20 105 -62.5 159t-95.5 60q-42 5 -72.5 -30t-39.5 -113q-5 -42 -0.5 -80.5t12.5 -75.5q8 -43 22 -79.5t32.5 -64t42 -44t50.5 -19.5q25 -2 46 7.5t36.5 29
t25 47t13.5 60.5z" />
    <glyph glyph-name="colon" unicode=":" horiz-adv-x="614" 
d="M492 164q0 -41 -16.5 -76t-45 -60.5t-67 -40t-82.5 -14.5q-32 0 -64 12t-57.5 33t-41.5 48.5t-16 58.5q0 40 18.5 74.5t49.5 59t69.5 38.5t79.5 14q30 0 61 -11t55.5 -31t40.5 -47t16 -58zM492 859q0 -41 -16.5 -76t-45 -60.5t-67 -40t-82.5 -14.5q-32 0 -64 12t-57.5 33
t-41.5 48.5t-16 58.5q0 40 18.5 74.5t49.5 59t69.5 38.5t79.5 14q30 0 61 -11t55.5 -31t40.5 -47t16 -58z" />
    <glyph glyph-name="semicolon" unicode=";" horiz-adv-x="614" 
d="M494 143q0 -33 -4 -60t-12.5 -52.5t-22.5 -51t-35 -55.5q-13 -18 -33 -38.5t-42.5 -40t-44.5 -37t-40 -29.5q-21 20 -39 38q-15 15 -29.5 29t-19.5 19q20 12 37.5 24.5t34 28.5t31.5 36t30 48q-17 -12 -35.5 -16t-33.5 -4q-26 0 -50 9t-42.5 26.5t-30 41.5t-11.5 54
q0 42 16 78t45 63t69 42t87 15q39 0 71.5 -14t55.5 -37t35.5 -53.5t12.5 -63.5zM492 859q0 -41 -16.5 -76t-45 -60.5t-67 -40t-82.5 -14.5q-32 0 -64 12t-57.5 33t-41.5 48.5t-16 58.5q0 40 18.5 74.5t49.5 59t69.5 38.5t79.5 14q30 0 61 -11t55.5 -31t40.5 -47t16 -58z" />
    <glyph glyph-name="less" unicode="&#x3c;" horiz-adv-x="868" 
d="M813 287l-762 372v218l762 372v-266l-444 -215l444 -215v-266z" />
    <glyph glyph-name="equal" unicode="=" horiz-adv-x="1044" 
d="M1001 1059l-118 -246h-846l129 234h768q20 0 34.5 3t32.5 9zM1001 696l-118 -245h-842l125 233h768q20 0 34.5 3t32.5 9z" />
    <glyph glyph-name="greater" unicode="&#x3e;" horiz-adv-x="868" 
d="M817 659l-762 -372v266l445 215l-445 215v266l762 -372v-218z" />
    <glyph glyph-name="question" unicode="?" horiz-adv-x="1133" 
d="M1077 1184q0 -88 -40 -166t-105 -148q-63 -65 -141.5 -116t-161.5 -88l-11 -154l-204 -78l-60 363q58 25 110 55t90 69t60.5 89.5t22.5 115.5q0 40 -13.5 69t-36 47.5t-50.5 27t-56 8.5q-46 0 -88 -19t-74 -42q-38 -26 -71 -60l-174 197q59 64 136 115q33 22 72.5 42.5
t86 37t99 26.5t110.5 10q117 0 209.5 -28t157 -80t98.5 -126.5t34 -166.5zM715 156q0 -41 -16 -76t-44.5 -60.5t-67 -40t-83.5 -14.5q-32 0 -64 12t-57.5 33t-41 48.5t-15.5 58.5q0 40 18.5 74.5t49 59t69.5 38.5t80 14q30 0 60.5 -11t55.5 -31t40.5 -47t15.5 -58z" />
    <glyph glyph-name="at" unicode="@" horiz-adv-x="1493" 
d="M1450 870q0 -117 -28.5 -213t-82.5 -164.5t-131 -106.5t-174 -38q-64 0 -105.5 21.5t-66.5 47.5q-29 31 -45 70q-28 -61 -79 -101t-117 -40q-52 0 -92 19t-67.5 50.5t-41.5 73t-14 86.5q0 56 25.5 106.5t72.5 88.5t113 60t147 22h49q0 60 -18 82t-66 22q-26 0 -61 -13
t-70 -36l-76 160q26 16 58 32.5t70.5 29.5t83.5 21.5t97 8.5q138 0 203.5 -62t65.5 -177v-258q0 -14 1 -30t4 -30t9.5 -23.5t18.5 -9.5q31 0 56 26.5t42 69t26 96.5t9 109q0 83 -32.5 165t-94 147.5t-152 106t-205.5 40.5t-214 -46t-171.5 -124.5t-113.5 -182t-41 -218.5
t40.5 -216t113 -176t172 -118t216.5 -43h16h26t27 0.5t19 1.5v-176q-81 0 -152.5 1.5t-137.5 18.5q-134 36 -236 102t-171 157t-104.5 205t-35.5 247q0 100 27.5 194t77 176t118.5 150t152 116.5t177.5 75.5t194.5 27q151 0 274 -52.5t210.5 -140t135.5 -201.5t48 -237z
M807 649v62q-38 0 -62 -6.5t-38 -17.5t-19.5 -25.5t-5.5 -30.5q0 -22 13 -39t44 -17q25 0 43.5 23t24.5 51z" />
    <glyph glyph-name="A" unicode="A" horiz-adv-x="1642" 
d="M1620 0h-752v287h47q21 0 32 4t15 11t3 16.5t-4 19.5q-7 18 -13 33t-14 20h-438q-8 -14 -11 -26.5t-6 -24.5q-5 -18 -2 -28.5t10.5 -16t19 -7t25.5 -1.5h41v-287h-550v287h45q24 0 39 6.5t26.5 23t22.5 44.5t28 71l379 983q9 25 15 41t8.5 28.5t2.5 24t-1 27.5h379
q117 -266 216 -492q42 -96 85 -193.5t80.5 -182t66 -150t43.5 -98.5q21 -47 33.5 -73.5t24.5 -40t25.5 -16.5t35.5 -3h43v-287zM836 653q-28 62 -51 116l-20 46t-18.5 43t-15.5 36t-10 24q-6 12 -8.5 19.5t-7.5 23.5q-27 -74 -50 -136q-10 -27 -19.5 -53.5t-18 -50
t-15.5 -41.5t-10 -27h244z" />
    <glyph glyph-name="B" unicode="B" horiz-adv-x="1661" 
d="M1618 479q0 -87 -42.5 -172.5t-125 -153.5t-204.5 -110.5t-281 -42.5h-881v287h61q60 0 81.5 21t21.5 69v756q0 116 -88 116h-78v287h1001q102 0 184 -29.5t139 -76.5t87.5 -106t30.5 -118q0 -55 -18.5 -107.5t-56 -98.5t-94.5 -83t-134 -61q107 -18 182.5 -57t123 -90.5
t69.5 -111.5t22 -118zM1047 500q0 35 -13.5 67t-41.5 56t-70 38.5t-99 14.5h-86v-371q16 -2 35 -2h29q68 0 115 18t76 46.5t42 63.5t13 69zM1006 1106q0 63 -47.5 102t-137.5 39h-90v-313h39q67 0 112.5 17t73 42.5t39 56t11.5 56.5z" />
    <glyph glyph-name="C" unicode="C" horiz-adv-x="1599" 
d="M1544 258q-84 -81 -190 -144q-46 -27 -101 -53t-119 -46.5t-136.5 -33.5t-151.5 -14q-174 -2 -319.5 55.5t-249.5 164.5t-162 258.5t-58 338.5q0 119 30 224.5t85 194t131.5 159.5t169 120t198.5 75t220 26q48 0 85 -6t66.5 -13.5t54 -14.5t48.5 -9q7 -1 16.5 -0.5
t17.5 4.5t13.5 12t5.5 23l270 -39l-63 -477l-281 45q2 28 2 54q0 22 -3.5 44.5t-12.5 36.5q-31 46 -76 61t-114 15q-85 0 -151.5 -38.5t-112 -99.5t-70 -137t-25.5 -151q-1 -132 36 -236.5t97 -177t137 -111t156 -38.5q68 0 124.5 10t104 29t89 46t79.5 62z" />
    <glyph glyph-name="D" unicode="D" horiz-adv-x="1825" 
d="M1767 836q0 -188 -56 -342t-166.5 -263.5t-275 -170t-380.5 -60.5h-809v287h65q54 0 79.5 23.5t25.5 68.5v774q0 48 -18 72t-66 24h-88v287h909q180 0 324.5 -54.5t246 -149.5t155.5 -222.5t54 -273.5zM1231 834q0 76 -26.5 150t-74.5 133t-114.5 95.5t-147.5 36.5h-127
v-940q19 -2 39.5 -3t32.5 -1q107 -1 185.5 37.5t130.5 108.5t77 167.5t25 215.5z" />
    <glyph glyph-name="E" unicode="E" horiz-adv-x="1620" 
d="M1563 475l-84 -508q-16 7 -52 13t-83.5 10.5t-100.5 7t-104 2.5h-1063v287h71q50 0 76.5 23t26.5 83v774q0 45 -20.5 63.5t-71.5 18.5h-84v287h1120q28 0 48.5 10.5t25.5 42.5l258 -33l-62 -456l-272 28q5 12 5.5 32t-8.5 40t-30.5 34.5t-60.5 14.5h-367v-311h230
q55 0 76 22.5t26 69.5l223 -26l-49 -439l-238 29q4 17 5 33t-9 30q-9 14 -33.5 17.5t-50.5 3.5h-180v-387h334q68 0 109 13.5t66 41t39.5 69t29.5 97.5z" />
    <glyph glyph-name="F" unicode="F" horiz-adv-x="1522" 
d="M1491 1554l-76 -471l-258 45q0 9 -0.5 20.5t-1.5 23.5t-3 22.5t-5 15.5q-9 16 -23 24t-32 11.5t-39.5 3.5h-44.5h-258v-311h188q42 0 64.5 25t27.5 63l225 -35l-55 -434l-237 33q2 14 2 27q0 11 -2.5 22t-10.5 18q-14 13 -39.5 17t-50.5 4h-112v-285q0 -60 26 -83t76 -23
h68v-287h-844v287h69q50 0 77.5 23t27.5 83v774q0 45 -20.5 63.5t-71.5 18.5h-84v287h1044q51 0 76.5 10.5t36.5 42.5z" />
    <glyph glyph-name="G" unicode="G" horiz-adv-x="1769" 
d="M1737 604h-47q-15 0 -31 -5.5t-29.5 -16t-22 -26t-8.5 -36.5v-346q-45 -2 -77.5 -8.5t-69.5 -20.5t-88 -37.5t-133 -58.5q-41 -18 -89 -32t-99 -24.5t-103 -16t-102 -5.5q-115 0 -217.5 29t-189 82t-156 127.5t-118 164.5t-74.5 194t-26 216q0 186 60 334.5t169.5 252
t263 159t339.5 55.5q54 0 98.5 -6t81.5 -13.5t67 -15t54 -10.5q6 -1 14.5 -1t17 3t14.5 11.5t7 25.5l273 -39l-62 -467l-287 35q15 63 2 112q-6 21 -18.5 41.5t-35 36t-56.5 25.5t-82 10q-83 0 -152 -35.5t-118.5 -98.5t-77 -150t-27.5 -189q0 -136 26.5 -242.5t72.5 -180.5
t108.5 -113t134.5 -39q21 0 46.5 3t50.5 9.5t46 17t33 25.5q17 22 18 41.5t1 48.5v74q0 18 -4 35.5t-13 32t-23.5 23.5t-35.5 9h-17.5t-9.5 -0.5t-9 -1.5t-17 -2v240h727v-236z" />
    <glyph glyph-name="H" unicode="H" horiz-adv-x="1864" 
d="M1784 0h-801v287h57q48 0 68 20t20 68v256h-393v-256q0 -25 3.5 -41.5t12.5 -27t24.5 -15t39.5 -4.5h74v-287h-819v287h84q51 0 73.5 20.5t22.5 67.5v780q0 47 -21.5 70.5t-70.5 23.5h-88v287h809v-287h-43q-50 0 -75.5 -21.5t-25.5 -72.5v-229h393v217q0 49 -18 77.5
t-70 28.5h-61v287h805v-287h-78q-50 0 -71 -28t-21 -74v-766q0 -47 21 -70.5t71 -23.5h78v-287z" />
    <glyph glyph-name="I" unicode="I" horiz-adv-x="989" 
d="M893 0h-809v287h76q48 0 71 23.5t23 74.5v770q0 47 -19.5 70.5t-68.5 23.5h-82v287h809v-287h-72q-49 0 -67.5 -25t-18.5 -71v-766q0 -46 23.5 -73t72.5 -27h62v-287z" />
    <glyph glyph-name="J" unicode="J" horiz-adv-x="993" 
d="M901 1249h-78q-40 0 -60 -30t-20 -76v-1037q0 -81 -18.5 -151.5t-60.5 -130t-109.5 -108t-165.5 -87.5q-81 -32 -140.5 -51.5t-98.5 -30.5q-46 -13 -78 -18l-97 254q25 6 51 15q23 8 50.5 20t54.5 30q22 15 44.5 35.5t40.5 47t29 57t11 65.5v1086q0 46 -20.5 78t-69.5 32
h-90v287h825v-287z" />
    <glyph glyph-name="K" unicode="K" horiz-adv-x="1702" 
d="M1698 -6l-174 -199q-59 34 -119 71.5t-111 78.5q-87 67 -159.5 135.5t-134 143.5t-114 159.5t-100.5 183.5l-53 -57v-117q0 -24 0.5 -44t6.5 -33.5t18.5 -21t36.5 -7.5h61v-287h-784v287h80q50 0 74 32t24 78v736q0 116 -96 116h-82v287h786v-287h-51q-26 0 -41.5 -5
t-24 -15.5t-11.5 -28.5t-3 -43v-291q28 27 68.5 70t82 88t78.5 86.5t60 65.5q9 11 15.5 22t6.5 27q0 15 -10.5 19.5t-26.5 4.5h-47v287h607v-287h-56q-20 0 -33.5 -4.5t-26 -14t-27 -24.5t-36.5 -35q-16 -15 -39.5 -41t-49 -55.5l-51 -59t-46.5 -52.5q9 -32 17 -61t18 -57.5
t21 -57.5t26 -62q49 -110 97.5 -209.5t99.5 -190.5t106 -173.5t117 -157.5z" />
    <glyph glyph-name="L" unicode="L" horiz-adv-x="1528" 
d="M1524 475l-86 -508q-18 8 -52 14t-72.5 10.5t-77.5 6.5t-67 2h-1087v287h74q48 0 71 23.5t23 74.5v770q0 47 -17.5 71.5t-66.5 24.5h-86v285h842v-287h-72q-50 0 -77.5 -24.5t-27.5 -77.5v-856h291q61 0 99.5 13t63.5 40t40.5 69t30.5 101z" />
    <glyph glyph-name="M" unicode="M" horiz-adv-x="2341" 
d="M2265 1253h-92q-82 0 -82 -114v-758q0 -42 24.5 -68t61.5 -26h80v-287h-793v287h52q46 0 68 27t22 85v463q0 7 0.5 13t1.5 14.5t3 21t5 33.5q-21 -58 -47 -125q-22 -57 -50 -132t-59 -157q-46 -118 -86.5 -220t-70.5 -189q-14 -37 -18.5 -69t1.5 -52h-330q-25 66 -52 140
q-24 63 -54.5 144t-63.5 167q-19 50 -38.5 99.5t-37.5 96t-34.5 89t-30.5 77.5q-9 23 -14 37.5t-8.5 27.5t-6.5 27.5t-8 38.5v-555q0 -43 21 -72.5t67 -29.5h62v-287h-672v287h86q32 0 55 20t23 55v750q0 69 -27 103t-84 34h-55v287h813q0 -28 4.5 -58t18.5 -65
q16 -42 37 -96t44 -114t47 -122.5t47 -122.5q54 -140 111 -290q71 192 129 349q25 67 49 132t44 118.5t33.5 90.5t17.5 47q11 31 18.5 68.5t1.5 62.5h766v-283z" />
    <glyph glyph-name="N" unicode="N" horiz-adv-x="1872" 
d="M1798 1249h-82q-25 0 -42.5 -3.5t-28.5 -14.5t-16 -31.5t-5 -54.5v-1008q0 -15 0.5 -34t2 -37.5t5 -36t8.5 -29.5h-407l-615 817v-418q0 -60 18 -86t56 -26h103v-287h-709v287h90q29 0 51.5 22t22.5 70v758q0 52 -19 82t-69 30h-78v287h680q0 -23 15 -53t38 -62
q3 -4 24 -32.5t53 -72.5t72.5 -98.5t81.5 -111.5q97 -133 218 -299v358q0 35 -20 59.5t-62 24.5h-72v287h686v-287z" />
    <glyph glyph-name="O" unicode="O" horiz-adv-x="1729" 
d="M1671 762q0 -113 -29 -217.5t-82 -194.5t-127 -164t-163.5 -126.5t-193 -81.5t-214.5 -29q-113 0 -216 29t-192.5 81.5t-162.5 126.5t-125 164.5t-80.5 194.5t-28.5 217q0 112 28.5 216.5t80.5 195.5t125 165.5t162.5 127.5t193 82.5t215.5 29.5q123 0 231 -32t197.5 -88
t160.5 -133t119.5 -168t74.5 -192t26 -204zM1116 758q0 58 -3 120.5t-13 122t-28 113t-47 93.5t-69.5 63.5t-95.5 23.5q-56 0 -96.5 -23.5t-69.5 -63t-46.5 -92.5t-27.5 -112.5t-13.5 -121t-2.5 -119.5q0 -58 4.5 -119t15.5 -119t29 -110t46.5 -91t68 -62t92.5 -23
q55 0 95 22.5t68.5 61.5t46 90.5t28 109.5t14 118.5t4.5 117.5z" />
    <glyph glyph-name="P" unicode="P" horiz-adv-x="1612" 
d="M1571 1071q0 -110 -48.5 -205.5t-133.5 -166.5t-200.5 -111.5t-248.5 -40.5h-201v-166q0 -47 23 -70.5t82 -23.5h84v-287h-848v287h80q46 0 68 20.5t22 67.5v770q0 59 -20 81.5t-68 22.5h-82v287h903q152 0 263 -37.5t183 -101.5t107 -148t35 -178zM1063 1047
q0 37 -11 73t-35 64.5t-62 46.5t-93 18h-121v-411h99q57 0 98.5 17t69.5 45.5t41.5 66.5t13.5 80z" />
    <glyph glyph-name="Q" unicode="Q" horiz-adv-x="1724" 
d="M1671 774q0 -134 -41 -259t-118 -228.5t-187.5 -179t-249.5 -111.5q0 -54 22 -77t64 -23q38 0 70.5 17t52.5 36l141 -199q-32 -35 -74.5 -65t-89 -52t-93.5 -34.5t-87 -12.5q-62 0 -117 17t-100 43q-41 23 -72 53t-52.5 70t-32.5 92t-11 119q-111 24 -201.5 71
t-161.5 109t-123 136.5t-86 153.5t-50.5 160.5t-16.5 157.5q0 110 28 213t79.5 193t124 164.5t161.5 128t191.5 83t214.5 29.5q123 0 231 -31.5t199 -87.5t162 -132t121 -165.5t76 -188.5t26 -200zM1116 758q0 58 -3.5 120.5t-13.5 122t-28 113t-46.5 93.5t-69 63.5
t-95.5 23.5q-56 0 -96.5 -23.5t-69.5 -63t-46.5 -92.5t-27.5 -112.5t-13.5 -121t-2.5 -119.5q0 -58 4.5 -119t15.5 -119t29 -110t46.5 -91t68 -62t92.5 -23q55 0 95 22.5t68.5 61t46.5 90t28 109.5t14 119t4 118z" />
    <glyph glyph-name="R" unicode="R" horiz-adv-x="1735" 
d="M1731 -2l-170 -191q-146 75 -264 173.5t-208.5 203.5t-153 206.5t-97.5 182.5h-88v-192q0 -47 15.5 -70.5t57.5 -23.5h76v-287h-813v287h74q46 0 68 20.5t22 67.5v770q0 59 -20 81.5t-68 22.5h-76v287h954q151 0 261 -36.5t182 -98.5t106.5 -143.5t34.5 -172.5
q0 -68 -24 -131.5t-64 -117t-90.5 -93.5t-102.5 -61q47 -112 86 -200t81.5 -166t95 -154t125.5 -164zM1102 1067q0 40 -17 73.5t-50 57.5t-80.5 37.5t-108.5 13.5h-96v-401h71q75 0 128.5 13.5t87.5 40.5t49.5 68t15.5 97z" />
    <glyph glyph-name="S" unicode="S" horiz-adv-x="1497" 
d="M1399 475q0 -95 -34 -186t-99 -162.5t-160 -115.5t-217 -44q-63 0 -126 13.5t-116 30t-91.5 30t-53.5 12.5q-14 0 -26.5 -15.5t-6.5 -37.5l-248 -41l-117 496l271 61q24 -69 53 -116.5t67.5 -76.5t87.5 -42t113 -13q39 0 66 13.5t44 33t24.5 41.5t7.5 39q0 30 -13.5 54.5
t-37 46t-56 41.5t-69.5 41q-72 38 -135 75t-111 68q-58 37 -105.5 80.5t-82 94.5t-53.5 110.5t-19 128.5q0 62 21 119t58.5 107t89 91.5t111 71t125.5 45.5t133 16q93 0 158 -7t108.5 -15.5t68 -15.5t36.5 -7q13 -2 24 2q9 3 17 11t8 26l270 -39l-57 -473l-289 41q2 4 4 22
t2 39.5t-2.5 42.5t-9.5 33q-46 76 -174 76q-30 0 -59.5 -8t-53.5 -23.5t-39 -38t-16 -51.5t14 -52.5t41 -44t60.5 -39.5t73.5 -40q31 -17 55.5 -31t53 -29.5t64.5 -35.5t89 -49q56 -31 103 -76t81.5 -98.5t54 -112.5t19.5 -117z" />
    <glyph glyph-name="T" unicode="T" horiz-adv-x="1722" 
d="M1710 1542l-63 -459l-271 35q6 18 6.5 33t-2.5 27t-8.5 21.5t-9.5 17.5q-5 7 -18.5 13.5t-32 11t-38.5 7t-38 2.5h-145v-870q0 -29 6 -47.5t17.5 -29t28 -14t38.5 -3.5h84v-287h-844v287h94q20 0 37 3.5t29 14t19 29t7 47.5v858h-119q-44 0 -77.5 -3.5t-58.5 -19
t-42.5 -47t-27.5 -86.5l-261 23l62 477q67 -13 127 -24q25 -5 51 -9t49.5 -7t43.5 -5t32 -2h999q38 0 55.5 10.5t22.5 36.5z" />
    <glyph glyph-name="U" unicode="U" horiz-adv-x="1804" 
d="M1735 1249h-76q-40 0 -66 -25t-26 -81v-643q0 -92 -23 -172.5t-67.5 -145.5t-110.5 -113.5t-152 -76.5q-66 -22 -133.5 -30.5t-154.5 -8.5q-139 0 -263.5 31.5t-218 93t-148 151t-54.5 205.5v713q0 46 -24 74t-71 28h-84v287h840v-287h-82q-16 0 -32 -4.5t-29 -15
t-21 -28.5t-8 -46v-674q0 -72 24.5 -122.5t63.5 -82t87 -45.5t95 -14q79 0 136.5 38.5t85.5 106.5q15 37 17.5 67t2.5 69v649q0 46 -20.5 74t-67.5 28h-78v287h658v-287z" />
    <glyph glyph-name="V" unicode="V" horiz-adv-x="1663" 
d="M1638 1249h-41q-41 0 -66.5 -22t-49.5 -80q-5 -12 -21.5 -53.5t-41.5 -103t-55.5 -138t-64 -159t-67.5 -166t-64.5 -159t-56.5 -138t-43 -103.5q-5 -13 -10.5 -29.5t-9.5 -34t-5 -34t2 -29.5h-387q-20 48 -50 119.5t-66 157.5t-76 180.5t-79 187.5t-75.5 179t-65.5 155
t-49 115.5t-26 60.5q-19 43 -41 68.5t-59 25.5h-47v287h800v-287h-65q-32 0 -51 -18t-19 -43q0 -14 3 -25.5t7.5 -22.5t10 -23t10.5 -27q2 -8 12 -35.5t24.5 -67t32.5 -87t36 -96.5q43 -114 96 -255q49 130 90 240q18 47 35.5 94t33.5 88t28.5 72.5t18.5 46.5q9 21 15 35.5
t9.5 25.5t5 20.5t1.5 18.5q0 34 -19.5 46.5t-50.5 12.5h-45v287h596v-287z" />
    <glyph glyph-name="W" unicode="W" horiz-adv-x="2568" 
d="M2544 1249h-52q-37 0 -60.5 -25t-43.5 -67q-4 -9 -19.5 -44.5t-38 -90t-52 -124.5t-62 -148t-67 -160.5t-67.5 -162.5t-63 -153t-55 -133q-20 -49 -30.5 -80.5t-2.5 -60.5h-387q-10 22 -26 60t-35.5 84.5t-41.5 99t-44 103.5q-51 120 -109 257q-44 -101 -84 -194
q-17 -40 -35 -81.5t-35.5 -81.5t-32.5 -75t-26 -61q-3 -11 -6.5 -26.5t-6 -31.5t-4 -30t0.5 -23h-373q-21 50 -52 122.5t-67.5 158t-76.5 179t-79 185t-74.5 175.5t-64.5 151.5t-48 112.5t-25 59q-12 28 -22.5 48t-22.5 33t-27 19t-35 6h-69v287h761v-287h-36q-23 0 -32 -12
t-9 -29q0 -12 10 -39.5t22 -58.5q3 -7 13.5 -33.5t25.5 -65t33.5 -85.5t37.5 -95q44 -113 99 -251q42 101 78 185q15 36 30.5 72t29 67.5t23.5 56t15 36.5q-19 44 -30.5 71.5t-18 43t-9.5 22.5l-4.5 10.5t-2.5 6t-4 10.5q-19 44 -41 66t-64 22h-59v287h803v-287h-52
q-32 0 -49.5 -14.5t-17.5 -46.5q0 -20 4.5 -34.5t15.5 -43.5q3 -8 14 -35t26.5 -66t34.5 -85.5t38 -94.5q45 -112 100 -249q51 127 95 234q18 46 37 92t35 86.5t29 71.5t19 46q9 21 14.5 34t8.5 23t4.5 19t1.5 20q0 16 -14 29.5t-45 13.5h-66v287h617v-287z" />
    <glyph glyph-name="X" unicode="X" horiz-adv-x="1673" 
d="M1647 0h-877v287h68q18 0 27 7.5t11 19.5t-4 27t-18 30q-16 18 -41 49t-49.5 61t-43 52.5t-20.5 24.5l-114 -167q-11 -17 -20 -29.5t-9 -29.5q0 -19 14 -32t43 -13h56v-287h-645v287h69q29 0 60.5 18t56.5 55q7 10 23 34l38 57t48 71t52 77q61 90 134 198
q-63 77 -118 147q-24 29 -48 59.5t-46.5 58t-41.5 51t-31 38.5q-19 23 -33 41t-29 31t-33 19.5t-46 6.5h-45v287h862v-287h-68q-16 0 -25 -6.5t-11 -16t1.5 -21.5t12.5 -23q14 -20 41 -54.5t54 -68.5q32 -40 67 -84q31 47 58 87q12 17 23.5 35t22 34t19 29t14.5 22
q23 37 11 52t-40 15h-76v287h646v-287h-43q-21 -1 -38 -2.5t-33 -8t-32 -20.5t-35 -40q-13 -19 -33 -48t-43.5 -63.5t-49.5 -72t-51 -74.5q-59 -86 -126 -183q58 -73 111 -139q22 -28 46 -57.5t46 -56.5t41 -51t33 -40q18 -21 34 -40.5t34 -34t40 -23t51 -8.5h48v-287z" />
    <glyph glyph-name="Y" unicode="Y" horiz-adv-x="1704" 
d="M1677 1249h-73q-34 0 -59 -13.5t-54 -53.5q-14 -19 -37 -51t-51 -71t-59.5 -82.5t-62.5 -85.5q-72 -99 -155 -214v-326q0 -25 18.5 -45t55.5 -20h94v-287h-825v287h72q29 0 48 7.5t30 20.5t15.5 30t4.5 36v270q-99 121 -183 225q-36 44 -72 88.5t-67.5 83.5t-55.5 69.5
t-36 45.5q-32 44 -71 65t-74 21h-57v287h909v-287h-55q-26 0 -38 -6.5t-12 -28.5q0 -14 10 -26.5t21 -26.5q3 -5 11.5 -15.5t19.5 -24.5t24.5 -31t26.5 -34q31 -40 68 -87q37 53 67 97q13 19 25.5 37t22.5 33t17 26t9 14q25 40 22 56.5t-32 16.5h-86v287h624v-287z" />
    <glyph glyph-name="Z" unicode="Z" horiz-adv-x="1556" 
d="M1501 467l-100 -504q-37 10 -73 18q-31 7 -64.5 13t-59.5 6h-1054l-119 184l772 1082h-240q-49 0 -86.5 -8t-66 -30.5t-49.5 -62t-37 -102.5l-244 35l80 456q15 -5 40.5 -8.5t53 -5.5t55 -3t47.5 -1h1051l80 -178l-782 -1102h239q77 0 128 20t84 56.5t51.5 87.5t29.5 112
z" />
    <glyph glyph-name="bracketleft" unicode="[" horiz-adv-x="1075" 
d="M956 -201h-768v1911h766v-225h-329v-1444h331v-242z" />
    <glyph glyph-name="backslash" unicode="\" horiz-adv-x="1182" 
d="M1194 -113l-164 -94l-1057 1829l168 96z" />
    <glyph glyph-name="bracketright" unicode="]" horiz-adv-x="1075" 
d="M885 -199h-768v240h332v1444h-330v227h766v-1911z" />
    <glyph glyph-name="asciicircum" unicode="^" horiz-adv-x="1024" 
d="M983 625h-262l-209 180l-209 -180h-262l379 422h184z" />
    <glyph glyph-name="underscore" unicode="_" horiz-adv-x="1024" 
d="M1024 -334h-1024v232h1024v-232z" />
    <glyph glyph-name="grave" unicode="`" 
d="M989 1182l-47 -80l-633 237l156 267z" />
    <glyph glyph-name="a" unicode="a" horiz-adv-x="1133" 
d="M1098 25l-496 -48v164q-18 -34 -47 -66t-65.5 -57t-79 -40t-86.5 -15q-82 0 -140.5 34t-93.5 91q-25 38 -38 83.5t-13 94.5q0 59 21 113t59.5 98.5t93 78.5t121.5 54q56 17 119 23t129 6q0 40 -6 66.5t-19 42.5t-35 23t-53 7q-17 0 -40 -5t-49 -14t-52 -22t-49 -28
l-115 209q34 22 81.5 45t104.5 41.5t121.5 30.5t134.5 12q183 0 272 -83t89 -235v-401q0 -20 1 -32t3.5 -18t6.5 -8t11 -2q5 0 19.5 1t31.5 3q19 2 43 4zM573 354v95q-51 0 -83 -8.5t-51 -23t-26 -33.5t-7 -40q0 -15 4.5 -30.5t13.5 -28t23.5 -21t35.5 -8.5q32 0 58 27.5
t32 70.5z" />
    <glyph glyph-name="b" unicode="b" horiz-adv-x="1249" 
d="M1198 545q0 -60 -8 -119t-23.5 -113.5t-40 -103t-57.5 -88.5q-65 -81 -160.5 -121.5t-201.5 -40.5q-61 0 -104 11t-76 24t-60 24t-55 11q-15 0 -27.5 -1.5t-22.5 -7.5t-18.5 -17t-15.5 -30l-162 41v1112q0 29 -5 46.5t-28 17.5q-3 0 -10 -2.5t-14 -5.5q-8 -4 -17 -8
l-67 256l532 120v-626q14 18 39.5 42t60.5 45.5t78.5 36.5t93.5 15q79 0 146.5 -39t117 -108.5t77.5 -164.5t28 -206zM782 477q0 45 -8 91.5t-23.5 84.5t-38.5 62t-53 24q-23 0 -40.5 -10t-30 -27.5t-20 -39.5t-11.5 -46v-313q11 -45 33.5 -60.5t50.5 -15.5q34 0 60.5 18
t44.5 50.5t27 78.5t9 103z" />
    <glyph glyph-name="c" unicode="c" horiz-adv-x="1128" 
d="M1083 190q-48 -42 -100 -82t-111 -71.5t-125.5 -50.5t-142.5 -19q-92 0 -168.5 22t-138 61t-108 91.5t-78 113t-47 126.5t-15.5 131q0 64 15.5 130t45.5 127.5t74.5 115t103 93t130 62.5t155.5 23q39 0 68.5 -4t52.5 -10q32 -10 55.5 -18.5t43.5 -8.5q12 0 17.5 2
t8.5 6.5t5 12t7 18.5l238 -33l-53 -416l-252 31q7 24 9 47q2 20 -1.5 41.5t-17.5 38.5q-15 18 -29 27t-27.5 13t-27 4.5t-27.5 0.5q-32 0 -62.5 -21t-54.5 -56t-38.5 -80t-14.5 -93q0 -69 17.5 -125.5t47 -97t67 -62.5t77.5 -22q66 0 127.5 35t126.5 94z" />
    <glyph glyph-name="d" unicode="d" horiz-adv-x="1270" 
d="M1237 25l-496 -48v179q-16 -29 -40 -61.5t-59 -60.5t-81.5 -46.5t-107.5 -18.5q-66 0 -121.5 23t-100.5 61.5t-78.5 90.5t-56 110t-34 119.5t-11.5 118.5q0 70 14 139.5t41.5 133t67 118t90 94.5t111.5 63t131 23q78 0 136.5 -33t92.5 -78v193q0 26 -6 34.5t-20 8.5
q-7 0 -23 -3t-33 -11l-65 258l518 120v-1212q0 -40 5 -56t28 -16q26 0 54 5l30 6zM731 459v137q0 27 -7 58t-19.5 58t-31 44.5t-42.5 17.5q-30 0 -53.5 -20.5t-40 -56.5t-25 -84.5t-8.5 -104.5q0 -100 27.5 -152.5t89.5 -52.5q25 0 44 12.5t32.5 34t21.5 49.5t12 60z" />
    <glyph glyph-name="e" unicode="e" horiz-adv-x="1176" 
d="M1114 182q-16 -14 -31 -28q-13 -12 -28 -25t-27 -23q-74 -61 -177 -100t-228 -39q-122 0 -222 37.5t-186 120.5q-78 77 -121 173.5t-43 209.5q0 118 39.5 219.5t111 176t171.5 117t221 42.5q118 0 210 -39t157 -102t103.5 -141.5t49.5 -157.5l-557 -299q4 -12 19 -28.5
t35.5 -30.5t44.5 -24t46 -10q42 0 82 15.5t75 38t64 48t50 46.5zM698 684q7 3 4.5 13l-4.5 18q-12 42 -43 70t-77 28q-27 0 -51 -10.5t-42 -29.5t-28.5 -46t-10.5 -59q0 -31 3 -52t8 -35q5 -16 12 -26q52 28 97 54q19 11 38.5 22t37.5 21t32.5 18.5t23.5 13.5z" />
    <glyph glyph-name="f" unicode="f" horiz-adv-x="829" 
d="M999 1507l-43 -340l-221 25q5 18 7 36q2 15 1 31t-6 29q-11 25 -29.5 37t-52.5 12q-24 0 -40.5 -11t-27 -29.5t-15.5 -42.5t-5 -50v-184h224l-52 -297q-7 7 -19 12.5t-25.5 8.5t-26.5 4.5t-21 1.5h-80v-412q0 -35 12.5 -55.5t43.5 -20.5h61v-262h-612v264h45q15 0 26 2
t18 9t10 20t3 35v420h-98v270h98v104q0 114 33.5 198.5t94 140.5t144.5 84t185 28q64 0 120.5 -7t103.5 -17.5t83.5 -22.5t60.5 -21z" />
    <glyph glyph-name="g" unicode="g" horiz-adv-x="1186" 
d="M1171 764q-10 3 -22 5q-11 1 -26 0t-33 -7q-21 -8 -33.5 -17.5t-18.5 -17.5q-8 -10 -10 -20q5 -19 6.5 -33t1.5 -39q0 -78 -32 -155.5t-92.5 -139t-147 -99.5t-195.5 -38q-42 0 -80.5 6.5t-66.5 17.5q-5 -3 -17 -16.5t-12 -36.5q0 -17 12.5 -27.5t36.5 -17t58.5 -10
t79.5 -6.5q49 -3 115.5 1.5t156.5 4.5q50 0 101.5 -16.5t93 -50.5t68 -86t26.5 -124q0 -67 -24.5 -119t-68 -91.5t-101.5 -67t-125.5 -45t-140 -25.5t-144.5 -8q-66 0 -132.5 5t-127 17t-112.5 31t-90.5 46t-60.5 63.5t-22 83.5q0 34 4.5 61.5t18 51.5t37.5 47.5t63 50.5
q-26 26 -41 56.5t-15 78.5q0 37 16 75t44 70.5t65 55.5t78 30q-74 57 -120 138t-46 188q0 96 39.5 175t105 135t151 87t177.5 31q94 0 162.5 -24.5t115.5 -57t75.5 -65.5t42.5 -50q2 15 10 33.5t20.5 37t30.5 36.5t41 31q17 10 35.5 13.5t33.5 3.5q18 0 35 -3v-254zM651 629
q0 34 -4 72t-13 70t-25 53.5t-40 21.5t-40 -21.5t-25.5 -53.5t-14 -70t-4.5 -72t3.5 -71.5t13 -69.5t26 -53t41.5 -21q24 0 40 21t25 53t13 69.5t4 71.5zM748 -248q0 26 -22 33t-58.5 6t-85.5 -3.5t-103 5.5q-40 5 -64.5 8.5t-45 9t-43 15.5t-56.5 29q-14 -14 -21 -29
t-7 -41q0 -21 11 -42t38 -38t71.5 -28t112.5 -11q55 0 104.5 4.5t87 14.5t59.5 26.5t22 40.5z" />
    <glyph glyph-name="h" unicode="h" horiz-adv-x="1323" 
d="M1292 0h-579v262h37q49 0 49 68v307q0 16 -4.5 32t-14 29t-24 21t-35.5 8q-32 0 -61 -14.5t-50.5 -40t-34 -59.5t-12.5 -72v-203q0 -35 10 -55.5t41 -20.5h33v-262h-571v264h41q15 0 26 2t18 9t10 20t3 35v776q0 42 -4.5 62t-24.5 20q-14 0 -24 -4.5t-23 -12.5l-65 259
l530 122v-700q23 49 58.5 88t79.5 66.5t94.5 42t103.5 14.5q64 0 117.5 -22t91.5 -62.5t59 -98.5t21 -130v-402q0 -46 11.5 -66t39.5 -20h53v-262z" />
    <glyph glyph-name="i" unicode="i" horiz-adv-x="707" 
d="M670 0h-602v262h45q32 0 44.5 17t12.5 55v315q0 11 -8 21t-15 10q-25 0 -53 -18l-69 258l534 122v-704q0 -43 17.5 -60.5t52.5 -17.5h15.5t13.5 1q6 0 12 1v-262zM602 1389q0 -51 -26 -98.5t-67 -84t-93.5 -58.5t-104.5 -22q-42 0 -75.5 12.5t-56.5 33.5t-35.5 48
t-12.5 56q0 47 24 93t65 83t95.5 59.5t116.5 22.5q41 0 72.5 -12.5t53.5 -33t33 -46.5t11 -53z" />
    <glyph glyph-name="j" unicode="j" horiz-adv-x="713" 
d="M559 -20q0 -58 -19.5 -114t-54.5 -106t-84 -92.5t-108 -73.5q-60 -31 -104.5 -51.5t-75.5 -33.5q-36 -15 -62 -25l-106 215l50 25q22 11 47.5 26.5t49.5 32.5q35 25 56.5 67.5t21.5 104.5v690q0 20 -6.5 28.5t-16.5 8.5q-14 0 -29 -6t-24 -14l-65 260l530 122v-1064z
M586 1384q0 -48 -25 -92.5t-65.5 -79.5t-91.5 -56t-103 -21q-42 0 -74 11.5t-53.5 31t-32 45.5t-10.5 55q0 44 22.5 89.5t62.5 83t93 61.5t115 24q40 0 70.5 -13.5t51 -35.5t30.5 -49t10 -54z" />
    <glyph glyph-name="k" unicode="k" horiz-adv-x="1341" 
d="M1348 -4q-43 -42 -78 -76q-15 -15 -30 -29.5t-27.5 -27l-21.5 -21.5t-13 -12q-98 58 -183 131t-152.5 149.5t-115.5 151.5t-70 137l-88 -67v-37q0 -19 17 -26t51 -7v-262h-565v262h51q31 0 41 17.5t10 54.5v801q0 4 -0.5 12.5t-2 17t-5 15t-10.5 6.5q-13 0 -28.5 -2.5
t-29.5 -12.5l-69 259l534 122v-952q9 7 26 20t36.5 28t40 31t36.5 28q19 14 24 19.5t5 14.5q0 8 -8.5 11.5t-28.5 3.5h-18v264h551v-264h-43q-26 0 -44.5 -5t-38 -16t-43 -28t-57.5 -41q30 -101 65 -187t77 -165.5t92.5 -156.5t112.5 -161z" />
    <glyph glyph-name="l" unicode="l" horiz-adv-x="702" 
d="M668 0h-596v264h41q15 0 26 2t18 9t10 20t3 35v803q0 55 -29 55q-11 0 -20 -3t-15 -6q-7 -4 -12 -8l-65 259l530 122v-1214q0 -35 14.5 -55.5t44.5 -20.5h50v-262z" />
    <glyph glyph-name="m" unicode="m" horiz-adv-x="1915" 
d="M1886 0h-573v262h28q32 0 38.5 16t6.5 39v338q0 32 -18.5 57t-52.5 25q-23 0 -46 -12t-43 -32.5t-35.5 -49t-23.5 -61.5v-256q0 -35 12 -49.5t44 -14.5h30v-262h-557v262h33q32 0 38.5 16t6.5 39v342q0 31 -15.5 56.5t-49.5 25.5q-29 0 -56 -21t-48 -52t-33.5 -68
t-12.5 -68v-194q0 -43 7.5 -59.5t33.5 -16.5h37v-262h-569v262h49q34 0 43.5 15t9.5 53v317q0 13 -7 21t-18.5 10.5t-25 -1t-25.5 -13.5l-69 258l514 122v-202q19 24 37 46q16 19 34 39t35 34q54 46 117.5 74t132.5 28q58 0 103.5 -16.5t78.5 -46t53.5 -69.5t28.5 -87
q25 40 51.5 73t57.5 58q49 38 105.5 62t115.5 24q71 0 125.5 -24t91 -67.5t55.5 -104t19 -134.5v-405q0 -35 11.5 -49.5t43.5 -14.5h51v-262z" />
    <glyph glyph-name="n" unicode="n" horiz-adv-x="1303" 
d="M1268 0h-572v262h33q32 0 38.5 16t6.5 39v336q0 31 -22 54.5t-56 23.5q-27 0 -51.5 -15t-43.5 -39t-30.5 -54.5t-11.5 -61.5v-223q0 -21 0.5 -35.5t5 -23.5t14 -13t27.5 -4h31v-262h-569v262h49q34 0 43.5 15t9.5 53v317q0 12 -7.5 19t-19 9t-24.5 -1t-25 -12l-67 258
l512 124v-206q15 20 34 42q17 19 39.5 43t49.5 48q21 18 47.5 35t56 29.5t61 20t62.5 7.5q142 0 210 -92t68 -258v-387q0 -35 11 -49.5t43 -14.5h47v-262z" />
    <glyph glyph-name="o" unicode="o" horiz-adv-x="1188" 
d="M1141 514q0 -114 -43 -213t-117 -173t-173.5 -116.5t-213.5 -42.5t-213.5 42.5t-173.5 116.5t-117 173t-43 213t43 213.5t117 173.5t173.5 117t213.5 43t213.5 -43t173.5 -117t117 -173.5t43 -213.5zM713 526q0 42 -5.5 91t-19.5 91t-37 69.5t-57 27.5q-37 0 -61.5 -27.5
t-39 -69t-20.5 -90.5t-6 -92q0 -46 5.5 -98t19.5 -96.5t39 -73.5t63 -29q32 0 54.5 29.5t37 74t21 96.5t6.5 97z" />
    <glyph glyph-name="p" unicode="p" horiz-adv-x="1249" 
d="M1202 545q0 -114 -23.5 -218.5t-72.5 -184.5t-125 -127.5t-182 -47.5q-51 0 -87.5 7.5t-64 20t-49.5 29.5t-43 35v-249q0 -18 2 -33.5t9.5 -27.5t21.5 -18.5t39 -6.5h53v-238h-610v238h32q13 0 25.5 3.5t22 12t15 23.5t5.5 38v822q0 25 -6 38.5t-16.5 17t-23.5 -0.5
t-28 -14l-71 258l514 122v-172q15 35 44 69t66 61t80 44t86 17q96 0 166.5 -49t120.5 -127q48 -75 74 -158.5t26 -183.5zM772 502q0 57 -10 100.5t-25.5 73t-34 44.5t-34.5 15q-29 0 -49.5 -17.5t-33.5 -44.5t-19.5 -59t-6.5 -61v-154q0 -72 22 -114.5t76 -42.5
q22 0 42.5 20.5t36.5 55.5t26 82.5t10 101.5z" />
    <glyph glyph-name="q" unicode="q" horiz-adv-x="1217" 
d="M1214 -477l-507 -49v600q-16 -19 -39 -38t-53 -34.5t-67.5 -25t-82.5 -9.5q-65 0 -121 20.5t-102.5 56.5t-83 86t-61 108t-37.5 123t-13 131q0 120 38 224.5t104.5 181.5t158 121t199.5 44q57 0 105 -7.5t86.5 -16t66.5 -16t43 -7.5q29 0 41 14t24 45l170 -65v-1190
q0 -17 5 -34t24 -19q5 -2 19.5 0t29.5 4q18 3 39 6zM705 377v297q0 33 -7.5 60.5t-20.5 47t-31 30.5t-38 11q-24 0 -46.5 -18.5t-40 -55t-28 -91t-10.5 -126.5q0 -63 7 -117.5t20.5 -95t33.5 -63.5t46 -23q25 0 45.5 15t35.5 37t24 47t10 45z" />
    <glyph glyph-name="r" unicode="r" horiz-adv-x="1036" 
d="M1024 1014l-55 -389l-238 12q2 12 2 23q0 10 -1 22t-5 23q-8 21 -27 26.5t-34 5.5q-18 0 -37 -18t-34.5 -47t-25.5 -66t-10 -76v-192q0 -43 11 -59.5t46 -16.5h52v-262h-598v262h47q34 0 43.5 15t9.5 53v321q0 22 -21.5 27t-52.5 -16l-69 260l510 122v-227
q10 24 22.5 45.5t26 40t26.5 33.5t23 25q38 38 89.5 63t111.5 25q55 0 106 -9t82 -26z" />
    <glyph glyph-name="s" unicode="s" horiz-adv-x="1059" 
d="M993 1022l-53 -373l-233 31q4 30 -4.5 56t-25 45.5t-39 30.5t-46.5 11q-38 0 -61 -14t-23 -45q0 -22 13 -38.5t37 -31.5t57 -31t73 -38q31 -17 67 -35.5t81 -44.5q71 -42 110 -105.5t39 -154.5q0 -67 -26 -125t-71.5 -101t-107 -67.5t-131.5 -24.5q-59 0 -105.5 9.5
t-81 20.5t-57.5 20.5t-34 9.5q-16 0 -27 -9t-6 -30l-221 -39l-84 360l241 47q7 -32 20.5 -60.5t35.5 -49.5t53.5 -33t73.5 -12t64 16t22 51q0 28 -24 50t-66 42q-11 6 -34 17.5t-49.5 25t-52 26.5t-41.5 22q-92 49 -132 119.5t-40 170.5q0 81 30 141t82.5 100.5t123.5 60.5
t152 20q28 0 62 -7.5t65.5 -16t58 -16t39.5 -7.5q26 0 35.5 11t15.5 34z" />
    <glyph glyph-name="t" unicode="t" horiz-adv-x="942" 
d="M934 133q-45 -33 -88 -63t-92 -53t-108.5 -36.5t-137.5 -13.5q-26 0 -53 3.5t-52.5 10.5t-47.5 16.5t-38 20.5q-80 56 -115.5 124t-35.5 161v453h-123v231l516 301v-268h315l-51 -293q-11 4 -29 9t-40.5 9t-48 7t-50.5 4h-94v-365q0 -56 20.5 -88.5t75.5 -34.5
q25 -1 43.5 3.5t36 13t36.5 21.5t44 30z" />
    <glyph glyph-name="u" unicode="u" horiz-adv-x="1313" 
d="M1280 25l-496 -48v183q-15 -35 -45.5 -70t-74 -63t-97.5 -45t-116 -17q-59 0 -111.5 21.5t-91.5 60.5t-61.5 93.5t-22.5 119.5v389q0 29 -4 38t-17 9q-8 0 -24.5 -3t-30.5 -11l-63 258l528 123v-666q0 -35 1.5 -60t8.5 -41t20.5 -24t37.5 -8q27 0 52.5 18.5t44.5 47.5
t30.5 64t11.5 69v190q0 29 -9 36t-18 7q-6 0 -16 -3t-23 -11l-65 258l520 123v-748q0 -47 33 -47q6 0 18.5 0.5t26 2t25.5 3.5t16 5q2 -67 4 -122q1 -23 2 -45.5t2 -41t2 -30.5t2 -15z" />
    <glyph glyph-name="v" unicode="v" horiz-adv-x="1206" 
d="M1182 758h-35q-17 0 -28 -2.5t-20 -10.5t-17 -23t-19 -40q-8 -19 -27.5 -64t-44 -103.5t-52 -123t-51 -120t-41 -96.5t-22.5 -52q-15 -34 -23 -66t-5 -57h-355q-13 29 -38 85t-55 125t-62.5 143t-61.5 139.5t-51 115.5t-31 70q-11 24 -19.5 39.5t-18.5 24.5t-21.5 12.5
t-26.5 3.5h-41v262h650v-262h-37q-29 0 -37 -5t-10 -22q0 -16 16 -51l98 -262q1 3 8 21t16.5 44.5t21.5 57.5t22.5 59t19 50t11.5 30q8 19 12 31t4 20q0 13 -7 20t-24 7h-35v262h437v-262z" />
    <glyph glyph-name="w" unicode="w" horiz-adv-x="1847" 
d="M1827 758h-35q-17 0 -30 -3t-23.5 -11.5t-20.5 -24t-20 -39.5q-8 -19 -24.5 -55.5t-37.5 -85t-45.5 -105.5t-50 -115t-50 -114.5t-44.5 -104.5q-16 -34 -18 -54.5t2 -45.5h-357l-143 340q-19 -40 -38 -81q-17 -35 -37 -78.5t-38 -84.5q-11 -23 -16.5 -47t-3.5 -49h-357
q-12 24 -36 77t-53.5 119.5t-61.5 140.5t-61.5 141t-52.5 120.5t-34 79.5q-11 24 -19.5 39.5t-18.5 24.5t-21.5 12.5t-26.5 3.5h-37v262h619v-262h-33q-20 0 -25.5 -5t-7.5 -22q0 -8 4.5 -21t12.5 -30q19 -48 37.5 -96t33.5 -88q18 -47 33 -90l103 260q-6 14 -12 27
q-5 11 -10.5 23.5t-10.5 22.5q-7 19 -39 19h-27v262h602v-262h-45q-17 0 -26.5 -6.5t-9.5 -26.5q0 -14 7.5 -31.5t18.5 -42.5q2 -5 6.5 -17t11.5 -28.5t14.5 -36t15.5 -39.5q18 -47 40 -102q23 62 41 114l16 44t14.5 41t11.5 33t7 20q8 22 12.5 32.5t4.5 18.5q0 13 -6 20
t-23 7h-39v262h457v-262z" />
    <glyph glyph-name="x" unicode="x" horiz-adv-x="1266" 
d="M1227 0h-688v262h51q15 0 30 3.5t15 13.5q0 4 -5 11t-12 15t-15 16l-15 15q-22 22 -41 46t-45 50q-17 -25 -31.5 -50.5t-34.5 -51.5q-14 -19 -20 -28.5t-6 -18.5q0 -14 7.5 -17.5t24.5 -3.5h39v-262h-413v262h41q25 0 41.5 14t42.5 46q19 23 42.5 55.5t46.5 66.5t43.5 65
t34.5 50q-26 26 -62.5 61t-84.5 80q-18 16 -31.5 27t-26 18t-25.5 10t-28 3h-41v262h680v-262h-45q-28 0 -28 -17q0 -8 15.5 -23t29.5 -28q22 -21 37 -36t36 -38q19 20 34 40.5t34 43.5q8 10 15.5 18t7.5 19q0 14 -8 17.5t-25 3.5h-41v262h424v-262h-35q-17 0 -29 -4.5
t-22.5 -13t-20.5 -21t-22 -29.5q-9 -12 -29.5 -39.5t-44.5 -59.5t-47.5 -63t-38.5 -49q12 -11 24.5 -22.5t26.5 -24.5t28 -28t26.5 -29.5t23 -27t18.5 -19.5q17 -17 29 -29.5t23 -20.5t22.5 -12t26.5 -4h41v-262z" />
    <glyph glyph-name="y" unicode="y" horiz-adv-x="1217" 
d="M1208 758h-34q-25 0 -44.5 -17.5t-37.5 -60.5q-12 -28 -41.5 -94.5t-69.5 -156.5t-86.5 -195.5t-92.5 -211.5q-110 -249 -241 -546h-418q45 58 90 118q38 51 80 111t74 113q20 34 43 74.5t42 76.5q22 41 44 84q-89 156 -162 285q-31 55 -62 109t-57 100t-44.5 78.5
t-24.5 44.5q-13 23 -23.5 39.5t-21 27.5t-22.5 16t-27 5h-41v262h633v-262h-37q-26 0 -36.5 -7t-10.5 -24q0 -18 18 -57q4 -9 16.5 -32t27.5 -50t29.5 -53.5t22.5 -42.5q3 -7 5.5 -15.5t4.5 -16.5q3 -10 5 -20q1 10 4 20q3 16 10 32q6 12 15.5 35.5t20 50t21 52t17.5 40.5
q8 18 13 32.5t5 22.5q0 12 -9 22.5t-26 10.5h-39v262h467v-262z" />
    <glyph glyph-name="z" unicode="z" horiz-adv-x="1204" 
d="M1137 334l-88 -418l-236 41q3 20 -6 31.5t-35 11.5h-616l-93 168l500 600h-102q-37 0 -61 -4t-41 -16.5t-29 -37t-25 -65.5l-211 39l84 367q12 -5 33.5 -10.5t47.5 -10t52 -7.5t47 -3h676l90 -162l-471 -608h123q31 0 52 6t36 21t26.5 41t24.5 67z" />
    <glyph glyph-name="braceleft" unicode="{" horiz-adv-x="811" 
d="M801 -246q-104 -15 -198 2q-40 7 -82 21.5t-81 40t-73 63t-58 90.5q-22 48 -36 106.5t-22 121.5t-13 127.5t-9 124.5q-2 26 -15 56t-37 56t-57 43t-75 17v282q42 0 75.5 17.5t57.5 43.5t37.5 57.5t15.5 59.5q3 52 6.5 109.5t10 117t19.5 119.5t36 117q22 55 55.5 94.5
t73 66t82 41.5t83.5 23q96 18 204 3v-287h-76q-34 0 -54 -14.5t-31.5 -40.5t-16 -63.5t-7.5 -82.5q-3 -69 -3.5 -135.5t-6.5 -140.5q-2 -31 -9.5 -65.5t-25 -68t-46 -63t-72.5 -49.5q44 -20 72.5 -49.5t45 -63.5t24 -69t9.5 -66q3 -37 5 -69.5t3.5 -65t2 -66.5t1.5 -73
q1 -45 5.5 -82.5t16 -63.5t32.5 -40.5t55 -14.5h76v-287z" />
    <glyph glyph-name="bar" unicode="|" horiz-adv-x="420" 
d="M319 -244h-217v2018h217v-2018z" />
    <glyph glyph-name="braceright" unicode="}" horiz-adv-x="811" 
d="M766 623q-42 0 -75 -17t-57 -43t-37.5 -56t-14.5 -56q-4 -60 -9 -124.5t-13 -127.5t-22 -121.5t-36 -106.5q-24 -53 -58 -90.5t-73 -63t-81 -40t-82 -21.5q-94 -17 -198 -2v287h76q34 0 55 14.5t32.5 40.5t16 63.5t5.5 82.5q1 39 1.5 73t2 66.5t3.5 65t5 69.5
q2 31 9.5 66t24 69t45 63.5t72.5 49.5q-44 20 -72.5 49.5t-46 63t-25 68t-9.5 65.5q-5 74 -6 140.5t-4 135.5q-3 45 -7.5 82.5t-16 63.5t-31.5 40.5t-54 14.5h-76v287q108 15 204 -3q41 -8 83.5 -23t81.5 -41.5t72.5 -66t56.5 -94.5q23 -57 36 -117t19.5 -119.5t10 -117
t6.5 -109.5q1 -28 15 -59.5t38 -57.5t57.5 -43.5t75.5 -17.5v-282z" />
    <glyph glyph-name="asciitilde" unicode="~" horiz-adv-x="1024" 
d="M1008 860q-26 -52 -60 -101.5t-76 -87.5t-91.5 -61.5t-104.5 -23.5q-26 0 -53 7.5t-54 19t-54 26t-54 29.5q-40 21 -78 38t-66 17q-27 0 -48 -6.5t-44.5 -22t-53 -43t-71.5 -69.5l-84 90q36 58 79 107.5t90.5 85.5t98 56.5t101.5 20.5q21 0 45 -6t49 -16t50 -22.5
t49 -25.5q48 -24 87 -44.5t58 -20.5q34 0 59.5 6.5t47.5 22.5t44 41t48 63z" />
    <glyph glyph-name="Adieresis" unicode="&#xc4;" horiz-adv-x="1642" 
d="M1620 0h-752v287h47q21 0 32 4t15 11t3 16.5t-4 19.5q-7 18 -13 33t-14 20h-438q-8 -14 -11 -26.5t-6 -24.5q-5 -18 -2 -28.5t10.5 -16t19 -7t25.5 -1.5h41v-287h-550v287h45q24 0 39 6.5t26.5 23t22.5 44.5t28 71l379 983q9 25 15 41t8.5 28.5t2.5 24t-1 27.5h379
q117 -266 216 -492q42 -96 85 -193.5t80.5 -182t66 -150t43.5 -98.5q21 -47 33.5 -73.5t24.5 -40t25.5 -16.5t35.5 -3h43v-287zM836 653q-28 62 -51 116l-20 46t-18.5 43t-15.5 36t-10 24q-6 12 -8.5 19.5t-7.5 23.5q-27 -74 -50 -136q-10 -27 -19.5 -53.5t-18 -50
t-15.5 -41.5t-10 -27h244zM1283 1859q0 -42 -16.5 -77t-45.5 -61t-67.5 -40.5t-83.5 -14.5q-32 0 -64 12t-57.5 33t-41 48t-15.5 57q0 41 18.5 75.5t49.5 59.5t70.5 39t80.5 14q29 0 59.5 -11t55.5 -30t41 -46t16 -58zM716 1859q0 -42 -16 -77t-44.5 -61t-67 -40.5
t-83.5 -14.5q-32 0 -64.5 12t-58 33t-41.5 48t-16 57q0 41 18.5 75.5t49.5 59.5t70.5 39t80.5 14q30 0 60.5 -11t55.5 -30t40.5 -46t15.5 -58z" />
    <glyph glyph-name="Aring" unicode="&#xc5;" horiz-adv-x="1642" 
d="M1620 0h-752v287h47q21 0 32 4t15 11t3 16.5t-4 19.5q-7 18 -13 33t-14 20h-438q-8 -14 -11 -26.5t-6 -24.5q-5 -18 -2 -28.5t10.5 -16t19 -7t25.5 -1.5h41v-287h-550v287h45q24 0 39 6.5t26.5 23t22.5 44.5t28 71l379 983q9 25 15 41t8.5 28.5t2.5 24t-1 27.5h379
q117 -266 216 -492q42 -96 85 -193.5t80.5 -182t66 -150t43.5 -98.5q21 -47 33.5 -73.5t24.5 -40t25.5 -16.5t35.5 -3h43v-287zM836 653q-28 62 -51 116l-20 46t-18.5 43t-15.5 36t-10 24q-6 12 -8.5 19.5t-7.5 23.5q-27 -74 -50 -136q-10 -27 -19.5 -53.5t-18 -50
t-15.5 -41.5t-10 -27h244zM1026 1887q0 -51 -20 -96t-53.5 -78.5t-78.5 -53t-96 -19.5t-96.5 19.5t-79.5 53t-54 78.5t-20 96q0 52 20 97.5t54 79t79.5 52.5t96.5 19t96 -19t78.5 -52.5t53.5 -79t20 -97.5zM895 1887q0 22 -10 43.5t-26.5 37.5t-37.5 26t-43 10
q-23 0 -44.5 -10t-38 -26t-26.5 -37.5t-10 -43.5q0 -24 10 -45t26.5 -36.5t38 -25t44.5 -9.5q22 0 43 9.5t37.5 25t26.5 36.5t10 45z" />
    <glyph glyph-name="Ccedilla" unicode="&#xc7;" horiz-adv-x="1599" 
d="M1542 258q-79 -75 -179 -137q-43 -26 -94.5 -52t-111 -47t-126.5 -35t-140 -18l-25 -98q94 -8 156 -29t99.5 -53t53 -75t15.5 -95q0 -54 -27.5 -97t-72.5 -74t-103 -47.5t-119 -16.5q-23 0 -55.5 7.5t-67 21.5t-66.5 34t-54 45l57 64q31 -29 69 -44.5t76 -13.5
q69 2 103.5 38t34.5 87q0 50 -17.5 81t-49.5 48.5t-78.5 24t-104.5 6.5l47 188q-152 10 -281 71.5t-224 167t-148.5 251t-53.5 323.5q0 119 30 224.5t85 194t131.5 159.5t169 120t198.5 75t220 26q48 0 85 -6t66.5 -13.5t54 -14.5t48.5 -9q7 -1 16.5 -0.5t17.5 4.5t13.5 12
t5.5 23l270 -39l-63 -477l-281 45q2 28 2 54q0 22 -3.5 44.5t-12.5 36.5q-31 46 -76 61t-114 15q-85 0 -151.5 -38.5t-112 -99.5t-70 -137t-25.5 -151q-1 -132 36 -240.5t97 -185.5t137 -119.5t156 -42.5q68 0 124.5 14t104 37.5t89 54.5t79.5 66z" />
    <glyph glyph-name="Eacute" unicode="&#xc9;" horiz-adv-x="1620" 
d="M1563 475l-84 -508q-16 7 -52 13t-83.5 10.5t-100.5 7t-104 2.5h-1063v287h71q50 0 76.5 23t26.5 83v774q0 45 -20.5 63.5t-71.5 18.5h-84v287h1120q28 0 48.5 10.5t25.5 42.5l258 -33l-62 -456l-272 28q5 12 5.5 32t-8.5 40t-30.5 34.5t-60.5 14.5h-367v-311h230
q55 0 76 22.5t26 69.5l223 -26l-49 -439l-238 29q4 17 5 33t-9 30q-9 14 -33.5 17.5t-50.5 3.5h-180v-387h334q68 0 109 13.5t66 41t39.5 69t29.5 97.5zM1173 1865l-633 -237l-47 80l524 424z" />
    <glyph glyph-name="Ntilde" unicode="&#xd1;" horiz-adv-x="1872" 
d="M1798 1249h-82q-25 0 -42.5 -3.5t-28.5 -14.5t-16 -31.5t-5 -54.5v-1008q0 -15 0.5 -34t2 -37.5t5 -36t8.5 -29.5h-407l-615 817v-418q0 -60 18 -86t56 -26h103v-287h-709v287h90q29 0 51.5 22t22.5 70v758q0 52 -19 82t-69 30h-78v287h680q0 -23 15 -53t38 -62
q3 -4 24 -32.5t53 -72.5t72.5 -98.5t81.5 -111.5q97 -133 218 -299v358q0 35 -20 59.5t-62 24.5h-72v287h686v-287zM1523 1907q-54 -63 -107 -116.5t-106 -92t-105.5 -60.5t-105.5 -22q-27 0 -57.5 12.5t-62.5 30.5t-64.5 40t-63 40t-57.5 30.5t-49 12.5q-39 0 -70.5 -8.5
t-61.5 -26.5t-60 -45.5t-64 -65.5l-72 90q54 63 106 116.5t103.5 92t105 60.5t111.5 22q25 0 54.5 -12t61 -30.5t63.5 -39.5t63 -39.5t60 -30.5t54 -12q42 0 73 7.5t59 24.5t55.5 44t62.5 66z" />
    <glyph glyph-name="Odieresis" unicode="&#xd6;" horiz-adv-x="1729" 
d="M1671 762q0 -113 -29 -217.5t-82 -194.5t-127 -164t-163.5 -126.5t-193 -81.5t-214.5 -29q-113 0 -216 29t-192.5 81.5t-162.5 126.5t-125 164.5t-80.5 194.5t-28.5 217q0 112 28.5 216.5t80.5 195.5t125 165.5t162.5 127.5t193 82.5t215.5 29.5q123 0 231 -32t197.5 -88
t160.5 -133t119.5 -168t74.5 -192t26 -204zM1116 758q0 58 -3 120.5t-13 122t-28 113t-47 93.5t-69.5 63.5t-95.5 23.5q-56 0 -96.5 -23.5t-69.5 -63t-46.5 -92.5t-27.5 -112.5t-13.5 -121t-2.5 -119.5q0 -58 4.5 -119t15.5 -119t29 -110t46.5 -91t68 -62t92.5 -23
q55 0 95 22.5t68.5 61.5t46 90.5t28 109.5t14 118.5t4.5 117.5zM1345 1859q0 -42 -16.5 -77t-45.5 -61t-67.5 -40.5t-83.5 -14.5q-32 0 -64 12t-57.5 33t-41 48t-15.5 57q0 41 18.5 75.5t49.5 59.5t70.5 39t80.5 14q29 0 59.5 -11t55.5 -30t41 -46t16 -58zM778 1859
q0 -42 -16 -77t-44.5 -61t-67 -40.5t-83.5 -14.5q-32 0 -64.5 12t-58 33t-41.5 48t-16 57q0 41 18.5 75.5t49.5 59.5t70.5 39t80.5 14q30 0 60.5 -11t55.5 -30t40.5 -46t15.5 -58z" />
    <glyph glyph-name="Udieresis" unicode="&#xdc;" horiz-adv-x="1804" 
d="M1735 1249h-76q-40 0 -66 -25t-26 -81v-643q0 -92 -23 -172.5t-67.5 -145.5t-110.5 -113.5t-152 -76.5q-66 -22 -133.5 -30.5t-154.5 -8.5q-139 0 -263.5 31.5t-218 93t-148 151t-54.5 205.5v713q0 46 -24 74t-71 28h-84v287h840v-287h-82q-16 0 -32 -4.5t-29 -15
t-21 -28.5t-8 -46v-674q0 -72 24.5 -122.5t63.5 -82t87 -45.5t95 -14q79 0 136.5 38.5t85.5 106.5q15 37 17.5 67t2.5 69v649q0 46 -20.5 74t-67.5 28h-78v287h658v-287zM1447 1853q0 -42 -16.5 -77t-45.5 -61t-67.5 -40.5t-83.5 -14.5q-32 0 -64 12t-57.5 33t-41 48
t-15.5 57q0 41 18.5 75.5t49.5 59.5t70.5 39t80.5 14q29 0 59.5 -11t55.5 -30t41 -46t16 -58zM880 1853q0 -42 -16 -77t-44.5 -61t-67 -40.5t-83.5 -14.5q-32 0 -64.5 12t-58 33t-41.5 48t-16 57q0 41 18.5 75.5t49.5 59.5t70.5 39t80.5 14q30 0 60.5 -11t55.5 -30t40.5 -46
t15.5 -58z" />
    <glyph glyph-name="aacute" unicode="&#xe1;" horiz-adv-x="1133" 
d="M1098 25l-496 -48v164q-18 -34 -47 -66t-65.5 -57t-79 -40t-86.5 -15q-82 0 -140.5 34t-93.5 91q-25 38 -38 83.5t-13 94.5q0 59 21 113t59.5 98.5t93 78.5t121.5 54q56 17 119 23t129 6q0 40 -6 66.5t-19 42.5t-35 23t-53 7q-17 0 -40 -5t-49 -14t-52 -22t-49 -28
l-115 209q34 22 81.5 45t104.5 41.5t121.5 30.5t134.5 12q183 0 272 -83t89 -235v-401q0 -20 1 -32t3.5 -18t6.5 -8t11 -2q5 0 19.5 1t31.5 3q19 2 43 4zM573 354v95q-51 0 -83 -8.5t-51 -23t-26 -33.5t-7 -40q0 -15 4.5 -30.5t13.5 -28t23.5 -21t35.5 -8.5q32 0 58 27.5
t32 70.5zM1003 1382l-633 -237l-47 80l524 424z" />
    <glyph glyph-name="agrave" unicode="&#xe0;" horiz-adv-x="1133" 
d="M1098 25l-496 -48v164q-18 -34 -47 -66t-65.5 -57t-79 -40t-86.5 -15q-82 0 -140.5 34t-93.5 91q-25 38 -38 83.5t-13 94.5q0 59 21 113t59.5 98.5t93 78.5t121.5 54q56 17 119 23t129 6q0 40 -6 66.5t-19 42.5t-35 23t-53 7q-17 0 -40 -5t-49 -14t-52 -22t-49 -28
l-115 209q34 22 81.5 45t104.5 41.5t121.5 30.5t134.5 12q183 0 272 -83t89 -235v-401q0 -20 1 -32t3.5 -18t6.5 -8t11 -2q5 0 19.5 1t31.5 3q19 2 43 4zM573 354v95q-51 0 -83 -8.5t-51 -23t-26 -33.5t-7 -40q0 -15 4.5 -30.5t13.5 -28t23.5 -21t35.5 -8.5q32 0 58 27.5
t32 70.5zM926 1225l-47 -80l-633 237l156 267z" />
    <glyph glyph-name="acircumflex" unicode="&#xe2;" horiz-adv-x="1133" 
d="M1098 25l-496 -48v164q-18 -34 -47 -66t-65.5 -57t-79 -40t-86.5 -15q-82 0 -140.5 34t-93.5 91q-25 38 -38 83.5t-13 94.5q0 59 21 113t59.5 98.5t93 78.5t121.5 54q56 17 119 23t129 6q0 40 -6 66.5t-19 42.5t-35 23t-53 7q-17 0 -40 -5t-49 -14t-52 -22t-49 -28
l-115 209q34 22 81.5 45t104.5 41.5t121.5 30.5t134.5 12q183 0 272 -83t89 -235v-401q0 -20 1 -32t3.5 -18t6.5 -8t11 -2q5 0 19.5 1t31.5 3q19 2 43 4zM573 354v95q-51 0 -83 -8.5t-51 -23t-26 -33.5t-7 -40q0 -15 4.5 -30.5t13.5 -28t23.5 -21t35.5 -8.5q32 0 58 27.5
t32 70.5zM1117 1216l-49 -62l-457 248l-461 -248l-47 62l420 414h168z" />
    <glyph glyph-name="adieresis" unicode="&#xe4;" horiz-adv-x="1133" 
d="M1098 25l-496 -48v164q-18 -34 -47 -66t-65.5 -57t-79 -40t-86.5 -15q-82 0 -140.5 34t-93.5 91q-25 38 -38 83.5t-13 94.5q0 59 21 113t59.5 98.5t93 78.5t121.5 54q56 17 119 23t129 6q0 40 -6 66.5t-19 42.5t-35 23t-53 7q-17 0 -40 -5t-49 -14t-52 -22t-49 -28
l-115 209q34 22 81.5 45t104.5 41.5t121.5 30.5t134.5 12q183 0 272 -83t89 -235v-401q0 -20 1 -32t3.5 -18t6.5 -8t11 -2q5 0 19.5 1t31.5 3q19 2 43 4zM573 354v95q-51 0 -83 -8.5t-51 -23t-26 -33.5t-7 -40q0 -15 4.5 -30.5t13.5 -28t23.5 -21t35.5 -8.5q32 0 58 27.5
t32 70.5zM1090 1379q0 -42 -16.5 -77t-45.5 -61t-67.5 -40.5t-83.5 -14.5q-32 0 -64 12t-57.5 33t-41 48t-15.5 57q0 41 18.5 75.5t49.5 59.5t70.5 39t80.5 14q29 0 59.5 -11t55.5 -30t41 -46t16 -58zM523 1379q0 -42 -16 -77t-44.5 -61t-67 -40.5t-83.5 -14.5
q-32 0 -64.5 12t-58 33t-41.5 48t-16 57q0 41 18.5 75.5t49.5 59.5t70.5 39t80.5 14q30 0 60.5 -11t55.5 -30t40.5 -46t15.5 -58z" />
    <glyph glyph-name="atilde" unicode="&#xe3;" horiz-adv-x="1133" 
d="M1098 25l-496 -48v164q-18 -34 -47 -66t-65.5 -57t-79 -40t-86.5 -15q-82 0 -140.5 34t-93.5 91q-25 38 -38 83.5t-13 94.5q0 59 21 113t59.5 98.5t93 78.5t121.5 54q56 17 119 23t129 6q0 40 -6 66.5t-19 42.5t-35 23t-53 7q-17 0 -40 -5t-49 -14t-52 -22t-49 -28
l-115 209q34 22 81.5 45t104.5 41.5t121.5 30.5t134.5 12q183 0 272 -83t89 -235v-401q0 -20 1 -32t3.5 -18t6.5 -8t11 -2q5 0 19.5 1t31.5 3q19 2 43 4zM573 354v95q-51 0 -83 -8.5t-51 -23t-26 -33.5t-7 -40q0 -15 4.5 -30.5t13.5 -28t23.5 -21t35.5 -8.5q32 0 58 27.5
t32 70.5zM1204 1424q-54 -63 -107 -116.5t-106 -92t-105.5 -60.5t-105.5 -22q-27 0 -57.5 12.5t-62.5 30.5t-64.5 40t-63 40t-57.5 30.5t-49 12.5q-39 0 -70.5 -8.5t-61.5 -26.5t-60 -45.5t-64 -65.5l-72 90q54 63 106 116.5t103.5 92t105 60.5t111.5 22q25 0 54.5 -12
t61 -30.5t63.5 -39.5t63 -39.5t60 -30.5t54 -12q42 0 73 7.5t59 24.5t55.5 44t62.5 66z" />
    <glyph glyph-name="aring" unicode="&#xe5;" horiz-adv-x="1133" 
d="M1098 25l-496 -48v164q-18 -34 -47 -66t-65.5 -57t-79 -40t-86.5 -15q-82 0 -140.5 34t-93.5 91q-25 38 -38 83.5t-13 94.5q0 59 21 113t59.5 98.5t93 78.5t121.5 54q56 17 119 23t129 6q0 40 -6 66.5t-19 42.5t-35 23t-53 7q-17 0 -40 -5t-49 -14t-52 -22t-49 -28
l-115 209q34 22 81.5 45t104.5 41.5t121.5 30.5t134.5 12q183 0 272 -83t89 -235v-401q0 -20 1 -32t3.5 -18t6.5 -8t11 -2q5 0 19.5 1t31.5 3q19 2 43 4zM573 354v95q-51 0 -83 -8.5t-51 -23t-26 -33.5t-7 -40q0 -15 4.5 -30.5t13.5 -28t23.5 -21t35.5 -8.5q32 0 58 27.5
t32 70.5zM851 1402q0 -51 -20 -96t-53.5 -78.5t-78.5 -53t-96 -19.5t-96.5 19.5t-79.5 53t-54 78.5t-20 96q0 52 20 97.5t54 79t79.5 52.5t96.5 19t96 -19t78.5 -52.5t53.5 -79t20 -97.5zM720 1402q0 22 -10 43.5t-26.5 37.5t-37.5 26t-43 10q-23 0 -44.5 -10t-38 -26
t-26.5 -37.5t-10 -43.5q0 -24 10 -45t26.5 -36.5t38 -25t44.5 -9.5q22 0 43 9.5t37.5 25t26.5 36.5t10 45z" />
    <glyph glyph-name="ccedilla" unicode="&#xe7;" horiz-adv-x="1128" 
d="M1083 190q-44 -38 -91 -75t-99.5 -67.5t-111.5 -51.5t-126 -27l-22 -90q94 -8 156 -27t99 -50t52.5 -73t15.5 -94q0 -54 -25.5 -98t-68.5 -76t-98.5 -49.5t-116.5 -17.5q-23 0 -57.5 7t-71 20.5t-71 33.5t-56.5 45l55 64q31 -29 71.5 -41t78.5 -12q33 0 58.5 9.5t43 25.5
t26.5 38t9 47q0 50 -18 81t-51 48t-80 23t-105 6l45 182q-119 11 -208 62t-148.5 127t-89 168t-29.5 184q0 64 15.5 130t45.5 127.5t74.5 115t103 93t130 62.5t155.5 23q39 0 68.5 -4t52.5 -10q32 -10 55.5 -18.5t43.5 -8.5q12 0 17.5 2t8.5 6.5t5 12t7 18.5l238 -33
l-53 -416l-252 31q7 24 9 47q2 20 -1.5 41.5t-17.5 38.5q-15 18 -29 27t-27.5 13t-27 4.5t-27.5 0.5q-32 0 -62.5 -21t-54.5 -56t-38.5 -80t-14.5 -93q0 -69 17.5 -125.5t47 -97t67 -62.5t77.5 -22q66 0 127.5 35t126.5 94z" />
    <glyph glyph-name="eacute" unicode="&#xe9;" horiz-adv-x="1176" 
d="M1114 182q-16 -14 -31 -28q-13 -12 -28 -25t-27 -23q-74 -61 -177 -100t-228 -39q-122 0 -222 37.5t-186 120.5q-78 77 -121 173.5t-43 209.5q0 118 39.5 219.5t111 176t171.5 117t221 42.5q118 0 210 -39t157 -102t103.5 -141.5t49.5 -157.5l-557 -299q4 -12 19 -28.5
t35.5 -30.5t44.5 -24t46 -10q42 0 82 15.5t75 38t64 48t50 46.5zM698 684q7 3 4.5 13l-4.5 18q-12 42 -43 70t-77 28q-27 0 -51 -10.5t-42 -29.5t-28.5 -46t-10.5 -59q0 -31 3 -52t8 -35q5 -16 12 -26q52 28 97 54q19 11 38.5 22t37.5 21t32.5 18.5t23.5 13.5zM949 1382
l-633 -237l-47 80l524 424z" />
    <glyph glyph-name="egrave" unicode="&#xe8;" horiz-adv-x="1176" 
d="M1114 182q-16 -14 -31 -28q-13 -12 -28 -25t-27 -23q-74 -61 -177 -100t-228 -39q-122 0 -222 37.5t-186 120.5q-78 77 -121 173.5t-43 209.5q0 118 39.5 219.5t111 176t171.5 117t221 42.5q118 0 210 -39t157 -102t103.5 -141.5t49.5 -157.5l-557 -299q4 -12 19 -28.5
t35.5 -30.5t44.5 -24t46 -10q42 0 82 15.5t75 38t64 48t50 46.5zM698 684q7 3 4.5 13l-4.5 18q-12 42 -43 70t-77 28q-27 0 -51 -10.5t-42 -29.5t-28.5 -46t-10.5 -59q0 -31 3 -52t8 -35q5 -16 12 -26q52 28 97 54q19 11 38.5 22t37.5 21t32.5 18.5t23.5 13.5zM936 1225
l-47 -80l-633 237l156 267z" />
    <glyph glyph-name="ecircumflex" unicode="&#xea;" horiz-adv-x="1176" 
d="M1114 182q-16 -14 -31 -28q-13 -12 -28 -25t-27 -23q-74 -61 -177 -100t-228 -39q-122 0 -222 37.5t-186 120.5q-78 77 -121 173.5t-43 209.5q0 118 39.5 219.5t111 176t171.5 117t221 42.5q118 0 210 -39t157 -102t103.5 -141.5t49.5 -157.5l-557 -299q4 -12 19 -28.5
t35.5 -30.5t44.5 -24t46 -10q42 0 82 15.5t75 38t64 48t50 46.5zM698 684q7 3 4.5 13l-4.5 18q-12 42 -43 70t-77 28q-27 0 -51 -10.5t-42 -29.5t-28.5 -46t-10.5 -59q0 -31 3 -52t8 -35q5 -16 12 -26q52 28 97 54q19 11 38.5 22t37.5 21t32.5 18.5t23.5 13.5zM1107 1216
l-49 -62l-457 248l-461 -248l-47 62l420 414h168z" />
    <glyph glyph-name="edieresis" unicode="&#xeb;" horiz-adv-x="1176" 
d="M1114 182q-16 -14 -31 -28q-13 -12 -28 -25t-27 -23q-74 -61 -177 -100t-228 -39q-122 0 -222 37.5t-186 120.5q-78 77 -121 173.5t-43 209.5q0 118 39.5 219.5t111 176t171.5 117t221 42.5q118 0 210 -39t157 -102t103.5 -141.5t49.5 -157.5l-557 -299q4 -12 19 -28.5
t35.5 -30.5t44.5 -24t46 -10q42 0 82 15.5t75 38t64 48t50 46.5zM698 684q7 3 4.5 13l-4.5 18q-12 42 -43 70t-77 28q-27 0 -51 -10.5t-42 -29.5t-28.5 -46t-10.5 -59q0 -31 3 -52t8 -35q5 -16 12 -26q52 28 97 54q19 11 38.5 22t37.5 21t32.5 18.5t23.5 13.5zM1088 1379
q0 -42 -16.5 -77t-45.5 -61t-67.5 -40.5t-83.5 -14.5q-32 0 -64 12t-57.5 33t-41 48t-15.5 57q0 41 18.5 75.5t49.5 59.5t70.5 39t80.5 14q29 0 59.5 -11t55.5 -30t41 -46t16 -58zM521 1379q0 -42 -16 -77t-44.5 -61t-67 -40.5t-83.5 -14.5q-32 0 -64.5 12t-58 33t-41.5 48
t-16 57q0 41 18.5 75.5t49.5 59.5t70.5 39t80.5 14q30 0 60.5 -11t55.5 -30t40.5 -46t15.5 -58z" />
    <glyph glyph-name="iacute" unicode="&#xed;" horiz-adv-x="707" 
d="M670 0h-602v262h45q32 0 44.5 17t12.5 55v315q0 11 -8 21t-15 10q-25 0 -53 -18l-69 258l534 122v-704q0 -43 17.5 -60.5t52.5 -17.5h15.5t13.5 1q6 0 12 1v-262zM674 1382l-633 -237l-47 80l524 424z" />
    <glyph glyph-name="igrave" unicode="&#xec;" horiz-adv-x="707" 
d="M670 0h-602v262h45q32 0 44.5 17t12.5 55v315q0 11 -8 21t-15 10q-25 0 -53 -18l-69 258l534 122v-704q0 -43 17.5 -60.5t52.5 -17.5h15.5t13.5 1q6 0 12 1v-262zM680 1225l-47 -80l-633 237l156 267z" />
    <glyph glyph-name="icircumflex" unicode="&#xee;" horiz-adv-x="707" 
d="M670 0h-602v262h45q32 0 44.5 17t12.5 55v315q0 11 -8 21t-15 10q-25 0 -53 -18l-69 258l534 122v-704q0 -43 17.5 -60.5t52.5 -17.5h15.5t13.5 1q6 0 12 1v-262zM859 1216l-49 -62l-457 248l-461 -248l-47 62l420 414h168z" />
    <glyph glyph-name="idieresis" unicode="&#xef;" horiz-adv-x="707" 
d="M670 0h-602v262h45q32 0 44.5 17t12.5 55v315q0 11 -8 21t-15 10q-25 0 -53 -18l-69 258l534 122v-704q0 -43 17.5 -60.5t52.5 -17.5h15.5t13.5 1q6 0 12 1v-262zM817 1379q0 -42 -16.5 -77t-45.5 -61t-67.5 -40.5t-83.5 -14.5q-32 0 -64 12t-57.5 33t-41 48t-15.5 57
q0 41 18.5 75.5t49.5 59.5t70.5 39t80.5 14q29 0 59.5 -11t55.5 -30t41 -46t16 -58zM250 1379q0 -42 -16 -77t-44.5 -61t-67 -40.5t-83.5 -14.5q-32 0 -64.5 12t-58 33t-41.5 48t-16 57q0 41 18.5 75.5t49.5 59.5t70.5 39t80.5 14q30 0 60.5 -11t55.5 -30t40.5 -46t15.5 -58
z" />
    <glyph glyph-name="ntilde" unicode="&#xf1;" horiz-adv-x="1303" 
d="M1268 0h-572v262h33q32 0 38.5 16t6.5 39v336q0 31 -22 54.5t-56 23.5q-27 0 -51.5 -15t-43.5 -39t-30.5 -54.5t-11.5 -61.5v-223q0 -21 0.5 -35.5t5 -23.5t14 -13t27.5 -4h31v-262h-569v262h49q34 0 43.5 15t9.5 53v317q0 12 -7.5 19t-19 9t-24.5 -1t-25 -12l-67 258
l512 124v-206q15 20 34 42q17 19 39.5 43t49.5 48q21 18 47.5 35t56 29.5t61 20t62.5 7.5q142 0 210 -92t68 -258v-387q0 -35 11 -49.5t43 -14.5h47v-262zM1198 1449q-54 -63 -107 -116.5t-106 -92t-105.5 -60.5t-105.5 -22q-27 0 -57.5 12.5t-62.5 30.5t-64.5 40t-63 40
t-57.5 30.5t-49 12.5q-39 0 -70.5 -8.5t-61.5 -26.5t-60 -45.5t-64 -65.5l-72 90q54 63 106 116.5t103.5 92t105 60.5t111.5 22q25 0 54.5 -12t61 -30.5t63.5 -39.5t63 -39.5t60 -30.5t54 -12q42 0 73 7.5t59 24.5t55.5 44t62.5 66z" />
    <glyph glyph-name="oacute" unicode="&#xf3;" horiz-adv-x="1188" 
d="M1141 514q0 -114 -43 -213t-117 -173t-173.5 -116.5t-213.5 -42.5t-213.5 42.5t-173.5 116.5t-117 173t-43 213t43 213.5t117 173.5t173.5 117t213.5 43t213.5 -43t173.5 -117t117 -173.5t43 -213.5zM713 526q0 42 -5.5 91t-19.5 91t-37 69.5t-57 27.5q-37 0 -61.5 -27.5
t-39 -69t-20.5 -90.5t-6 -92q0 -46 5.5 -98t19.5 -96.5t39 -73.5t63 -29q32 0 54.5 29.5t37 74t21 96.5t6.5 97zM971 1382l-633 -237l-47 80l524 424z" />
    <glyph glyph-name="ograve" unicode="&#xf2;" horiz-adv-x="1188" 
d="M1141 514q0 -114 -43 -213t-117 -173t-173.5 -116.5t-213.5 -42.5t-213.5 42.5t-173.5 116.5t-117 173t-43 213t43 213.5t117 173.5t173.5 117t213.5 43t213.5 -43t173.5 -117t117 -173.5t43 -213.5zM713 526q0 42 -5.5 91t-19.5 91t-37 69.5t-57 27.5q-37 0 -61.5 -27.5
t-39 -69t-20.5 -90.5t-6 -92q0 -46 5.5 -98t19.5 -96.5t39 -73.5t63 -29q32 0 54.5 29.5t37 74t21 96.5t6.5 97zM930 1225l-47 -80l-633 237l156 267z" />
    <glyph glyph-name="ocircumflex" unicode="&#xf4;" horiz-adv-x="1188" 
d="M1141 514q0 -114 -43 -213t-117 -173t-173.5 -116.5t-213.5 -42.5t-213.5 42.5t-173.5 116.5t-117 173t-43 213t43 213.5t117 173.5t173.5 117t213.5 43t213.5 -43t173.5 -117t117 -173.5t43 -213.5zM713 526q0 42 -5.5 91t-19.5 91t-37 69.5t-57 27.5q-37 0 -61.5 -27.5
t-39 -69t-20.5 -90.5t-6 -92q0 -46 5.5 -98t19.5 -96.5t39 -73.5t63 -29q32 0 54.5 29.5t37 74t21 96.5t6.5 97zM1117 1216l-49 -62l-457 248l-461 -248l-47 62l420 414h168z" />
    <glyph glyph-name="odieresis" unicode="&#xf6;" horiz-adv-x="1188" 
d="M1141 514q0 -114 -43 -213t-117 -173t-173.5 -116.5t-213.5 -42.5t-213.5 42.5t-173.5 116.5t-117 173t-43 213t43 213.5t117 173.5t173.5 117t213.5 43t213.5 -43t173.5 -117t117 -173.5t43 -213.5zM713 526q0 42 -5.5 91t-19.5 91t-37 69.5t-57 27.5q-37 0 -61.5 -27.5
t-39 -69t-20.5 -90.5t-6 -92q0 -46 5.5 -98t19.5 -96.5t39 -73.5t63 -29q32 0 54.5 29.5t37 74t21 96.5t6.5 97zM1083 1379q0 -42 -16.5 -77t-45.5 -61t-67.5 -40.5t-83.5 -14.5q-32 0 -64 12t-57.5 33t-41 48t-15.5 57q0 41 18.5 75.5t49.5 59.5t70.5 39t80.5 14
q29 0 59.5 -11t55.5 -30t41 -46t16 -58zM516 1379q0 -42 -16 -77t-44.5 -61t-67 -40.5t-83.5 -14.5q-32 0 -64.5 12t-58 33t-41.5 48t-16 57q0 41 18.5 75.5t49.5 59.5t70.5 39t80.5 14q30 0 60.5 -11t55.5 -30t40.5 -46t15.5 -58z" />
    <glyph glyph-name="otilde" unicode="&#xf5;" horiz-adv-x="1188" 
d="M1141 514q0 -114 -43 -213t-117 -173t-173.5 -116.5t-213.5 -42.5t-213.5 42.5t-173.5 116.5t-117 173t-43 213t43 213.5t117 173.5t173.5 117t213.5 43t213.5 -43t173.5 -117t117 -173.5t43 -213.5zM713 526q0 42 -5.5 91t-19.5 91t-37 69.5t-57 27.5q-37 0 -61.5 -27.5
t-39 -69t-20.5 -90.5t-6 -92q0 -46 5.5 -98t19.5 -96.5t39 -73.5t63 -29q32 0 54.5 29.5t37 74t21 96.5t6.5 97zM1188 1422q-54 -63 -107 -116.5t-106 -92t-105.5 -60.5t-105.5 -22q-27 0 -57.5 12.5t-62.5 30.5t-64.5 40t-63 40t-57.5 30.5t-49 12.5q-39 0 -70.5 -8.5
t-61.5 -26.5t-60 -45.5t-64 -65.5l-72 90q54 63 106 116.5t103.5 92t105 60.5t111.5 22q25 0 54.5 -12t61 -30.5t63.5 -39.5t63 -39.5t60 -30.5t54 -12q42 0 73 7.5t59 24.5t55.5 44t62.5 66z" />
    <glyph glyph-name="uacute" unicode="&#xfa;" horiz-adv-x="1313" 
d="M1280 25l-496 -48v183q-15 -35 -45.5 -70t-74 -63t-97.5 -45t-116 -17q-59 0 -111.5 21.5t-91.5 60.5t-61.5 93.5t-22.5 119.5v389q0 29 -4 38t-17 9q-8 0 -24.5 -3t-30.5 -11l-63 258l528 123v-666q0 -35 1.5 -60t8.5 -41t20.5 -24t37.5 -8q27 0 52.5 18.5t44.5 47.5
t30.5 64t11.5 69v190q0 29 -9 36t-18 7q-6 0 -16 -3t-23 -11l-65 258l520 123v-748q0 -47 33 -47q6 0 18.5 0.5t26 2t25.5 3.5t16 5q2 -67 4 -122q1 -23 2 -45.5t2 -41t2 -30.5t2 -15zM1022 1382l-633 -237l-47 80l524 424z" />
    <glyph glyph-name="ugrave" unicode="&#xf9;" horiz-adv-x="1313" 
d="M1280 25l-496 -48v183q-15 -35 -45.5 -70t-74 -63t-97.5 -45t-116 -17q-59 0 -111.5 21.5t-91.5 60.5t-61.5 93.5t-22.5 119.5v389q0 29 -4 38t-17 9q-8 0 -24.5 -3t-30.5 -11l-63 258l528 123v-666q0 -35 1.5 -60t8.5 -41t20.5 -24t37.5 -8q27 0 52.5 18.5t44.5 47.5
t30.5 64t11.5 69v190q0 29 -9 36t-18 7q-6 0 -16 -3t-23 -11l-65 258l520 123v-748q0 -47 33 -47q6 0 18.5 0.5t26 2t25.5 3.5t16 5q2 -67 4 -122q1 -23 2 -45.5t2 -41t2 -30.5t2 -15zM965 1225l-47 -80l-633 237l156 267z" />
    <glyph glyph-name="ucircumflex" unicode="&#xfb;" horiz-adv-x="1313" 
d="M1280 25l-496 -48v183q-15 -35 -45.5 -70t-74 -63t-97.5 -45t-116 -17q-59 0 -111.5 21.5t-91.5 60.5t-61.5 93.5t-22.5 119.5v389q0 29 -4 38t-17 9q-8 0 -24.5 -3t-30.5 -11l-63 258l528 123v-666q0 -35 1.5 -60t8.5 -41t20.5 -24t37.5 -8q27 0 52.5 18.5t44.5 47.5
t30.5 64t11.5 69v190q0 29 -9 36t-18 7q-6 0 -16 -3t-23 -11l-65 258l520 123v-748q0 -47 33 -47q6 0 18.5 0.5t26 2t25.5 3.5t16 5q2 -67 4 -122q1 -23 2 -45.5t2 -41t2 -30.5t2 -15zM1135 1214l-49 -62l-457 248l-461 -248l-47 62l420 414h168z" />
    <glyph glyph-name="udieresis" unicode="&#xfc;" horiz-adv-x="1313" 
d="M1280 25l-496 -48v183q-15 -35 -45.5 -70t-74 -63t-97.5 -45t-116 -17q-59 0 -111.5 21.5t-91.5 60.5t-61.5 93.5t-22.5 119.5v389q0 29 -4 38t-17 9q-8 0 -24.5 -3t-30.5 -11l-63 258l528 123v-666q0 -35 1.5 -60t8.5 -41t20.5 -24t37.5 -8q27 0 52.5 18.5t44.5 47.5
t30.5 64t11.5 69v190q0 29 -9 36t-18 7q-6 0 -16 -3t-23 -11l-65 258l520 123v-748q0 -47 33 -47q6 0 18.5 0.5t26 2t25.5 3.5t16 5q2 -67 4 -122q1 -23 2 -45.5t2 -41t2 -30.5t2 -15zM1134 1377q0 -42 -16.5 -77t-45.5 -61t-67.5 -40.5t-83.5 -14.5q-32 0 -64 12t-57.5 33
t-41 48t-15.5 57q0 41 18.5 75.5t49.5 59.5t70.5 39t80.5 14q29 0 59.5 -11t55.5 -30t41 -46t16 -58zM567 1377q0 -42 -16 -77t-44.5 -61t-67 -40.5t-83.5 -14.5q-32 0 -64.5 12t-58 33t-41.5 48t-16 57q0 41 18.5 75.5t49.5 59.5t70.5 39t80.5 14q30 0 60.5 -11t55.5 -30
t40.5 -46t15.5 -58z" />
    <glyph glyph-name="dagger" unicode="&#x2020;" horiz-adv-x="1135" 
d="M1073 788q-76 35 -146 62q-30 12 -61 23t-60.5 20t-55.5 14.5t-45 5.5q1 -37 6.5 -89.5t13.5 -103.5t18.5 -91.5t22.5 -53.5q-10 -9 -20 -61t-20 -130.5t-19.5 -175.5t-17.5 -197q-19 -235 -38 -527h-151q-19 292 -38 527q-8 100 -17.5 197t-19.5 175.5t-20.5 130.5
t-19.5 61q8 9 15.5 30.5t14 51t12 64t9.5 69t6.5 66.5t3.5 57q-19 0 -45 -5.5t-55.5 -14.5t-60.5 -20t-61 -23q-70 -27 -146 -62v459q78 -36 148 -63q30 -12 61.5 -23t60.5 -19.5t54.5 -14t43.5 -5.5q0 19 -4.5 47t-12 61t-16.5 68.5t-19 69.5q-23 80 -52 168h467
q-29 -90 -52 -170q-10 -34 -19 -69.5t-16.5 -68t-12 -60.5t-4.5 -46q18 0 43.5 5.5t54.5 14t60.5 19.5t61.5 23q70 27 148 63v-459z" />
    <glyph glyph-name="degree" unicode="&#xb0;" horiz-adv-x="719" 
d="M616 1327q0 -54 -20 -100t-55 -80.5t-82 -54t-101 -19.5q-53 0 -99.5 19.5t-81.5 54t-55 80.5t-20 100t20 100.5t55 81t81.5 54.5t99.5 20q54 0 101 -20t82 -54.5t55 -81t20 -100.5zM487 1327q0 27 -10 50t-27.5 39.5t-41 26t-50.5 9.5t-49.5 -9.5t-39.5 -26t-26.5 -39.5
t-9.5 -50t9.5 -51t26.5 -42.5t39.5 -29t49.5 -10.5t50.5 10.5t41 29t27.5 42.5t10 51z" />
    <glyph glyph-name="cent" unicode="&#xa2;" horiz-adv-x="1196" 
d="M1102 436q-42 -37 -84.5 -70.5t-89 -61.5t-98 -49t-109.5 -32v-223h-184v217q-116 17 -204 69.5t-147 126.5t-88.5 163.5t-29.5 181.5q0 93 31.5 186t91.5 169.5t147.5 128.5t198.5 63v231h184v-244q2 0 4 -2t4 -2q32 -9 47 -14.5t35 -5.5q12 0 18.5 2t10 6.5t5.5 12
t5 18.5l237 -33l-53 -416l-252 31q7 24 9 47q2 20 -1.5 41.5t-17.5 38.5q-15 18 -29 27t-27.5 13t-27 4.5t-26.5 0.5q-32 0 -62.5 -21t-54.5 -56t-38.5 -80t-14.5 -93q0 -69 17.5 -125.5t46.5 -97t66.5 -62.5t77.5 -22q66 0 127.5 35t126.5 94z" />
    <glyph glyph-name="sterling" unicode="&#xa3;" horiz-adv-x="1343" 
d="M1276 449l-150 -449h-901l-127 174q40 50 72 95.5t56 93t41 99t26 113.5h-209l33 209h137q-10 36 -24 74t-26.5 79.5t-21 87.5t-8.5 99q0 86 21.5 153.5t59 118.5t89.5 86.5t112.5 58t127.5 32.5t135 10q54 0 103.5 -9t93 -23.5t81 -33.5t67.5 -38q71 -46 126 -103
l-172 -207q-31 36 -70 65q-33 25 -78.5 45.5t-99.5 20.5q-36 0 -65 -14.5t-50 -39.5t-32 -59.5t-11 -74.5q0 -26 10 -62.5t22.5 -80t24.5 -91t17 -94.5h242l-33 -209h-227q-9 -28 -20.5 -57.5t-27 -59.5t-37.5 -60t-53 -58q69 -2 139 -2q60 -1 128.5 0t126.5 4
q28 1 51.5 20.5t41.5 47.5t29 59t15 55z" />
    <glyph glyph-name="section" unicode="&#xa7;" horiz-adv-x="1065" 
d="M1001 522q0 -51 -17.5 -100t-49 -93.5t-75 -82.5t-95.5 -68q64 -64 100 -110t54 -86.5t22 -81.5t4 -93q0 -68 -28.5 -129t-81 -107t-127.5 -72.5t-168 -26.5q-65 0 -132 10t-122 23q-64 15 -125 34l61 334l213 -41q-6 -26 -9 -45.5t-3 -44.5q0 -11 6.5 -23t17 -22
t25 -16.5t29.5 -6.5q51 0 73.5 21.5t22.5 52.5q0 23 -3 44.5t-15 46t-35 55t-62 71.5q-10 10 -30 29.5t-44.5 43t-52 49.5t-52 49.5t-43.5 41.5t-28 27q-44 44 -72.5 84t-45.5 81.5t-24 86t-7 96.5q0 60 22 112t56.5 94t76.5 74t82 52q-63 64 -100 109t-55.5 85.5t-23.5 83
t-5 101.5q0 68 27.5 127.5t79 104t125.5 70t168 25.5q65 0 133 -10.5t125 -22.5q66 -14 129 -32l-60 -332l-219 39q11 25 13.5 48t2.5 48q0 11 -6.5 22t-17.5 20t-25.5 14.5t-29.5 5.5q-51 0 -73 -22.5t-22 -53.5q0 -23 4 -45t16.5 -46.5t36 -55.5t62.5 -72q10 -10 29.5 -30
t44 -44.5t52 -51t51.5 -50.5t43 -42.5t28 -27.5q44 -44 72.5 -81t45.5 -74.5t24 -79t7 -93.5zM639 461q0 32 -12 62.5t-33.5 62t-51 64t-63.5 69.5q-11 -15 -18.5 -25.5t-12 -22t-6.5 -27.5t-2 -42q0 -32 13 -62.5t36 -61.5t54 -63t67 -67q5 9 10 17.5t9.5 21t7 30.5t2.5 44
z" />
    <glyph glyph-name="bullet" unicode="&#x2022;" horiz-adv-x="1057" 
d="M954 768q0 -87 -33.5 -165t-92 -136.5t-136.5 -92.5t-166 -34q-87 0 -164.5 34t-135 92.5t-91 136.5t-33.5 165q0 88 33.5 166.5t91 137t135 92.5t164.5 34q88 0 166 -34t136.5 -92.5t92 -137t33.5 -166.5z" />
    <glyph glyph-name="paragraph" unicode="&#xb6;" horiz-adv-x="1741" 
d="M1640 1274h-75q-48 0 -68 -23t-20 -82v-1579h-932v263h231q48 0 68 22.5t20 81.5v408h-190q-111 0 -196.5 22t-148 61t-105 92.5t-68.5 116.5t-37.5 133t-12.5 142q-1 69 14 141t45.5 139t77.5 126t111 103t146 69.5t182 25.5h958v-262zM1229 -147v1421h-123v-1421h123z
M881 586v688h-62q-33 0 -57 -15.5t-41 -42t-27.5 -61t-16 -72.5t-7.5 -76.5t-2 -72.5q0 -62 4.5 -124t20.5 -111.5t45.5 -81t80.5 -31.5h62z" />
    <glyph glyph-name="germandbls" unicode="&#xdf;" horiz-adv-x="1739" 
d="M1683 305q0 -65 -21.5 -123.5t-63 -102.5t-102 -69.5t-138.5 -25.5q-48 0 -84.5 9t-64 19.5t-46.5 19.5t-30 9q-16 0 -22 -10.5t5 -26.5l-223 -106l-188 397l239 113q14 -32 30 -60.5t36 -50t44.5 -34.5t55.5 -13q12 0 26 3t25.5 11t19 21t7.5 34q0 26 -25 55t-62.5 61
t-81.5 68.5t-81.5 77t-62.5 87t-25 98.5q0 51 12.5 93.5t27.5 80.5t27.5 72t12.5 67q0 53 -12.5 100t-38 82t-63 55.5t-87.5 20.5q-60 0 -94.5 -32.5t-34.5 -100.5v-866q0 -35 12 -55.5t43 -20.5q7 0 23 1t24 3v-266h-598v268q3 -1 10 -1.5l14 -1t13 -1t9 -0.5q15 0 26 2
t17.5 9t10 20t3.5 35v420h-98v268h98v106q0 98 33.5 181t99.5 143t163.5 93.5t225.5 33.5q136 0 240.5 -29t176 -82.5t108 -129t36.5 -169.5q0 -51 -14 -94.5t-30.5 -81t-30 -71t-13.5 -64.5q0 -32 16 -57.5t45 -50.5t70 -51.5t92 -59.5q58 -39 106 -72.5t81.5 -70.5
t52 -81.5t18.5 -105.5z" />
    <glyph glyph-name="registered" unicode="&#xae;" horiz-adv-x="1516" 
d="M1458 883q0 -96 -25 -185.5t-71 -167.5t-110 -142t-141.5 -110t-167 -71t-185.5 -25t-185.5 25t-167.5 71t-142 110t-110 142t-71 167.5t-25 185.5t25 185.5t71 167t110 141.5t142 110t167.5 71t185.5 25t185.5 -25t167 -71t141.5 -110t110 -141.5t71 -167t25 -185.5z
M1354 883q0 124 -46.5 232.5t-127 189.5t-189.5 127.5t-233 46.5q-125 0 -233.5 -46.5t-189 -127.5t-127 -189.5t-46.5 -232.5q0 -125 46.5 -233.5t127 -189t189 -127t233.5 -46.5q124 0 233 46.5t189.5 127t127 189t46.5 233.5zM1219 549l-84 -96q-73 38 -132.5 88
t-104.5 102.5t-76.5 103t-49.5 89.5h-43v-97q0 -23 7.5 -35t29.5 -12h37v-143h-406v143h37q45 0 45 47v385q0 29 -10 39.5t-35 10.5h-37v143h477q75 0 130 -18.5t91 -49t53 -71.5t17 -86q0 -34 -12 -66t-31.5 -58.5t-44.5 -46t-51 -28.5q23 -56 42.5 -100.5t40.5 -84
t47.5 -77.5t62.5 -82zM905 1085q0 41 -33.5 65t-95.5 24h-47v-201h35q75 0 108 27t33 85z" />
    <glyph glyph-name="copyright" unicode="&#xa9;" horiz-adv-x="1516" 
d="M1458 883q0 -96 -25 -185.5t-71 -167.5t-110 -142t-141.5 -110t-167 -71t-185.5 -25t-185.5 25t-167.5 71t-142 110t-110 142t-71 167.5t-25 185.5t25 185.5t71 167t110 141.5t142 110t167.5 71t185.5 25t185.5 -25t167 -71t141.5 -110t110 -141.5t71 -167t25 -185.5z
M1354 883q0 124 -46.5 232.5t-127 189.5t-189.5 127.5t-233 46.5q-125 0 -233.5 -46.5t-189 -127.5t-127 -189.5t-46.5 -232.5q0 -125 46.5 -233.5t127 -189t189 -127t233.5 -46.5q124 0 233 46.5t189.5 127t127 189t46.5 233.5zM1108 635q-41 -41 -95 -73
q-46 -28 -110 -50.5t-143 -22.5q-88 0 -160.5 29t-124.5 82.5t-81 129t-29 169.5q0 89 33 162.5t90 126t133 81.5t161 29q24 0 42.5 -3t33 -6.5t27 -7.5t24.5 -5q8 0 17.5 2.5t9.5 17.5l135 -20l-33 -238l-139 23v27l-2 22t-6 18q-16 23 -38 30t-56 7q-42 0 -76 -19
t-57 -49.5t-35.5 -68.5t-12.5 -76q0 -66 18.5 -120t49 -92.5t68.5 -59.5t77 -21q35 0 63 7t52 18.5t44.5 27t39.5 33.5z" />
    <glyph glyph-name="trademark" unicode="&#x2122;" horiz-adv-x="2097" 
d="M2019 1399h-45q-41 0 -41 -58v-378q0 -20 12.5 -34t30.5 -14h39v-143h-395v143h25q45 0 45 58v231q0 6 1.5 13t4.5 28q-12 -30 -24 -63q-11 -29 -25 -66t-29 -78q-23 -60 -43.5 -110.5t-36.5 -93.5q-6 -19 -8.5 -35t0.5 -27h-164q-13 33 -27 70q-12 32 -27.5 72.5
t-31.5 82.5q-20 51 -38 99.5t-32 83.5q-5 11 -7.5 18t-4 13.5t-3 14t-3.5 19.5v-278q0 -22 10 -37t33 -15h31v-143h-336v143h43q17 0 28 10.5t11 28.5v375q0 68 -56 68h-30v143h409q0 -14 2.5 -28.5t10.5 -32.5q8 -21 18.5 -48t22 -57t24 -61.5t23.5 -61.5q26 -70 55 -145
q35 96 64 174q12 33 24.5 66t22 60t16 45.5t8.5 23.5q6 15 9.5 34t0.5 31h383v-141zM887 1544l-33 -248l-137 19q6 18 2.5 34.5t-8.5 24.5t-25.5 13.5t-36.5 5.5h-71v-430q0 -29 11.5 -38.5t33.5 -9.5h41v-143h-422v143h47q20 0 33.5 9.5t13.5 38.5v430h-60q-44 0 -69 -20
t-35 -75l-129 11l31 256q33 -8 63 -13q26 -5 51 -8.5t37 -3.5h500q19 0 27.5 5.5t11.5 19.5z" />
    <glyph glyph-name="acute" unicode="&#xb4;" 
d="M977 1339l-633 -237l-47 80l524 424z" />
    <glyph glyph-name="dieresis" unicode="&#xa8;" 
d="M1128 1436q0 -42 -16.5 -77t-45.5 -61t-67.5 -40.5t-83.5 -14.5q-32 0 -64 12t-57.5 33t-41 48t-15.5 57q0 41 18.5 75.5t49.5 59.5t70.5 39t80.5 14q29 0 59.5 -11t55.5 -30t41 -46t16 -58zM561 1436q0 -42 -16 -77t-44.5 -61t-67 -40.5t-83.5 -14.5q-32 0 -64.5 12
t-58 33t-41.5 48t-16 57q0 41 18.5 75.5t49.5 59.5t70.5 39t80.5 14q30 0 60.5 -11t55.5 -30t40.5 -46t15.5 -58z" />
    <glyph glyph-name="AE" unicode="&#xc6;" horiz-adv-x="2445" 
d="M2386 475l-84 -508q-16 7 -52 13t-83.5 10.5t-100.5 7t-104 2.5h-1059v287h72q49 0 75.5 22.5t26.5 81.5h-469q-23 -26 -33 -51q-3 -20 5.5 -36.5t37.5 -16.5h76v-287h-671v287h106q25 0 44.5 6.5t38 23t39.5 44.5t50 71q22 33 57 84.5t77.5 114.5t91 134.5t98.5 145.5
t99 146.5t93 138.5q22 32 6 44.5t-53 4.5v291h1247q28 0 48.5 10.5t25.5 42.5l258 -33l-61 -456l-273 28q6 12 6.5 32t-9 40t-31 34.5t-60.5 14.5h-367v-311h230q28 0 46.5 2.5t30 9.5t17.5 19.5t8 31.5l223 -34l-49 -410l-237 37q3 17 4 33t-8 30q-10 14 -34 17.5t-50 3.5
h-181v-387h334q69 0 109.5 13.5t65.5 41t39.5 69t29.5 97.5zM1077 653v449l-299 -449h299z" />
    <glyph glyph-name="Oslash" unicode="&#xd8;" horiz-adv-x="1724" 
d="M1669 766q0 -113 -29 -217.5t-82 -194.5t-127 -164t-163.5 -126.5t-193 -81.5t-214.5 -29q-85 0 -163 16t-150 47l-127 -221l-123 74l121 215q-82 54 -149 127t-114.5 160.5t-73.5 187t-26 207.5q0 113 28.5 217t80.5 195t125 165.5t162.5 128t193 82.5t215.5 29
q102 0 192 -22t171 -60l106 187l131 -74l-110 -195q75 -57 134 -131t100.5 -158.5t63 -177t21.5 -186.5zM1040 1182q-27 52 -72 84t-110 32q-56 0 -96.5 -23.5t-69 -63t-46 -92.5t-27.5 -112.5t-13.5 -121t-3.5 -119.5q0 -72 7 -151t26 -148zM1114 762q0 54 -2 110.5
t-10 112.5l-389 -678q28 -31 63.5 -48t81.5 -17q55 0 95 23t68.5 61.5t46.5 90.5t28 109.5t14 118t4 117.5z" />
    <glyph glyph-name="yen" unicode="&#xa5;" horiz-adv-x="1696" 
d="M1671 1245q-8 1 -18.5 2t-21 1.5t-20 0.5h-14.5q-34 0 -58.5 -13.5t-53.5 -53.5l-279 -385h213l-47 -172h-252v-76h299l-45 -166h-256q0 -15 4.5 -31.5t13 -31t21 -24t29.5 -9.5q18 0 30.5 0.5t23 1t21.5 1t27 1.5v-291h-825v291q23 -3 45 -3.5t41 -0.5q24 0 40 7.5
t25.5 20t14 28.5t4.5 34h-307l47 172h260v76h-305l47 172h145q-41 49 -74 89t-66.5 80.5t-71.5 87t-89 109.5q-32 42 -71 64t-74 22q-14 0 -23 -1t-26 -3v291h901v-291q-16 2 -26 3t-30 1q-26 0 -37.5 -6.5t-11.5 -28.5q0 -14 10 -26.5t21 -26.5q3 -5 11.5 -15.5t19.5 -24.5
t24 -31l26 -34q31 -40 68 -87q37 53 67 97q13 19 25.5 37t23 33t17.5 26t9 14q25 40 22 56.5t-32 16.5q-32 0 -51.5 -1t-34.5 -3v291h624v-291z" />
    <glyph glyph-name="ordfeminine" unicode="&#xaa;" horiz-adv-x="891" 
d="M817 868l-346 -32v114q-12 -24 -32.5 -46.5t-46.5 -40t-55.5 -28t-60.5 -10.5q-57 0 -98 24t-65 64q-35 53 -35 125q0 42 14.5 79.5t41 68.5t64.5 54.5t85 37.5q40 12 83.5 16t90.5 4q0 56 -17.5 77.5t-60.5 21.5q-12 0 -29 -3.5t-35 -10.5t-36.5 -16t-34.5 -19l-80 145
q24 16 57.5 32t73 29t85 21t93.5 8q130 0 192 -57.5t62 -163.5v-281q0 -28 2.5 -35.5t11.5 -7.5q3 0 14 0.5t22 2.5q13 1 30 3zM854 545h-805v190h805v-190zM451 1100v65q-36 0 -58.5 -6t-35.5 -16t-18 -23.5t-5 -27.5q0 -10 3 -21t9.5 -20t16.5 -15t24 -6q23 0 40 22t24 48
z" />
    <glyph glyph-name="ordmasculine" unicode="&#xba;" horiz-adv-x="891" 
d="M831 1204q0 -80 -30 -150t-82 -121.5t-121.5 -81.5t-148.5 -30q-80 0 -150 30t-121.5 81.5t-81.5 121.5t-30 150q0 79 30 148.5t81.5 121t121.5 81.5t150 30q79 0 148.5 -30t121.5 -81.5t82 -121t30 -148.5zM827 545h-759v190h759v-190zM530 1212q0 29 -4 63t-13 63.5
t-24.5 49t-39.5 19.5q-26 0 -43.5 -19t-28 -48.5t-15 -63.5t-4.5 -64q0 -32 4 -68.5t14.5 -67.5t28 -51.5t44.5 -20.5q22 0 37.5 20.5t25 52t14 67.5t4.5 68z" />
    <glyph glyph-name="ae" unicode="&#xe6;" horiz-adv-x="1710" 
d="M1657 182q-18 -14 -35 -28q-15 -12 -31 -25t-28 -23q-75 -61 -178 -100t-228 -39q-61 0 -115.5 6t-104 21.5t-95 42t-88.5 67.5l-37 39q-26 -33 -66 -65.5t-91.5 -58t-111.5 -41t-124 -15.5q-69 0 -122 24.5t-89 66t-55 96.5t-19 116q0 59 21 113t59.5 98.5t93 78.5
t121.5 54q56 17 119 23t129 6q0 40 -6 66.5t-19 42.5t-35 23t-53 7q-17 0 -40 -5t-49 -14t-52 -22t-49 -28l-115 209q34 22 81.5 45t104.5 41.5t121.5 30.5t134.5 12q76 0 135 -15t103 -43q62 35 133 54.5t151 19.5q118 0 210.5 -39t157.5 -102t103.5 -141.5t49.5 -157.5
l-557 -299q4 -12 19 -28.5t35.5 -30.5t44.5 -24t46 -10q42 0 82 15.5t75 38t63.5 48t49.5 46.5zM1225 711q-13 38 -42 66t-75 28q-21 0 -43 -9.5t-41 -27t-31 -43t-12 -57.5q0 -31 3 -52t8 -35q5 -16 12 -26q49 27 91 51q18 10 36.5 20.5t35 20t29.5 17t21 12.5q9 6 10 16.5
t-2 18.5zM573 354v95q-51 0 -83 -8.5t-51 -23t-26 -33.5t-7 -40q0 -15 4.5 -30.5t13.5 -28t23.5 -21t35.5 -8.5q16 0 30.5 8.5t26 22t20 31.5t13.5 36z" />
    <glyph glyph-name="oslash" unicode="&#xf8;" horiz-adv-x="1188" 
d="M1141 514q0 -114 -43 -213t-117 -173t-173.5 -116.5t-213.5 -42.5q-56 0 -108.5 10.5t-100.5 30.5l-78 -137l-106 70l73 129q-51 37 -93 84.5t-72 104t-46 120.5t-16 133q0 114 43 213.5t117 173.5t173.5 117t213.5 43q57 0 110 -12.5t103 -32.5l70 123l110 -62l-69 -123
q51 -37 92 -84.5t70 -104t45 -120t16 -131.5zM664 762q-14 20 -31 31.5t-39 11.5q-37 0 -61.5 -27.5t-39 -69t-20.5 -90.5t-6 -92q0 -24 3 -50t3 -52zM713 526q0 14 -0.5 29t-3.5 31l-183 -324q14 -15 31 -24t37 -9q32 0 54.5 29.5t37 74t21 96.5t6.5 97z" />
    <glyph glyph-name="questiondown" unicode="&#xbf;" horiz-adv-x="1133" 
d="M46.0654 339.072q0 87.9941 39.998 165.99q39.9971 77.9951 104.993 147.99q62.9961 64.9961 141.491 115.993t161.49 87.9951l11 153.99l203.987 77.9951l59.9961 -362.978q-57.9961 -24.999 -109.993 -54.9971t-89.9941 -68.9951q-37.998 -38.998 -60.4971 -89.4951
q-22.498 -50.4971 -22.498 -115.493q0 -39.9971 13.499 -68.9951q13.499 -28.999 35.998 -47.4971q22.498 -18.499 50.4971 -26.999q27.998 -8.49902 55.9961 -8.49902q45.9971 0 87.9951 18.999q41.9971 18.999 73.9951 41.9971q37.998 25.998 70.9961 59.9961
l173.989 -196.987q-58.9971 -63.9961 -135.992 -114.993q-32.998 -21.999 -72.4951 -42.498q-39.498 -20.498 -85.9951 -36.9971t-98.9941 -26.499q-52.4971 -9.99902 -110.493 -9.99902q-116.993 0 -209.487 27.998q-92.4941 27.999 -156.99 79.9951
q-64.4961 51.9971 -98.4941 126.492q-33.998 74.4961 -33.998 166.49zM408.044 1367.01q0 40.9971 15.999 75.9951t44.4971 60.4961q28.498 25.499 66.9961 39.998q38.4971 14.499 83.4951 14.499q31.998 0 63.9961 -12q31.998 -11.999 57.4961 -32.9971
q25.498 -20.999 40.9971 -48.4971q15.499 -27.499 15.499 -58.4971q0 -39.9971 -18.498 -74.4951q-18.499 -34.498 -48.9971 -58.9961q-30.499 -24.499 -69.4961 -38.498q-38.998 -13.999 -79.9951 -13.999q-29.998 0 -60.4961 10.999q-30.498 11 -55.4971 30.998
q-24.998 19.999 -40.4971 46.9971q-15.499 26.999 -15.499 57.9971z" />
    <glyph glyph-name="exclamdown" unicode="&#xa1;" horiz-adv-x="684" 
d="M114.034 -34.9023q24.999 237.985 45.9971 447.973q9 89.9941 18.499 182.988q9.5 92.9951 18.499 177.489q8.99902 84.4951 16.499 155.991q7.49902 71.4951 12.499 118.492l200.988 73.9961q7.99902 -55.9971 18.498 -126.493q10.5 -70.4951 21.999 -144.991
q11.499 -74.4951 22.499 -148.99q10.999 -74.4961 20.498 -137.992q9.5 -63.4961 16.999 -111.993q7.5 -48.4971 10.5 -71.4951q4.99902 -31.998 14.499 -45.4971q9.49902 -13.499 28.498 -13.499q8.99902 0 23.498 2.99902q14.5 3 23.499 5v-267.983zM122.034 1394.01
q0 40.998 15.999 75.9961t44.4971 60.4961t66.9961 39.998q38.4971 14.498 83.4951 14.498q31.998 0 63.9961 -11.999t57.4961 -32.998q25.498 -20.998 40.9971 -48.4971q15.499 -27.498 15.499 -58.4961q0 -40.9971 -18.498 -74.9951q-18.499 -33.998 -48.9971 -58.9971
q-30.499 -24.998 -69.4961 -38.4971q-38.998 -13.499 -79.9951 -13.499q-29.998 0 -60.4961 10.999t-55.4971 30.998q-24.998 19.999 -40.4971 46.9971t-15.499 57.9961z" />
    <glyph glyph-name="radical" unicode="&#x221a;" horiz-adv-x="1151" 
d="M1112 1536l-514 -1538h-90q-26 36 -54 72q-25 31 -56 67t-64 68q-20 18 -41 31t-39.5 22.5t-34 17.5t-24.5 17q-14 12 -24.5 8.5t-16.5 -12.5q-5 -6 -10 -13l-10 -14q-5 -8 -11 -16l-98 78l213 407q30 -19 61 -38q26 -17 55 -38t52 -41q26 -23 52.5 -54.5t49.5 -60.5
q26 -33 51 -69l395 1172z" />
    <glyph glyph-name="florin" unicode="&#x192;" horiz-adv-x="1190" 
d="M1155 1507l-43 -340l-219 25q3 7 5 20t2 28t-1.5 29t-5.5 25q-6 19 -27 31t-55 12q-22 0 -38.5 -11t-27.5 -29.5t-16.5 -42.5t-5.5 -50v-184h225l-53 -295q-7 7 -19.5 12t-26.5 8t-27.5 4t-20.5 1h-78v-830q0 -114 -33 -198.5t-92.5 -140.5t-143 -83.5t-184.5 -27.5
q-65 0 -117.5 6t-97 15.5t-82 21.5t-71.5 24l43 340l219 -24q-3 -8 -5 -21t-2 -27.5t1.5 -29t5.5 -25.5q6 -18 27 -30.5t55 -12.5q22 0 38 11t26 29.5t15 42.5t5 50v910h-99v270h99v104q0 114 33.5 198.5t94 140.5t144 84t184.5 28q64 0 117.5 -6t98 -15.5t82 -22
t71.5 -24.5z" />
    <glyph glyph-name="guillemotleft" unicode="&#xab;" horiz-adv-x="1188" 
d="M1122 113l-524 344v143l524 340v-235l-266 -177l266 -176v-239zM598 113l-524 344v143l524 340v-235l-266 -177l266 -176v-239z" />
    <glyph glyph-name="guillemotright" unicode="&#xbb;" horiz-adv-x="1188" 
d="M1114 457l-524 -344v239l266 176l-266 177v235l524 -340v-143zM590 457l-524 -344v239l266 176l-266 177v235l524 -340v-143z" />
    <glyph glyph-name="ellipsis" unicode="&#x2026;" horiz-adv-x="1597" 
d="M1493 162q0 -41 -16.5 -76t-45 -60.5t-67.5 -40t-84 -14.5q-32 0 -63 12t-56.5 33t-41 48.5t-15.5 58.5q0 40 18.5 74.5t48.5 59t69 38.5t81 14q30 0 60.5 -11t55.5 -31t40.5 -47t15.5 -58zM997 162q0 -41 -16.5 -76t-45.5 -60.5t-67.5 -40t-83.5 -14.5q-32 0 -63 12
t-56.5 33t-41 48.5t-15.5 58.5q0 40 18.5 74.5t49 59t69.5 38.5t80 14q29 0 59.5 -11t55.5 -31t41 -47t16 -58zM492 162q0 -41 -16.5 -76t-45 -60.5t-67 -40t-82.5 -14.5q-32 0 -64 12t-57.5 33t-41.5 48.5t-16 58.5q0 40 18.5 74.5t49.5 59t69.5 38.5t79.5 14q30 0 61 -11
t55.5 -31t40.5 -47t16 -58z" />
    <glyph glyph-name="Agrave" unicode="&#xc0;" horiz-adv-x="1642" 
d="M1620 0h-752v287h47q21 0 32 4t15 11t3 16.5t-4 19.5q-7 18 -13 33t-14 20h-438q-8 -14 -11 -26.5t-6 -24.5q-5 -18 -2 -28.5t10.5 -16t19 -7t25.5 -1.5h41v-287h-550v287h45q24 0 39 6.5t26.5 23t22.5 44.5t28 71l379 983q9 25 15 41t8.5 28.5t2.5 24t-1 27.5h379
q117 -266 216 -492q42 -96 85 -193.5t80.5 -182t66 -150t43.5 -98.5q21 -47 33.5 -73.5t24.5 -40t25.5 -16.5t35.5 -3h43v-287zM836 653q-28 62 -51 116l-20 46t-18.5 43t-15.5 36t-10 24q-6 12 -8.5 19.5t-7.5 23.5q-27 -74 -50 -136q-10 -27 -19.5 -53.5t-18 -50
t-15.5 -41.5t-10 -27h244zM1120 1708l-47 -80l-633 237l156 267z" />
    <glyph glyph-name="Atilde" unicode="&#xc3;" horiz-adv-x="1642" 
d="M1620 0h-752v287h47q21 0 32 4t15 11t3 16.5t-4 19.5q-7 18 -13 33t-14 20h-438q-8 -14 -11 -26.5t-6 -24.5q-5 -18 -2 -28.5t10.5 -16t19 -7t25.5 -1.5h41v-287h-550v287h45q24 0 39 6.5t26.5 23t22.5 44.5t28 71l379 983q9 25 15 41t8.5 28.5t2.5 24t-1 27.5h379
q117 -266 216 -492q42 -96 85 -193.5t80.5 -182t66 -150t43.5 -98.5q21 -47 33.5 -73.5t24.5 -40t25.5 -16.5t35.5 -3h43v-287zM836 653q-28 62 -51 116l-20 46t-18.5 43t-15.5 36t-10 24q-6 12 -8.5 19.5t-7.5 23.5q-27 -74 -50 -136q-10 -27 -19.5 -53.5t-18 -50
t-15.5 -41.5t-10 -27h244zM1384 1927q-54 -63 -107 -116.5t-106 -92t-105.5 -60.5t-105.5 -22q-27 0 -57.5 12.5t-62.5 30.5t-64.5 40t-63 40t-57.5 30.5t-49 12.5q-39 0 -70.5 -8.5t-61.5 -26.5t-60 -45.5t-64 -65.5l-72 90q54 63 106 116.5t103.5 92t105 60.5t111.5 22
q25 0 54.5 -12t61 -30.5t63.5 -39.5t63 -39.5t60 -30.5t54 -12q42 0 73 7.5t59 24.5t55.5 44t62.5 66z" />
    <glyph glyph-name="Otilde" unicode="&#xd5;" horiz-adv-x="1729" 
d="M1671 762q0 -113 -29 -217.5t-82 -194.5t-127 -164t-163.5 -126.5t-193 -81.5t-214.5 -29q-113 0 -216 29t-192.5 81.5t-162.5 126.5t-125 164.5t-80.5 194.5t-28.5 217q0 112 28.5 216.5t80.5 195.5t125 165.5t162.5 127.5t193 82.5t215.5 29.5q123 0 231 -32t197.5 -88
t160.5 -133t119.5 -168t74.5 -192t26 -204zM1116 758q0 58 -3 120.5t-13 122t-28 113t-47 93.5t-69.5 63.5t-95.5 23.5q-56 0 -96.5 -23.5t-69.5 -63t-46.5 -92.5t-27.5 -112.5t-13.5 -121t-2.5 -119.5q0 -58 4.5 -119t15.5 -119t29 -110t46.5 -91t68 -62t92.5 -23
q55 0 95 22.5t68.5 61.5t46 90.5t28 109.5t14 118.5t4.5 117.5zM1427 1927q-54 -63 -107 -116.5t-106 -92t-105.5 -60.5t-105.5 -22q-27 0 -57.5 12.5t-62.5 30.5t-64.5 40t-63 40t-57.5 30.5t-49 12.5q-39 0 -70.5 -8.5t-61.5 -26.5t-60 -45.5t-64 -65.5l-72 90
q54 63 106 116.5t103.5 92t105 60.5t111.5 22q25 0 54.5 -12t61 -30.5t63.5 -39.5t63 -39.5t60 -30.5t54 -12q42 0 73 7.5t59 24.5t55.5 44t62.5 66z" />
    <glyph glyph-name="OE" unicode="&#x152;" horiz-adv-x="2441" 
d="M2382 475l-84 -508q-16 7 -52 13t-83.5 10.5t-100.5 7t-104 2.5h-823q-127 -47 -273 -47q-113 0 -216 29t-192.5 81.5t-162.5 126.5t-125 164.5t-80.5 194.5t-28.5 217t28.5 217t80.5 195t125 165.5t162.5 128t193 82.5t215.5 29q152 0 279 -47h872q28 0 48.5 10.5
t25.5 42.5l258 -33l-61 -456l-273 28q5 12 5.5 32t-8.5 40t-30.5 34.5t-60.5 14.5h-367v-311h230q27 0 45.5 2.5t30.5 9.5t18 19.5t8 31.5l223 -34l-49 -410l-237 37q3 17 4 33t-8 30q-10 14 -34 17.5t-50 3.5h-183l-2 -387h338q68 0 109 13.5t66 41t39.5 69t29.5 97.5z
M1069 414v710q-25 69 -60.5 105t-68.5 51q-39 18 -80 18q-56 0 -96.5 -23.5t-69.5 -63t-46.5 -92.5t-27.5 -112.5t-13.5 -121t-2.5 -119.5q0 -57 4.5 -118t15.5 -119.5t29 -110.5t46.5 -91t68 -62t92.5 -23q34 0 61.5 7.5t48.5 19.5t36.5 27.5t26.5 31.5q26 38 36 86z" />
    <glyph glyph-name="oe" unicode="&#x153;" horiz-adv-x="1823" 
d="M1769 182q-18 -14 -35 -28q-14 -12 -30.5 -25t-28.5 -23q-74 -61 -177 -100t-228 -39q-102 0 -188.5 26t-161.5 83q-69 -51 -151 -79t-175 -28q-114 0 -213.5 42.5t-173.5 116.5t-117 173t-43 213t43 213.5t117 173.5t173.5 117t213.5 43q90 0 170.5 -26.5t146.5 -76.5
q68 50 150.5 77.5t179.5 27.5q118 0 210 -39t157.5 -102t103.5 -141.5t49 -157.5l-557 -299q5 -12 20 -28.5t35.5 -30.5t44 -24t46.5 -10q42 0 81.5 15.5t74.5 38t64 48t50 46.5zM1337 711q-12 38 -41 66t-75 28q-21 0 -43.5 -9.5t-41 -27t-30.5 -43t-12 -57.5q0 -31 3 -52
t8 -35q4 -16 11 -26q49 27 91 51q18 10 36.5 20.5t35 20t29.5 17t21 12.5q9 6 10 16.5t-2 18.5zM713 526q0 42 -5.5 91t-19.5 91t-37 69.5t-57 27.5q-37 0 -61.5 -27.5t-39 -69t-20.5 -90.5t-6 -92q0 -46 5.5 -98t19.5 -96.5t39 -73.5t63 -29q32 0 54.5 29.5t37 74t21 96.5
t6.5 97z" />
    <glyph glyph-name="endash" unicode="&#x2013;" horiz-adv-x="1024" 
d="M975 768l-82 -246h-838l68 234h776q38 0 76 12z" />
    <glyph glyph-name="emdash" unicode="&#x2014;" horiz-adv-x="1536" 
d="M1489 768l-82 -246h-1352l68 234h1290q38 0 76 12z" />
    <glyph glyph-name="quotedblleft" unicode="&#x201c;" horiz-adv-x="1040" 
d="M997 1255q0 -42 -16 -78t-45 -63t-68.5 -42t-87.5 -15q-39 0 -71 14t-55 37t-35.5 53.5t-12.5 63.5t4 60t12.5 52.5t22.5 51t35 55.5q13 18 33 38.5t42.5 40t44.5 37t40 29.5l38 -38q15 -15 29.5 -29t20.5 -19q-20 -12 -38 -24.5t-34 -28.5t-31 -36t-30 -48
q17 12 35.5 16t33.5 4q25 0 49 -9t43 -26.5t30 -41.5t11 -54zM514 1255q0 -42 -16 -78t-45 -63t-68.5 -42t-87.5 -15q-39 0 -71 14t-55 37t-35.5 53.5t-12.5 63.5t3.5 60t12.5 52.5t23 51t35 55.5q13 18 32.5 38.5t42 40t44.5 37t40 29.5q21 -20 39 -38q15 -15 29.5 -29
t19.5 -19q-20 -12 -37.5 -24.5t-34 -28.5t-31.5 -36t-30 -48q17 12 35.5 16t34.5 4q25 0 49 -9t43 -26.5t30 -41.5t11 -54z" />
    <glyph glyph-name="quotedblright" unicode="&#x201d;" horiz-adv-x="1040" 
d="M971 1407q0 -33 -4 -60t-12.5 -52.5t-22.5 -51t-35 -55.5q-13 -18 -33 -38.5t-42.5 -40.5t-44.5 -37.5t-40 -29.5l-38 38q-15 15 -30 29t-20 19q20 12 37.5 25t34 28.5t31.5 36t30 48.5q-17 -13 -35.5 -17t-33.5 -4q-26 0 -49.5 9t-42.5 26.5t-30 41.5t-11 54
q0 42 16 78.5t45 63.5t68.5 42t87.5 15q39 0 71 -14t55 -37t35.5 -53.5t12.5 -63.5zM487 1407q0 -33 -3.5 -60t-12 -52.5t-22.5 -51t-35 -55.5q-13 -18 -33 -38.5t-42.5 -40.5t-44.5 -37.5t-40 -29.5q-21 20 -39 38q-15 15 -29.5 29t-19.5 19q20 12 37.5 25t34 28.5t31.5 36
t30 48.5q-17 -13 -35.5 -17t-34.5 -4q-25 0 -49 9t-42.5 26.5t-30 41.5t-11.5 54q0 42 16 78.5t45 63.5t68.5 42t87.5 15q39 0 71.5 -14t55 -37t35 -53.5t12.5 -63.5z" />
    <glyph glyph-name="quoteleft" unicode="&#x2bb;" horiz-adv-x="614" 
d="M526 1255q0 -42 -16 -78t-45 -63t-68.5 -42t-87.5 -15q-39 0 -71 14t-55 37t-35.5 53.5t-12.5 63.5t4 60t12.5 52.5t22.5 51t35 55.5q13 18 33 38.5t42.5 40t44.5 37t40 29.5l38 -38q15 -15 29.5 -29t20.5 -19q-20 -12 -38 -24.5t-34.5 -28.5t-31.5 -36t-29 -48
q17 12 35.5 16t33.5 4q25 0 49 -9t43 -26.5t30 -41.5t11 -54z" />
    <glyph glyph-name="quoteleft" unicode="&#x2018;" horiz-adv-x="614" 
d="M526 1255q0 -42 -16 -78t-45 -63t-68.5 -42t-87.5 -15q-39 0 -71 14t-55 37t-35.5 53.5t-12.5 63.5t4 60t12.5 52.5t22.5 51t35 55.5q13 18 33 38.5t42.5 40t44.5 37t40 29.5l38 -38q15 -15 29.5 -29t20.5 -19q-20 -12 -38 -24.5t-34.5 -28.5t-31.5 -36t-29 -48
q17 12 35.5 16t33.5 4q25 0 49 -9t43 -26.5t30 -41.5t11 -54z" />
    <glyph glyph-name="quoteright" unicode="&#x2019;" horiz-adv-x="614" 
d="M477 1407q0 -33 -3.5 -60t-12.5 -52.5t-23 -51t-35 -55.5q-13 -18 -32.5 -38.5t-42 -40.5t-44.5 -37.5t-40 -29.5q-21 20 -39 38q-15 15 -29.5 29t-19.5 19q40 25 75 57.5t58 80.5q-17 -13 -35.5 -17t-34.5 -4q-25 0 -49 9t-42.5 26.5t-30 41.5t-11.5 54q0 42 16 78.5
t45 63.5t68.5 42t87.5 15q39 0 71.5 -14t55 -37t35 -53.5t12.5 -63.5z" />
    <glyph glyph-name="ydieresis" unicode="&#xff;" horiz-adv-x="1217" 
d="M1208 758h-34q-25 0 -44.5 -17.5t-37.5 -60.5q-12 -28 -41.5 -94.5t-69.5 -156.5t-86.5 -195.5t-92.5 -211.5q-110 -249 -241 -546h-418q45 58 90 118q38 51 80 111t74 113q20 34 43 74.5t42 76.5q22 41 44 84q-89 156 -162 285q-31 55 -62 109t-57 100t-44.5 78.5
t-24.5 44.5q-13 23 -23.5 39.5t-21 27.5t-22.5 16t-27 5h-41v262h633v-262h-37q-26 0 -36.5 -7t-10.5 -24q0 -18 18 -57q4 -9 16.5 -32t27.5 -50t29.5 -53.5t22.5 -42.5q3 -7 5.5 -15.5t4.5 -16.5q3 -10 5 -20q1 10 4 20q3 16 10 32q6 12 15.5 35.5t20 50t21 52t17.5 40.5
q8 18 13 32.5t5 22.5q0 12 -9 22.5t-26 10.5h-39v262h467v-262zM1164 1379q0 -42 -16.5 -77t-45.5 -61t-67.5 -40.5t-83.5 -14.5q-32 0 -64 12t-57.5 33t-41 48t-15.5 57q0 41 18.5 75.5t49.5 59.5t70.5 39t80.5 14q29 0 59.5 -11t55.5 -30t41 -46t16 -58zM597 1379
q0 -42 -16 -77t-44.5 -61t-67 -40.5t-83.5 -14.5q-32 0 -64.5 12t-58 33t-41.5 48t-16 57q0 41 18.5 75.5t49.5 59.5t70.5 39t80.5 14q30 0 60.5 -11t55.5 -30t40.5 -46t15.5 -58z" />
    <glyph glyph-name="Ydieresis" unicode="&#x178;" horiz-adv-x="1704" 
d="M1677 1249h-73q-34 0 -59 -13.5t-54 -53.5q-14 -19 -37 -51t-51 -71t-59.5 -82.5t-62.5 -85.5q-72 -99 -155 -214v-326q0 -25 18.5 -45t55.5 -20h94v-287h-825v287h72q29 0 48 7.5t30 20.5t15.5 30t4.5 36v270q-99 121 -183 225q-36 44 -72 88.5t-67.5 83.5t-55.5 69.5
t-36 45.5q-32 44 -71 65t-74 21h-57v287h909v-287h-55q-26 0 -38 -6.5t-12 -28.5q0 -14 10 -26.5t21 -26.5q3 -5 11.5 -15.5t19.5 -24.5t24.5 -31t26.5 -34q31 -40 68 -87q37 53 67 97q13 19 25.5 37t22.5 33t17 26t9 14q25 40 22 56.5t-32 16.5h-86v287h624v-287z
M1412 1864q0 -42 -16.5 -77t-45.5 -61t-67.5 -40.5t-83.5 -14.5q-32 0 -64 12t-57.5 33t-41 48t-15.5 57q0 41 18.5 75.5t49.5 59.5t70.5 39t80.5 14q29 0 59.5 -11t55.5 -30t41 -46t16 -58zM845 1864q0 -42 -16 -77t-44.5 -61t-67 -40.5t-83.5 -14.5q-32 0 -64.5 12t-58 33
t-41.5 48t-16 57q0 41 18.5 75.5t49.5 59.5t70.5 39t80.5 14q30 0 60.5 -11t55.5 -30t40.5 -46t15.5 -58z" />
    <glyph glyph-name="fraction" unicode="&#x2044;" horiz-adv-x="1182" 
d="M1194 1622l-1057 -1829l-164 94l1053 1831z" />
    <glyph glyph-name="fraction" unicode="&#x2215;" horiz-adv-x="1182" 
d="M1194 1622l-1057 -1829l-164 94l1053 1831z" />
    <glyph glyph-name="Euro" unicode="&#x20ac;" horiz-adv-x="1769" 
d="M1194 715l-84 -172h-289q62 -103 151 -158t185 -55q68 0 124.5 10t104 29t89 46t79.5 62l160 -219q-84 -81 -190 -144q-46 -27 -101 -53t-119 -46.5t-136.5 -33.5t-151.5 -14q-144 -2 -268.5 37.5t-223 114.5t-167 182t-101.5 242h-254l88 162h141q-2 20 -3 39.5t-1 40.5
v11h-227l90 162h156q30 142 105.5 257.5t183.5 197t242.5 126t283.5 44.5q48 0 85 -6t66.5 -13.5t54 -14.5t48.5 -9q7 -1 16.5 -0.5t17.5 4.5t13.5 12t5.5 23l270 -39l-63 -477l-281 45q2 28 2 54q0 22 -3.5 44.5t-12.5 36.5q-31 46 -76 61t-114 15q-75 0 -136 -31
t-106 -81.5t-73 -115.5t-38 -133h410q14 0 24.5 2t22.5 7l-84 -171h-373q3 -23 6.5 -46.5t10.5 -44.5h393q14 0 24.5 2.5t22.5 7.5z" />
    <glyph glyph-name="guilsinglleft" unicode="&#x2039;" horiz-adv-x="664" 
d="M598 113l-524 344v143l524 340v-235l-266 -177l266 -176v-239z" />
    <glyph glyph-name="guilsinglright" unicode="&#x203a;" horiz-adv-x="664" 
d="M590 457l-524 -344v239l266 176l-266 177v235l524 -340v-143z" />
    <glyph glyph-name="daggerdbl" unicode="&#x2021;" horiz-adv-x="1135" 
d="M1073 -227q-78 35 -148 62q-30 12 -61.5 23t-60.5 20t-54.5 14.5t-43.5 5.5q0 -19 4.5 -46.5t12 -60t16.5 -68t19 -69.5q23 -80 52 -170h-467q29 88 52 168q10 34 19 69.5t16.5 68t12 60.5t4.5 48q-18 0 -43.5 -5.5t-54.5 -14.5t-60.5 -20t-61.5 -23q-70 -27 -148 -62
v458q76 -36 146 -63q30 -12 61 -23t60.5 -19.5t55.5 -14t45 -5.5q-1 25 -4 62t-7.5 79t-10 85t-12 79.5t-13.5 63t-14 35.5q8 9 15.5 35.5t14 63t12 79.5t9.5 85t6.5 78.5t3.5 61.5q-19 0 -45 -5.5t-55.5 -14.5t-60.5 -20t-61 -23q-70 -27 -146 -62v459q78 -36 148 -63
q30 -12 61.5 -23t60.5 -19.5t54.5 -14t43.5 -5.5q0 19 -4.5 47t-12 61t-16.5 68.5t-19 69.5q-23 80 -52 168h467q-29 -90 -52 -170q-10 -34 -19 -69.5t-16.5 -68t-12 -60.5t-4.5 -46q18 0 43.5 5.5t54.5 14t60.5 19.5t61.5 23q70 27 148 63v-459q-76 35 -146 62
q-30 12 -61 23t-60.5 20t-55.5 14.5t-45 5.5q1 -25 3.5 -61.5t6.5 -78.5t9.5 -85t12 -79.5t14 -63t15.5 -35.5q-8 -9 -15.5 -35.5t-14 -63t-12 -79.5t-9.5 -85t-6.5 -79t-3.5 -62q19 0 45 5.5t55.5 14t60.5 19.5t61 23q70 27 146 63v-458z" />
    <glyph glyph-name="periodcentered" unicode="&#xb7;" horiz-adv-x="614" 
d="M492 794q0 -41 -16.5 -76t-45 -60.5t-67 -40t-82.5 -14.5q-32 0 -64 12t-57.5 33t-41.5 48.5t-16 58.5q0 40 18.5 74.5t49.5 59t69.5 38.5t79.5 14q30 0 61 -11t55.5 -31t40.5 -47t16 -58z" />
    <glyph glyph-name="periodcentered" unicode="&#x2219;" horiz-adv-x="614" 
d="M492 794q0 -41 -16.5 -76t-45 -60.5t-67 -40t-82.5 -14.5q-32 0 -64 12t-57.5 33t-41.5 48.5t-16 58.5q0 40 18.5 74.5t49.5 59t69.5 38.5t79.5 14q30 0 61 -11t55.5 -31t40.5 -47t16 -58z" />
    <glyph glyph-name="quotesinglbase" unicode="&#x201a;" horiz-adv-x="614" 
d="M514 143q0 -33 -3.5 -60t-12.5 -52.5t-23 -51t-35 -55.5q-13 -18 -32.5 -38.5t-42 -40t-44.5 -37t-40 -29.5q-21 20 -39 38q-15 15 -29.5 29t-19.5 19q20 12 37.5 24.5t34 28.5t31.5 36t30 48q-17 -12 -36 -16t-34 -4q-26 0 -49.5 9t-42.5 26.5t-30 41.5t-11 54
q0 42 16 78t45 63t68.5 42t87.5 15q39 0 71 -14t55 -37t35.5 -53.5t12.5 -63.5z" />
    <glyph glyph-name="quotedblbase" unicode="&#x201e;" horiz-adv-x="1040" 
d="M971 143q0 -33 -4 -60t-12.5 -52.5t-22.5 -51t-35 -55.5q-13 -18 -33 -38.5t-42.5 -40t-44.5 -37t-40 -29.5l-38 38q-15 15 -30 29t-20 19q20 12 37.5 24.5t34 28.5t31.5 36t30 48q-17 -12 -35.5 -16t-33.5 -4q-26 0 -49.5 9t-42.5 26.5t-30 41.5t-11 54q0 42 16 78
t45 63t68.5 42t87.5 15q39 0 71 -14t55 -37t35.5 -53.5t12.5 -63.5zM487 143q0 -33 -3.5 -60t-12 -52.5t-22.5 -51t-35 -55.5q-13 -18 -33 -38.5t-42.5 -40t-44.5 -37t-40 -29.5q-21 20 -39 38q-15 15 -29.5 29t-19.5 19q20 12 37.5 24.5t34 28.5t31.5 36t30 48
q-17 -12 -35.5 -16t-34.5 -4q-25 0 -49 9t-42.5 26.5t-30 41.5t-11.5 54q0 42 16 78t45 63t68.5 42t87.5 15q39 0 71.5 -14t55 -37t35 -53.5t12.5 -63.5z" />
    <glyph glyph-name="perthousand" unicode="&#x2030;" horiz-adv-x="2251" 
d="M717 1130q0 -97 -27 -178.5t-73 -141t-107 -93t-129 -33.5q-78 0 -140.5 36t-106 97.5t-66.5 142t-23 170.5q0 91 25 172t70 142t107.5 97t137.5 36q78 0 140 -34t104.5 -93.5t65 -141.5t22.5 -178zM1272 1507l-910 -1554l-118 72l901 1552zM2202 397q0 -97 -27 -178.5
t-73 -141t-107 -93t-129 -33.5q-78 0 -140.5 36t-106 97.5t-66.5 142t-23 170.5q0 91 25 172t70 142t107.5 97t137.5 36q78 0 140 -34t104.5 -93.5t65 -141.5t22.5 -178zM1466 397q0 -97 -27 -178.5t-72.5 -141t-106.5 -93t-130 -33.5q-78 0 -140 36t-105.5 97.5t-66.5 142
t-23 170.5q0 91 25 172t70 142t107.5 97t137.5 36q78 0 139.5 -34t104 -93.5t65 -141.5t22.5 -178zM434 1130q0 78 -1 129.5t-6.5 82.5t-16 44t-29.5 13q-18 0 -28.5 -11t-16 -40.5t-7 -82t-1.5 -135.5q0 -84 1 -136t5.5 -80.5t15 -38t29.5 -9.5t30 11t16.5 40.5t7 80.5
t1.5 132zM1919 397q0 78 -1 129.5t-6.5 82.5t-16 44t-29.5 13q-18 0 -28.5 -11t-16 -40.5t-7.5 -82t-2 -135.5q0 -84 1 -136t5.5 -80.5t15 -38t30.5 -9.5q19 0 30 11t16.5 40.5t7 80.5t1.5 132zM1184 397q0 78 -1 129.5t-6.5 82.5t-16.5 44t-30 13q-18 0 -28.5 -11
t-16 -40.5t-7 -82t-1.5 -135.5q0 -84 1 -136t5.5 -80.5t15 -38t29.5 -9.5t30.5 11t17 40.5t7 80.5t1.5 132z" />
    <glyph glyph-name="Acircumflex" unicode="&#xc2;" horiz-adv-x="1642" 
d="M1620 0h-752v287h47q21 0 32 4t15 11t3 16.5t-4 19.5q-7 18 -13 33t-14 20h-438q-8 -14 -11 -26.5t-6 -24.5q-5 -18 -2 -28.5t10.5 -16t19 -7t25.5 -1.5h41v-287h-550v287h45q24 0 39 6.5t26.5 23t22.5 44.5t28 71l379 983q9 25 15 41t8.5 28.5t2.5 24t-1 27.5h379
q117 -266 216 -492q42 -96 85 -193.5t80.5 -182t66 -150t43.5 -98.5q21 -47 33.5 -73.5t24.5 -40t25.5 -16.5t35.5 -3h43v-287zM836 653q-28 62 -51 116l-20 46t-18.5 43t-15.5 36t-10 24q-6 12 -8.5 19.5t-7.5 23.5q-27 -74 -50 -136q-10 -27 -19.5 -53.5t-18 -50
t-15.5 -41.5t-10 -27h244zM1315 1704l-49 -62l-457 248l-461 -248l-47 62l420 414h168z" />
    <glyph glyph-name="Ecircumflex" unicode="&#xca;" horiz-adv-x="1620" 
d="M1563 475l-84 -508q-16 7 -52 13t-83.5 10.5t-100.5 7t-104 2.5h-1063v287h71q50 0 76.5 23t26.5 83v774q0 45 -20.5 63.5t-71.5 18.5h-84v287h1120q28 0 48.5 10.5t25.5 42.5l258 -33l-62 -456l-272 28q5 12 5.5 32t-8.5 40t-30.5 34.5t-60.5 14.5h-367v-311h230
q55 0 76 22.5t26 69.5l223 -26l-49 -439l-238 29q4 17 5 33t-9 30q-9 14 -33.5 17.5t-50.5 3.5h-180v-387h334q68 0 109 13.5t66 41t39.5 69t29.5 97.5zM1269 1704l-49 -62l-457 248l-461 -248l-47 62l420 414h168z" />
    <glyph glyph-name="Aacute" unicode="&#xc1;" horiz-adv-x="1642" 
d="M1620 0h-752v287h47q21 0 32 4t15 11t3 16.5t-4 19.5q-7 18 -13 33t-14 20h-438q-8 -14 -11 -26.5t-6 -24.5q-5 -18 -2 -28.5t10.5 -16t19 -7t25.5 -1.5h41v-287h-550v287h45q24 0 39 6.5t26.5 23t22.5 44.5t28 71l379 983q9 25 15 41t8.5 28.5t2.5 24t-1 27.5h379
q117 -266 216 -492q42 -96 85 -193.5t80.5 -182t66 -150t43.5 -98.5q21 -47 33.5 -73.5t24.5 -40t25.5 -16.5t35.5 -3h43v-287zM836 653q-28 62 -51 116l-20 46t-18.5 43t-15.5 36t-10 24q-6 12 -8.5 19.5t-7.5 23.5q-27 -74 -50 -136q-10 -27 -19.5 -53.5t-18 -50
t-15.5 -41.5t-10 -27h244zM1290 1867l-633 -237l-47 80l524 424z" />
    <glyph glyph-name="Edieresis" unicode="&#xcb;" horiz-adv-x="1620" 
d="M1563 475l-84 -508q-16 7 -52 13t-83.5 10.5t-100.5 7t-104 2.5h-1063v287h71q50 0 76.5 23t26.5 83v774q0 45 -20.5 63.5t-71.5 18.5h-84v287h1120q28 0 48.5 10.5t25.5 42.5l258 -33l-62 -456l-272 28q5 12 5.5 32t-8.5 40t-30.5 34.5t-60.5 14.5h-367v-311h230
q55 0 76 22.5t26 69.5l223 -26l-49 -439l-238 29q4 17 5 33t-9 30q-9 14 -33.5 17.5t-50.5 3.5h-180v-387h334q68 0 109 13.5t66 41t39.5 69t29.5 97.5zM1285 1861q0 -42 -16.5 -77t-45.5 -61t-67.5 -40.5t-83.5 -14.5q-32 0 -64 12t-57.5 33t-41 48t-15.5 57
q0 41 18.5 75.5t49.5 59.5t70.5 39t80.5 14q29 0 59.5 -11t55.5 -30t41 -46t16 -58zM718 1861q0 -42 -16 -77t-44.5 -61t-67 -40.5t-83.5 -14.5q-32 0 -64.5 12t-58 33t-41.5 48t-16 57q0 41 18.5 75.5t49.5 59.5t70.5 39t80.5 14q30 0 60.5 -11t55.5 -30t40.5 -46t15.5 -58
z" />
    <glyph glyph-name="Egrave" unicode="&#xc8;" horiz-adv-x="1620" 
d="M1563 475l-84 -508q-16 7 -52 13t-83.5 10.5t-100.5 7t-104 2.5h-1063v287h71q50 0 76.5 23t26.5 83v774q0 45 -20.5 63.5t-71.5 18.5h-84v287h1120q28 0 48.5 10.5t25.5 42.5l258 -33l-62 -456l-272 28q5 12 5.5 32t-8.5 40t-30.5 34.5t-60.5 14.5h-367v-311h230
q55 0 76 22.5t26 69.5l223 -26l-49 -439l-238 29q4 17 5 33t-9 30q-9 14 -33.5 17.5t-50.5 3.5h-180v-387h334q68 0 109 13.5t66 41t39.5 69t29.5 97.5zM1095 1710l-47 -80l-633 237l156 267z" />
    <glyph glyph-name="Iacute" unicode="&#xcd;" horiz-adv-x="989" 
d="M893 0h-809v287h76q48 0 71 23.5t23 74.5v770q0 47 -19.5 70.5t-68.5 23.5h-82v287h809v-287h-72q-49 0 -67.5 -25t-18.5 -71v-766q0 -46 23.5 -73t72.5 -27h62v-287zM894 1867l-633 -237l-47 80l524 424z" />
    <glyph glyph-name="Icircumflex" unicode="&#xce;" horiz-adv-x="989" 
d="M893 0h-809v287h76q48 0 71 23.5t23 74.5v770q0 47 -19.5 70.5t-68.5 23.5h-82v287h809v-287h-72q-49 0 -67.5 -25t-18.5 -71v-766q0 -46 23.5 -73t72.5 -27h62v-287zM1002 1704l-49 -62l-457 248l-461 -248l-47 62l420 414h168z" />
    <glyph glyph-name="Idieresis" unicode="&#xcf;" horiz-adv-x="989" 
d="M893 0h-809v287h76q48 0 71 23.5t23 74.5v770q0 47 -19.5 70.5t-68.5 23.5h-82v287h809v-287h-72q-49 0 -67.5 -25t-18.5 -71v-766q0 -46 23.5 -73t72.5 -27h62v-287zM973 1874q0 -42 -16.5 -77t-45.5 -61t-67.5 -40.5t-83.5 -14.5q-32 0 -64 12t-57.5 33t-41 48
t-15.5 57q0 41 18.5 75.5t49.5 59.5t70.5 39t80.5 14q29 0 59.5 -11t55.5 -30t41 -46t16 -58zM406 1874q0 -42 -16 -77t-44.5 -61t-67 -40.5t-83.5 -14.5q-32 0 -64.5 12t-58 33t-41.5 48t-16 57q0 41 18.5 75.5t49.5 59.5t70.5 39t80.5 14q30 0 60.5 -11t55.5 -30t40.5 -46
t15.5 -58z" />
    <glyph glyph-name="Igrave" unicode="&#xcc;" horiz-adv-x="989" 
d="M893 0h-809v287h76q48 0 71 23.5t23 74.5v770q0 47 -19.5 70.5t-68.5 23.5h-82v287h809v-287h-72q-49 0 -67.5 -25t-18.5 -71v-766q0 -46 23.5 -73t72.5 -27h62v-287zM805 1710l-47 -80l-633 237l156 267z" />
    <glyph glyph-name="Oacute" unicode="&#xd3;" horiz-adv-x="1729" 
d="M1671 762q0 -113 -29 -217.5t-82 -194.5t-127 -164t-163.5 -126.5t-193 -81.5t-214.5 -29q-113 0 -216 29t-192.5 81.5t-162.5 126.5t-125 164.5t-80.5 194.5t-28.5 217q0 112 28.5 216.5t80.5 195.5t125 165.5t162.5 127.5t193 82.5t215.5 29.5q123 0 231 -32t197.5 -88
t160.5 -133t119.5 -168t74.5 -192t26 -204zM1116 758q0 58 -3 120.5t-13 122t-28 113t-47 93.5t-69.5 63.5t-95.5 23.5q-56 0 -96.5 -23.5t-69.5 -63t-46.5 -92.5t-27.5 -112.5t-13.5 -121t-2.5 -119.5q0 -58 4.5 -119t15.5 -119t29 -110t46.5 -91t68 -62t92.5 -23
q55 0 95 22.5t68.5 61.5t46 90.5t28 109.5t14 118.5t4.5 117.5zM1181 1869l-633 -237l-47 80l524 424z" />
    <glyph glyph-name="Ocircumflex" unicode="&#xd4;" horiz-adv-x="1729" 
d="M1671 762q0 -113 -29 -217.5t-82 -194.5t-127 -164t-163.5 -126.5t-193 -81.5t-214.5 -29q-113 0 -216 29t-192.5 81.5t-162.5 126.5t-125 164.5t-80.5 194.5t-28.5 217q0 112 28.5 216.5t80.5 195.5t125 165.5t162.5 127.5t193 82.5t215.5 29.5q123 0 231 -32t197.5 -88
t160.5 -133t119.5 -168t74.5 -192t26 -204zM1116 758q0 58 -3 120.5t-13 122t-28 113t-47 93.5t-69.5 63.5t-95.5 23.5q-56 0 -96.5 -23.5t-69.5 -63t-46.5 -92.5t-27.5 -112.5t-13.5 -121t-2.5 -119.5q0 -58 4.5 -119t15.5 -119t29 -110t46.5 -91t68 -62t92.5 -23
q55 0 95 22.5t68.5 61.5t46 90.5t28 109.5t14 118.5t4.5 117.5zM1372 1704l-49 -62l-457 248l-461 -248l-47 62l420 414h168z" />
    <glyph glyph-name="apple" unicode="&#xf8ff;" horiz-adv-x="1419" 
d="M1116 831h-366v398h366v-398zM668 831h-365v398h365v-398zM1116 354h-366v396h366v-396zM668 354h-365v396h365v-396z" />
    <glyph glyph-name="Ograve" unicode="&#xd2;" horiz-adv-x="1729" 
d="M1671 762q0 -113 -29 -217.5t-82 -194.5t-127 -164t-163.5 -126.5t-193 -81.5t-214.5 -29q-113 0 -216 29t-192.5 81.5t-162.5 126.5t-125 164.5t-80.5 194.5t-28.5 217q0 112 28.5 216.5t80.5 195.5t125 165.5t162.5 127.5t193 82.5t215.5 29.5q123 0 231 -32t197.5 -88
t160.5 -133t119.5 -168t74.5 -192t26 -204zM1116 758q0 58 -3 120.5t-13 122t-28 113t-47 93.5t-69.5 63.5t-95.5 23.5q-56 0 -96.5 -23.5t-69.5 -63t-46.5 -92.5t-27.5 -112.5t-13.5 -121t-2.5 -119.5q0 -58 4.5 -119t15.5 -119t29 -110t46.5 -91t68 -62t92.5 -23
q55 0 95 22.5t68.5 61.5t46 90.5t28 109.5t14 118.5t4.5 117.5zM1193 1710l-47 -80l-633 237l156 267z" />
    <glyph glyph-name="Uacute" unicode="&#xda;" horiz-adv-x="1804" 
d="M1735 1249h-76q-40 0 -66 -25t-26 -81v-643q0 -92 -23 -172.5t-67.5 -145.5t-110.5 -113.5t-152 -76.5q-66 -22 -133.5 -30.5t-154.5 -8.5q-139 0 -263.5 31.5t-218 93t-148 151t-54.5 205.5v713q0 46 -24 74t-71 28h-84v287h840v-287h-82q-16 0 -32 -4.5t-29 -15
t-21 -28.5t-8 -46v-674q0 -72 24.5 -122.5t63.5 -82t87 -45.5t95 -14q79 0 136.5 38.5t85.5 106.5q15 37 17.5 67t2.5 69v649q0 46 -20.5 74t-67.5 28h-78v287h658v-287zM1319 1865l-633 -237l-47 80l524 424z" />
    <glyph glyph-name="Ucircumflex" unicode="&#xdb;" horiz-adv-x="1804" 
d="M1735 1249h-76q-40 0 -66 -25t-26 -81v-643q0 -92 -23 -172.5t-67.5 -145.5t-110.5 -113.5t-152 -76.5q-66 -22 -133.5 -30.5t-154.5 -8.5q-139 0 -263.5 31.5t-218 93t-148 151t-54.5 205.5v713q0 46 -24 74t-71 28h-84v287h840v-287h-82q-16 0 -32 -4.5t-29 -15
t-21 -28.5t-8 -46v-674q0 -72 24.5 -122.5t63.5 -82t87 -45.5t95 -14q79 0 136.5 38.5t85.5 106.5q15 37 17.5 67t2.5 69v649q0 46 -20.5 74t-67.5 28h-78v287h658v-287zM1480 1702l-49 -62l-457 248l-461 -248l-47 62l420 414h168z" />
    <glyph glyph-name="Ugrave" unicode="&#xd9;" horiz-adv-x="1804" 
d="M1735 1249h-76q-40 0 -66 -25t-26 -81v-643q0 -92 -23 -172.5t-67.5 -145.5t-110.5 -113.5t-152 -76.5q-66 -22 -133.5 -30.5t-154.5 -8.5q-139 0 -263.5 31.5t-218 93t-148 151t-54.5 205.5v713q0 46 -24 74t-71 28h-84v287h840v-287h-82q-16 0 -32 -4.5t-29 -15
t-21 -28.5t-8 -46v-674q0 -72 24.5 -122.5t63.5 -82t87 -45.5t95 -14q79 0 136.5 38.5t85.5 106.5q15 37 17.5 67t2.5 69v649q0 46 -20.5 74t-67.5 28h-78v287h658v-287zM1322 1708l-47 -80l-633 237l156 267z" />
    <glyph glyph-name="dotlessi" unicode="&#x131;" horiz-adv-x="707" 
d="M670 0h-602v262h45q32 0 44.5 17t12.5 55v315q0 11 -8 21t-15 10q-25 0 -53 -18l-69 258l534 122v-704q0 -43 17.5 -60.5t52.5 -17.5h15.5t13.5 1q6 0 12 1v-262z" />
    <glyph glyph-name="circumflex" unicode="&#x2c6;" 
d="M1143 1147l-49 -62l-457 248l-461 -248l-47 62l420 414h168z" />
    <glyph glyph-name="tilde" unicode="&#x2dc;" 
d="M1188 1475q-54 -63 -107 -116.5t-106 -92t-105.5 -60.5t-105.5 -22q-27 0 -57.5 12.5t-62.5 30.5t-64.5 40t-63 40t-57.5 30.5t-49 12.5q-39 0 -70.5 -8.5t-61.5 -26.5t-60 -45.5t-64 -65.5l-72 90q54 63 106 116.5t103.5 92t105 60.5t111.5 22q25 0 54.5 -12t61 -30.5
t63.5 -39.5t63 -39.5t60 -30.5t54 -12q42 0 73 7.5t59 24.5t55.5 44t62.5 66z" />
    <glyph glyph-name="macron" unicode="&#xaf;" 
d="M1159 1397h-1046v141h1046v-141z" />
    <glyph glyph-name="macron" unicode="&#x2c9;" 
d="M1159 1397h-1046v141h1046v-141z" />
    <glyph glyph-name="breve" unicode="&#x2d8;" 
d="M1159 1559q-32 -111 -89 -193.5t-128.5 -137t-151 -81.5t-157.5 -27q-76 0 -155 27t-149.5 81.5t-127.5 137t-88 193.5l88 26q27 -45 70 -89.5t99 -80t123 -58t142 -22.5t142.5 22.5t124 58t99.5 80t70 89.5z" />
    <glyph glyph-name="dotaccent" unicode="&#x2d9;" 
d="M844 1436q0 -42 -16 -77t-44.5 -61t-67 -40.5t-83.5 -14.5q-32 0 -64.5 12t-58 33t-41.5 48t-16 57q0 41 18.5 75.5t49.5 59.5t70 39t81 14q30 0 60.5 -11t55.5 -30t40.5 -46t15.5 -58z" />
    <glyph glyph-name="ring" unicode="&#x2da;" 
d="M883 1337q0 -51 -20 -96t-53.5 -78.5t-78.5 -53t-96 -19.5t-96.5 19.5t-79.5 53t-54 78.5t-20 96q0 52 20 97.5t54 79t79.5 52.5t96.5 19t96 -19t78.5 -52.5t53.5 -79t20 -97.5zM752 1337q0 22 -10 43.5t-26.5 37.5t-37.5 26t-43 10q-23 0 -44.5 -10t-38 -26t-26.5 -37.5
t-10 -43.5q0 -24 10 -45t26.5 -36.5t38 -25t44.5 -9.5q22 0 43 9.5t37.5 25t26.5 36.5t10 45z" />
    <glyph glyph-name="cedilla" unicode="&#xb8;" 
d="M981 -412q0 -54 -27 -97t-71 -74t-101.5 -47.5t-117.5 -16.5q-23 0 -57 7t-69.5 20.5t-68.5 33.5t-55 45l57 64q31 -26 63 -39.5t70 -13.5q43 0 72.5 9.5t47.5 26t26 39t8 47.5q0 50 -18 81t-51 47.5t-80 22t-105 5.5l74 299h131l-52 -209q94 -8 156 -27t99.5 -50
t53 -74.5t15.5 -98.5z" />
    <glyph glyph-name="hungarumlaut" unicode="&#x2dd;" 
d="M690 1339l-633 -237l-47 80l525 424zM1253 1333l-632 -237l-48 80l531 423z" />
    <glyph glyph-name="ogonek" unicode="&#x2db;" 
d="M821 -395q-8 -15 -25.5 -31t-41.5 -29.5t-53.5 -22.5t-63.5 -9q-56 0 -106.5 13t-89.5 41t-62 71.5t-23 105.5q0 37 16.5 73t47 69t73 62.5t93.5 53.5h131q-81 -56 -124.5 -115.5t-43.5 -128.5q0 -37 9.5 -64t25.5 -45t35.5 -27t39.5 -9q32 0 63 8.5t62 36.5z" />
    <glyph glyph-name="caron" unicode="&#x2c7;" 
d="M1143 1528l-426 -414h-168l-420 414l47 61l461 -248l457 248z" />
    <glyph glyph-name="uni2117" unicode="&#x2117;" horiz-adv-x="1516" 
d="M1458 883q0 -96 -25 -185.5t-71 -167.5t-110 -142t-141.5 -110t-167 -71t-185.5 -25t-185.5 25t-167.5 71t-142 110t-110 142t-71 167.5t-25 185.5t25 185.5t71 167t110 141.5t142 110t167.5 71t185.5 25t185.5 -25t167 -71t141.5 -110t110 -141.5t71 -167t25 -185.5z
M1354 883q0 124 -46.5 232.5t-127 189.5t-189.5 127.5t-233 46.5q-125 0 -233.5 -46.5t-189 -127.5t-127 -189.5t-46.5 -232.5q0 -125 46.5 -233.5t127 -189t189 -127t233.5 -46.5q124 0 233 46.5t189.5 127t127 189t46.5 233.5zM1186 1024q0 -55 -24 -103t-66.5 -83
t-100.5 -55.5t-125 -20.5h-100v-84q0 -23 12 -35t41 -12h41v-144h-424v144h41q45 0 45 45v385q0 29 -10 40t-35 11h-37v143h449q76 0 131.5 -18.5t91.5 -50t53 -73.5t17 -89zM932 1012q0 18 -5.5 36t-17.5 32.5t-31 23t-47 8.5h-59v-205h49q57 0 84 30.5t27 74.5z" />
    <glyph glyph-name="nonbreakingspace" unicode="&#xa0;" horiz-adv-x="205" 
 />
    </font>
</defs>
</svg>
