<?xml version="1.0" encoding="UTF-8"?>
<!-- Generator: Adobe Illustrator 16.0.4, SVG Export Plug-In . SVG Version: 6.00 Build 0)  -->
<!DOCTYPE svg PUBLIC "-//W3C//DTD SVG 1.1//EN" "http://www.w3.org/Graphics/SVG/1.1/DTD/svg11.dtd">
<svg version="1.1" id="icons" xmlns="http://www.w3.org/2000/svg" xmlns:xlink="http://www.w3.org/1999/xlink" x="0px" y="0px" width="40px" height="40px" viewBox="0 0 40 40" enable-background="new 0 0 40 40" xml:space="preserve">
<g>
	<path fill="#FFFFFF" d="M34.724,5.721c-0.063-0.154-0.183-0.274-0.338-0.339c-0.078-0.032-0.159-0.049-0.24-0.049h-6.304   c-0.345,0-0.625,0.28-0.625,0.625s0.28,0.625,0.625,0.625h4.795l-9.02,9.019c-0.244,0.244-0.244,0.641,0,0.885   c0.118,0.117,0.275,0.183,0.442,0.183s0.324-0.065,0.442-0.183l9.02-9.02v4.794c0,0.345,0.28,0.625,0.625,0.625   s0.625-0.28,0.625-0.625V5.958C34.772,5.877,34.755,5.795,34.724,5.721z"/>
	<path fill="#FFFFFF" d="M14.792,24.428l-9.02,9.021v-4.796c0-0.345-0.28-0.625-0.625-0.625s-0.625,0.28-0.625,0.625l0,6.307   c0,0.082,0.016,0.162,0.047,0.237c0.063,0.152,0.187,0.275,0.338,0.337c0.078,0.032,0.158,0.049,0.239,0.049h6.304   c0.345,0,0.625-0.28,0.625-0.625s-0.28-0.625-0.625-0.625H6.656l9.02-9.021c0.244-0.244,0.244-0.641,0-0.885   C15.439,24.193,15.028,24.193,14.792,24.428z"/>
	<path fill="#FFFFFF" d="M6.656,6.583h4.795c0.345,0,0.625-0.28,0.625-0.625s-0.28-0.625-0.625-0.625H5.147   c-0.081,0-0.162,0.017-0.24,0.049C4.753,5.446,4.633,5.566,4.57,5.719C4.539,5.795,4.522,5.877,4.522,5.958v6.303   c0,0.345,0.28,0.625,0.625,0.625s0.625-0.28,0.625-0.625V7.467l9.02,9.019c0.118,0.118,0.275,0.184,0.442,0.184   s0.324-0.065,0.442-0.183c0.244-0.244,0.244-0.641,0-0.885L6.656,6.583z"/>
	<path fill="#FFFFFF" d="M34.147,28.028c-0.345,0-0.625,0.28-0.625,0.625v4.796l-9.02-9.021c-0.236-0.234-0.647-0.234-0.884,0   c-0.244,0.244-0.244,0.641,0,0.884l9.02,9.021h-4.795c-0.345,0-0.625,0.28-0.625,0.625s0.28,0.625,0.625,0.625h6.304   c0.081,0,0.161-0.017,0.238-0.048c0.153-0.062,0.276-0.186,0.339-0.337c0.032-0.076,0.048-0.156,0.044-0.208l0.004-6.337   C34.772,28.309,34.492,28.028,34.147,28.028z"/>
</g>
</svg>